<svg xmlns="http://www.w3.org/2000/svg" width="105.158" height="99.412" viewBox="0 0 105.158 99.412">
  <g id="suPizzaSimple" transform="translate(-150.092 0.032)">
    <g id="Capa_1" data-name="Capa 1">
      <path id="Trazado_1" data-name="Trazado 1" d="M174.92,28.15c13.72,0,25.26-1.91,25.26,3.47s-11.12,9.74-24.85,9.74-25-4.36-24.85-9.74c.08-3.88,11.13-3.88,24.85-3.88" fill="#fff" fill-rule="evenodd"/>
      <path id="Trazado_2" data-name="Trazado 2" d="M209.73,8.36a45.51,45.51,0,1,1-45.5,45.507A45.512,45.512,0,0,1,209.73,8.36" fill="#345f2a" fill-rule="evenodd"/>
      <path id="Trazado_3" data-name="Trazado 3" d="M209.73,11.9a42,42,0,1,1-42,42,42,42,0,0,1,42-42" fill="#fff" fill-rule="evenodd"/>
      <path id="Trazado_4" data-name="Trazado 4" d="M226.3,5.11v.15H226a.89.89,0,0,0-.73.22,12.73,12.73,0,0,1-6.07,2.65c-3.59.79-5.57.34-6.72.51-.84.13-1,2-2.4.35-.58-.68,0-.7-.92-.88a4.92,4.92,0,0,1-.93,3.54,4.23,4.23,0,0,1-2.44,1.77c-.69.22.49-.34-.18.07.21.19.22.21.68.21.68,3.8-1.75,6.21-5.42,6.12-1.51,0-.19-.28-1.6.06-.13-.52-.69-.5-1.22-.67a4.78,4.78,0,0,1-1.43-.71c-.85-.53-2.08-1.29-1.93-2.46l-.17.43c0,.07-.07.38-.08.44a6.69,6.69,0,0,0,.77,4.7c.16.22.32.44.51.67a6.2,6.2,0,0,0,1.71,1.48,12.91,12.91,0,0,0,5.3,1.65c.73.07,1.48,0,2.21,0l1.8-.27a8.59,8.59,0,0,0,5.5-3.64c.75-1.17-.71-2.39-1-3.24.19-.22,0-.07.36-.1l-.27-.33A7,7,0,0,1,213.72,16c2.95-1.45,8.17-1.64,11.36-.71.43.13,1.32.38,1.65.51.49.18.58.71.71,1.53l.76,4.15a1.416,1.416,0,0,0,.05.47l.16,3.18a13.373,13.373,0,0,1-.11,2c-.05.28-.1.58-.16.91-.09.5-.06.67-.48.66.1.12,0,.05.17.16a16.56,16.56,0,0,1,2.08,1.47,2.1,2.1,0,0,0,.31.35c.02.02,0,.06.23.08a1.176,1.176,0,0,0,.28,0c.46-.4.15-7.59-.06-9.18a16.768,16.768,0,0,1-.44-2.54l.19.23c0-.42,0-.13.13-.21,2.57,1.23,7.22,1.52,9.9,0A6.35,6.35,0,0,0,243,10.75a7.41,7.41,0,0,0-2.71-3.28,15.2,15.2,0,0,0-3.76-2.23c-3.3-1.07-6.93-1.68-10.2-.13m0,.15A3.66,3.66,0,0,0,227.78,5c.38-.09,1-.16,1.48-.24a12.28,12.28,0,0,1,4.66.36c.37.11,1,.2,1.35.33l2.38,1.07c-.39,4.85-7,3.62-10.37,2.11-.74-.33-2.32-1.35-2.51-2.43A3.86,3.86,0,0,1,226,5.5l.29-.18.07-.06" fill="#731819" fill-rule="evenodd"/>
      <path id="Trazado_5" data-name="Trazado 5" d="M226.3,5.11v.15H226a.89.89,0,0,0-.73.22,12.73,12.73,0,0,1-6.07,2.65c-3.59.79-5.57.34-6.72.51-.84.13-1,2-2.4.35-.58-.68,0-.7-.92-.88a4.92,4.92,0,0,1-.93,3.54,4.23,4.23,0,0,1-2.44,1.77c-.69.22.49-.34-.18.07.21.19.22.21.68.21.68,3.8-1.75,6.21-5.42,6.12-1.51,0-.19-.28-1.6.06-.13-.52-.69-.5-1.22-.67a4.78,4.78,0,0,1-1.43-.71c-.85-.53-2.08-1.29-1.93-2.46l-.17.43c0,.07-.07.38-.08.44a6.69,6.69,0,0,0,.77,4.7c.16.22.32.44.51.67a6.2,6.2,0,0,0,1.71,1.48,12.91,12.91,0,0,0,5.3,1.65c.73.07,1.48,0,2.21,0l1.8-.27a8.59,8.59,0,0,0,5.5-3.64c.75-1.17-.71-2.39-1-3.24.19-.22,0-.07.36-.1l-.27-.33A7,7,0,0,1,213.72,16c2.95-1.45,8.17-1.64,11.36-.71.43.13,1.32.38,1.65.51.49.18.58.71.71,1.53l.76,4.15a1.416,1.416,0,0,0,.05.47l.16,3.18a13.373,13.373,0,0,1-.11,2c-.05.28-.1.58-.16.91-.09.5-.06.67-.48.66.1.12,0,.05.17.16a16.56,16.56,0,0,1,2.08,1.47,2.1,2.1,0,0,0,.31.35c.02.02,0,.06.23.08a1.176,1.176,0,0,0,.28,0c.46-.4.15-7.59-.06-9.18a16.768,16.768,0,0,1-.44-2.54l.19.23c0-.42,0-.13.13-.21,2.57,1.23,7.22,1.52,9.9,0A6.35,6.35,0,0,0,243,10.75a7.41,7.41,0,0,0-2.71-3.28,15.2,15.2,0,0,0-3.76-2.23C233.2,4.17,229.57,3.56,226.3,5.11Zm0,.15A3.66,3.66,0,0,0,227.78,5c.38-.09,1-.16,1.48-.24a12.28,12.28,0,0,1,4.66.36c.37.11,1,.2,1.35.33l2.38,1.07c-.39,4.85-7,3.62-10.37,2.11-.74-.33-2.32-1.35-2.51-2.43A3.86,3.86,0,0,1,226,5.5l.29-.18a.739.739,0,0,1,.05-.06Z" fill="none" stroke="#080a00" stroke-linejoin="round" stroke-width="3.13"/>
      <path id="Trazado_6" data-name="Trazado 6" d="M200.64,9.5a4,4,0,0,0,.32,1.64c.13.32,0,0,.11.23a3.91,3.91,0,0,0,.91,1.38,3.57,3.57,0,0,0,1.34.94,2.76,2.76,0,0,0,1.92.21c.7-.43-.53.15.19-.08A4.39,4.39,0,0,0,208,12a5.18,5.18,0,0,0,1-3.72c1,.2.35.21,1,.93,1.46,1.73,1.64-.24,2.52-.37,1.2-.18,3.28.3,7.05-.54a13.22,13.22,0,0,0,6.37-2.78,1,1,0,0,1,.77-.23h.39V5.12c-.68.14-1-1.21-2.77-2.3a17.69,17.69,0,0,0-3.46-1.71,19.26,19.26,0,0,0-8.87-1,14.19,14.19,0,0,0-4.07,1,13.549,13.549,0,0,0-1.8.79,12.58,12.58,0,0,0-3,2.14,10.131,10.131,0,0,0-1.18,1.41c-1,1.39-.88,2.22-1.17,4" fill="#080a00" fill-rule="evenodd"/>
      <path id="Trazado_7" data-name="Trazado 7" d="M210.33,16.94a37.88,37.88,0,1,1-37.88,37.88,37.88,37.88,0,0,1,37.88-37.88" fill="#282c16" fill-rule="evenodd"/>
      <path id="Trazado_8" data-name="Trazado 8" d="M210,17.42A36.61,36.61,0,1,1,173.35,54,36.61,36.61,0,0,1,210,17.42" fill="#fff" fill-rule="evenodd"/>
      <path id="Trazado_9" data-name="Trazado 9" d="M174.92,28.15c13.72,0,25.26-1.91,25.26,3.47s-11.12,9.74-24.85,9.74S150.48,37,150.48,31.62s11.13-3.88,24.85-3.88" fill="#fff" fill-rule="evenodd"/>
      <path id="Trazado_10" data-name="Trazado 10" d="M226.3,5.11v.15H226a.89.89,0,0,0-.73.22,12.73,12.73,0,0,1-6.07,2.65c-3.59.79-5.57.34-6.72.51-.84.13-1,2-2.4.35-.58-.68,0-.7-.92-.88a4.92,4.92,0,0,1-.93,3.54,4.23,4.23,0,0,1-2.44,1.77c-.69.22.49-.34-.18.07.21.19.22.21.68.21.68,3.8-1.75,6.21-5.42,6.12-1.51,0-.19-.28-1.6.06-.13-.52-.69-.5-1.22-.67a4.78,4.78,0,0,1-1.43-.71c-.85-.53-2.08-1.29-1.93-2.46l-.17.43c0,.07-.07.38-.08.44a6.69,6.69,0,0,0,.77,4.7c.16.22.32.44.51.67a6.2,6.2,0,0,0,1.71,1.48,12.91,12.91,0,0,0,5.3,1.65c.73.07,1.48,0,2.21,0l1.8-.27a8.59,8.59,0,0,0,5.5-3.64c.75-1.17-.71-2.39-1-3.24.19-.22,0-.07.36-.1l-.27-.33A7,7,0,0,1,213.72,16c2.95-1.45,8.17-1.64,11.36-.71.43.13,1.32.38,1.65.51.49.18.58.71.71,1.53l.76,4.15a1.416,1.416,0,0,0,.05.47l.16,3.18a13.373,13.373,0,0,1-.11,2c-.05.28-.1.58-.16.91-.09.5-.06.67-.48.66.1.12,0,.05.17.16a16.56,16.56,0,0,1,2.08,1.47,2.1,2.1,0,0,0,.31.35c.02.02,0,.06.23.08a1.176,1.176,0,0,0,.28,0c.46-.4.15-7.59-.06-9.18a16.768,16.768,0,0,1-.44-2.54l.19.23c0-.42,0-.13.13-.21,2.57,1.23,7.22,1.52,9.9,0A6.35,6.35,0,0,0,243,10.75a7.41,7.41,0,0,0-2.71-3.28,15.2,15.2,0,0,0-3.76-2.23c-3.3-1.07-6.93-1.68-10.2-.13m0,.15A3.66,3.66,0,0,0,227.78,5c.38-.09,1-.16,1.48-.24a12.28,12.28,0,0,1,4.66.36c.37.11,1,.2,1.35.33l2.38,1.07c-.39,4.85-7,3.62-10.37,2.11-.74-.33-2.32-1.35-2.51-2.43A3.86,3.86,0,0,1,226,5.5l.29-.18.07-.06" fill="#28451f" fill-rule="evenodd"/>
      <path id="Trazado_11" data-name="Trazado 11" d="M226.34,5.26A3.66,3.66,0,0,0,227.78,5c.38-.09,1-.16,1.48-.24a12.28,12.28,0,0,1,4.66.36c.37.11,1,.2,1.35.33l2.38,1.07c-.39,4.85-7,3.62-10.37,2.11-.74-.33-2.32-1.35-2.51-2.43A3.86,3.86,0,0,1,226,5.5l.29-.18A.739.739,0,0,1,226.34,5.26Z" fill="none" stroke="#731819" stroke-miterlimit="22.93" stroke-width="0.09"/>
      <path id="Trazado_12" data-name="Trazado 12" d="M201.18,9.26a3.78,3.78,0,0,0,.31,1.56c.12.31,0,0,.11.22a3.91,3.91,0,0,0,.86,1.32,3.57,3.57,0,0,0,1.28.9,2.66,2.66,0,0,0,1.83.19c.66-.41-.51.15.18-.07a4.23,4.23,0,0,0,2.44-1.77,4.92,4.92,0,0,0,.93-3.54c.94.18.34.2.92.88,1.4,1.65,1.56-.22,2.4-.35,1.15-.17,3.13.28,6.72-.51a12.73,12.73,0,0,0,6.07-2.65.89.89,0,0,1,.73-.22h.38V5.07c-.65.13-.94-1.16-2.65-2.2a17.091,17.091,0,0,0-3.29-1.63,18.42,18.42,0,0,0-8.45-.95,14,14,0,0,0-3.88.94,12.93,12.93,0,0,0-1.72.76,11.94,11.94,0,0,0-2.88,2A9.68,9.68,0,0,0,202.3,5.4c-.94,1.33-.83,2.12-1.12,3.86" fill="#345f2a" fill-rule="evenodd"/>
      <path id="Trazado_13" data-name="Trazado 13" d="M211.52,18.16c.06.31.39.51.59.8a7.71,7.71,0,0,1,1.37,3.34c.21,1.56,0,4.24-.89,5.15-.55,1.1-1,.67-1.36,1.65a4.35,4.35,0,0,0,0,2.74l.27.26a11.12,11.12,0,0,1,.48-3.39c.23-.68.34-.59.95-1s.91-.31,1.32-.59v-.05c0,.02-.37-.18,1.31-.58,3-.71,6.19.23,6.85.17a2.22,2.22,0,0,1,.78-.08c.7.09.89.57,1.46.79l3.06,1.3c.42,0,.39-.16.48-.66.06-.33.11-.63.16-.91a13.367,13.367,0,0,0,.11-2l-.16-3.18a1.6,1.6,0,0,0-.05-.47l-.76-4.15c-.13-.82-.22-1.35-.71-1.53-.33-.13-1.22-.38-1.65-.51-3.19-.93-8.41-.74-11.36.71a7,7,0,0,0-2.47,1.86Z" fill="#345f2a" fill-rule="evenodd"/>
      <path id="Trazado_14" data-name="Trazado 14" d="M169.48,24.93c2.32-1.78,2.41.3,6-.44-.31,1-1.54.7-2.65.7-.36.3-.26.46-.76.66a4,4,0,0,1-1.06.21c-.89,0-1.56-.22-1.53-1.13" fill="#ecce1e" fill-rule="evenodd"/>
      <path id="Trazado_15" data-name="Trazado 15" d="M184.2,26.3c.09,1.34-.52,1.59-1.32,2.13-1.21.82-1.1.64-1.1,2.2-1.08-.42-1.74-1.56-.61-2.42,1.53-1.16,1.19-.49,2.29-1.8-1.92-.23-1.5-1.15-1-1.46a1.82,1.82,0,0,1,2.27.26c.06.71-.16.77-.58,1.09" fill="#ecce1e" fill-rule="evenodd"/>
      <path id="Trazado_16" data-name="Trazado 16" d="M173,27c-.43-.18-1.11-1,1.07-1s1.54.81,1.07,1l-.14-.6c-.86.08-.34.6-.23,1.05h-1.15c.06-.47.49-1-.32-1-.13.25-.05.17-.09.31l-.1.24v.08" fill="#ecce1e" fill-rule="evenodd"/>
      <path id="Trazado_17" data-name="Trazado 17" d="M177.22,25.16a5,5,0,0,1,3,.44c1,.52,1.09,1.51-.25,1.77a5,5,0,0,1-3.23-.43c-1.18-.68-1-1.5.46-1.78" fill="#ecce1e" fill-rule="evenodd"/>
      <path id="Trazado_18" data-name="Trazado 18" d="M158.49,34c.3.6,4.28,1.86,4.88,2a14.84,14.84,0,0,0,4.44.66,6.52,6.52,0,0,1,1.5.34c2.24.43,7.45.21,9.37-.56s5.69,1,7.31-.52h0l.56-.05a15,15,0,0,0,4.4-1.38c.49-.24,1-.72,1.15-.77,1.05-.33,2.45.37,5.81-1.88a8.711,8.711,0,0,0,1-.94c.31-.3.69-.67.54-1.19l-.06-.15v-.08a.588.588,0,0,1,0-.08,8.32,8.32,0,0,0-1.48-1.86A17.629,17.629,0,0,0,195.62,26l-1.32-.65a7.21,7.21,0,0,0-2.78-.64c-.49,0-.86.18-1.18-.09a2.83,2.83,0,0,1-.67.4c-.44.25-.33.27-.8.11s-1.15-.38-1.76-.61-3.26-1.08-3.44-1.26c-.12,0-3.72-1.06-5-1.22s-3.7-.22-4.39.84l-.3.54-.32-.1a29.67,29.67,0,0,1-3.42-.31,16.37,16.37,0,0,0-6.68,1.22c-.45.2-.83.48-1.32.71s-.72.61-1.4.63a12.88,12.88,0,0,0-6.44,1.58,8.81,8.81,0,0,0-2.4,1.72c-.82.88-.86,1.56-.58,3a2.51,2.51,0,0,0,.82,1.53,2.28,2.28,0,0,0,1.06,1.22c.46.34.78.8,1.46.91a5.2,5.2,0,0,0,1.52.72c.65-.18.12,0,.42-.17a4.35,4.35,0,0,0,.86-.76l.48-.48c.38-.36.3-.25.44-.77" fill="#ecce1e" fill-rule="evenodd"/>
      <path id="Trazado_19" data-name="Trazado 19" d="M191.74,28.43c0,1.72-3.3,1.38-2.56-.15-.18-.52-1.25-.89-.41-1.77a3,3,0,0,1,2.1-.42c2.25.27,2.34,1.84.87,2.34" fill="#ecce1e" fill-rule="evenodd"/>
      <path id="Trazado_20" data-name="Trazado 20" d="M190.25,24.69c.32.27.69.1,1.18.09a7.21,7.21,0,0,1,2.78.64l1.32.65a17.63,17.63,0,0,1,2.29,1.54,8.32,8.32,0,0,1,1.48,1.86.591.591,0,0,0,0,.08s0,.05,0,.08l.06.15c.15.52-.23.89-.54,1.19a8.71,8.71,0,0,1-1,.94c-3.36,2.25-4.76,1.55-5.81,1.88-.16.05-.66.53-1.15.77a15,15,0,0,1-4.4,1.38l-1.52.15h-.18l-.29.16c-1.59.84-.49.27-1.89.17-.86.36-.87-1.09-4,.16-1.92.77-7.13,1-9.37.56a6.52,6.52,0,0,0-1.5-.34,14.84,14.84,0,0,1-4.44-.66c-.6-.17-4.58-1.43-4.88-2-.14.52-6.91-5.21-7.28-4.84-.81,4.68,2.37,5.79,5.08,7l.89.26a12.34,12.34,0,0,0,5.7,2.38c2.19.43,5.2.22,6.32.57a20.13,20.13,0,0,0,10.23,0c1.3-.45,2.71,0,4.21,0a28.131,28.131,0,0,0,4.24-.3,29,29,0,0,0,5.26-1.59c.57-.24,1-.51,1.59-.76a15.81,15.81,0,0,0,3.54-2.14,5.18,5.18,0,0,0,1.62-1.92c.92-1.88.06-3.63-1.27-5q-.63-.532-1.31-1c-1.63-1.27-4.31-2.61-7.06-2" fill="#dfa71d" fill-rule="evenodd"/>
      <path id="Trazado_21" data-name="Trazado 21" d="M208.32,34.78c-.15.06,0,0-.23.15l-1.43,1.76c1.17,2.05,5.2,4.82,7.42,4.06,0,1.26-1,1.9-2.5,1.49-1.14-.3-2.67-1.37-2.87-1.2-.51.91.43,1.4,1,1.71a20.88,20.88,0,0,0,6.64,2,17.83,17.83,0,0,0,5.31-.27,24.159,24.159,0,0,0,3.35-1l.48-.25.46-.42h-1.19c.32-.47,1.2-.36,1.72-.37.39-.41-.15-.91-.51-1-.52,0-1.66.94-2.52,1.18a28.151,28.151,0,0,1-3,.89c-2,.39-5.43.55-4.74-2.28.55,2,7.56.3,8.87-.45-.25-.47-1.17-.41-1.58-.7a16.56,16.56,0,0,0,3.2-1,5.35,5.35,0,0,0,2.4-1.88,5.44,5.44,0,0,0,.81-3.44,11.08,11.08,0,0,0-.82-3.62c-.05-.36-.34-.32-.74-.55a8.75,8.75,0,0,0-2.59-1.28,10.21,10.21,0,0,1,1.5,2.76c-.79-.38-1.4-.95-2-1.24-.16-.14-.46-.29-.66-.43a2.91,2.91,0,0,0-2.43-.89,2,2,0,0,1,.12-1.27c-1.62-.87-5.8-.55-7.6-.08-.41.28-.8.27-1.32.59s-.72.28-.95,1a11.43,11.43,0,0,0-.48,3.39l-.27-.26-.25.52-.06.07c-.58.43-2.27,1.64-2.56,2.35m16.83-3.86a3.61,3.61,0,0,1,.65,1,3.07,3.07,0,0,1,0,2.63c.67.29.86.23,1.26.71-1.61-.73-3.64.36-5,1.18l-1.34.89a2.45,2.45,0,0,1,.51-.71c-.16-.13-.06-.07-.31-.16-2.12-.74-2.07,1.86-2.61,3.19-.77,1.92-2.22,1.09-3.17.8-.65-.19-.8.05-1.35-.08a3.32,3.32,0,0,1-.88-.11c-.41-.3-.07-1,.11-1.31l2.19-3.31c-1,0-1.15-.24-1.72,0A5.92,5.92,0,0,0,212,33.59c-.41-.34-.52-.16-.86-.36a2.57,2.57,0,0,1,1.41.1c.6-2.54,3.37-2.66,4.23-1.1.41.73,0,.83,0,.83l.16.84a7.329,7.329,0,0,1,.65-.43c-.4.64-1.26,1.47-1.75,2.1-.21.27-.26.44-.51.77s-.37.4-.59.7a8.672,8.672,0,0,1-.49.79,3.08,3.08,0,0,0-.91,1.74v.26a3,3,0,0,0,1.08-.32l.46-.28a5.67,5.67,0,0,0,1.78-1.87c.64-1,2.47-2.24,2.91-3,0-1.72-.57-2,.62-3.33l-.51-.15c1.24-.14,1-.5,2.08-.83a3.47,3.47,0,0,1,3.33.86m-18.9,21.64.05.07c.05.07,0,0,.06.07l.4.31-.06.41c.28-.51.24-1,.62-1.47-.21.8-.58,2.11-.06,2.88a5.68,5.68,0,0,0,2.4,1.45c3,.86,8.29-.52,8.75-1.72a17.6,17.6,0,0,0,3.91.29,9.36,9.36,0,0,0,3.19-.89,6.33,6.33,0,0,0,3-5.17c.56-.15-.08.1.3,0-.46-.36-.27-.83-.41-1.59a10.3,10.3,0,0,0-1.1-3l-.91-1.13c-.26.06,0-.07-.17.11a7.74,7.74,0,0,1-1,4.38,7.35,7.35,0,0,1-2.55,2.79c-2,1.63-6.28,1.95-9,1.51a12.5,12.5,0,0,1-4.56-1.79,1.65,1.65,0,0,1-.19-.2c-.13-.21-.26,0,0-.17-.16-.2-.25-.26-.26-.53a1,1,0,0,1-.08-.8,8.07,8.07,0,0,1,.78-2,12.18,12.18,0,0,0-.06-1.67,8.152,8.152,0,0,1,.29-1.5c-.33-.35-.74-.46-1-.9-.5-.82,0-1.1.1-1.59a7.85,7.85,0,0,1-2.08-2.1c-.17-.27-.35-.66-.48-.9-.39.18-.29.08-.69.79a12.88,12.88,0,0,0-2.13,7,14.83,14.83,0,0,0,.91,4.32,14.55,14.55,0,0,0,1,1.59c.36.59.2.36.6.69.64.56.53.45.47.54m5.81-21c-.74-1.84,1.19-3.7,2.55-4.05,2.63-.68,2.66,1.77,2,2a5.27,5.27,0,0,0-2-.07,2.93,2.93,0,0,0-1.47.87c-.19.19-.38.35-.59.59s-.22.44-.47.69" fill="#e2b782" fill-rule="evenodd"/>
      <path id="Trazado_22" data-name="Trazado 22" d="M221.76,67.35c.2.08.25-.06.1,1.05a3.481,3.481,0,0,0-.11.92,15.63,15.63,0,0,0,2.07-5c.26-1.34-.09-1.57.53-2a10.25,10.25,0,0,1,5.77-2.41,8.33,8.33,0,0,1,3.14.45,25.438,25.438,0,0,1,1.56,3.79c1.51,3.94,2.75,8,4,12a33.6,33.6,0,0,1,1.55,7.22c0,1.71-.68,1.18-3.8,1.72l.47,1.81c1.3.26,4.27-.37,4.74-1.25.67-1.27-2.68-13.13-3.12-14.71-.71-2.54-2.6-9-3.59-11.36-.18-.42-.36-.65-.51-1a7.09,7.09,0,0,0-3.1-3.63l-.45-.35c-.16-.31,0-.1-.33-.31l-.26-.08c-.57.17-1,.85-2.08,1.2-.74.25-.57.14-1,.59a9.7,9.7,0,0,1-5.6,2.08c.87,2,1.09,1.64,1,4.54a12.37,12.37,0,0,1-1,4.72" fill="#cbd5de" fill-rule="evenodd"/>
      <path id="Trazado_23" data-name="Trazado 23" d="M224.61,40.74a22.27,22.27,0,0,0,3.66-1.88,7.349,7.349,0,0,1,1.11-.73c-.51,1.11-2.79,2.53-3.43,3.27.36.09.9.59.51,1,.56.4,1.08.53,1,1.46a3,3,0,0,0-1.13-.8l.91,1.13a10.3,10.3,0,0,1,1.1,3c.14.76,0,1.23.41,1.59-.38.14.26-.11-.3,0a6.33,6.33,0,0,1-3,5.17,9.36,9.36,0,0,1-3.19.89,17.6,17.6,0,0,1-3.91-.29c-.46,1.2-5.78,2.58-8.75,1.72a5.68,5.68,0,0,1-2.4-1.45c.47,2.06,3.66,2.89,5.55,2.87,2.07,0,5.05-1.21,5.92-2.49a18.75,18.75,0,0,0,6.17.49,12.91,12.91,0,0,0,2.74-.58,6.42,6.42,0,0,0,3.7-3c1.24-1.73,1.46-5,1-7.13l-.21-1.07c0-.46,0-.12.1-.32-.33-1.41-.11-.74,0-2.09,0-1.75.07-.94-.32-2-.33.26-.24.11-.38.72a3.24,3.24,0,0,0-.44-.87,4,4,0,0,1-.42-3c-.18-.28,0-.53.09-.86a5.66,5.66,0,0,0,.08-3,5.08,5.08,0,0,0-2.25-2.34,11.081,11.081,0,0,1,.82,3.62,5.44,5.44,0,0,1-.81,3.44,5.35,5.35,0,0,1-2.4,1.88,16.56,16.56,0,0,1-3.2,1c.41.29,1.33.23,1.58.7" fill="#cb9e6e" fill-rule="evenodd"/>
      <path id="Trazado_24" data-name="Trazado 24" d="M170.85,41.4c1.86.31,4.09-.09,5.89.12a12,12,0,0,1,2.92-.18c2.67,0,6.21-1,7.92-1.11l.75.91a3,3,0,0,0,.4.35l3.85,3.42c.35.23.63.4.95.65a8.851,8.851,0,0,0,1.06.65c2.4,1.42,6.61,3.71,9.38,3.65a6.4,6.4,0,0,0,2.28,2.7c.06-.09.17,0-.47-.53-.39-.34-.3-.17-.6-.7s-.63-.88-1-1.59a14.83,14.83,0,0,1-.91-4.32,12.88,12.88,0,0,1,2.13-7c.4-.71.3-.61.69-.79.13.24.31.63.48.9a7.85,7.85,0,0,0,2.08,2.1c-.08.49-.6.77-.1,1.59.27.44.68.55,1,.9a8.153,8.153,0,0,0-.29,1.5,12.183,12.183,0,0,1,.06,1.67,8.069,8.069,0,0,0-.78,2,1,1,0,0,0,.08.8,5.56,5.56,0,0,1,1.26-2.48,1.52,1.52,0,0,0,1.14.21c-.08-.59-.61-.49-1.13-.74l-.22-2.89a17.25,17.25,0,0,0,8.44,2.15,13.72,13.72,0,0,0,6.39-1.5c.71-.32,1.19-.85,1.68-1a10,10,0,0,1-.4,2.17c-.18.65-.12.68-1.12,1.21-1.76.94-3,.89-3.52,1.26.9.33,3.8-.26,4.18-1.32a7.26,7.26,0,0,1-2.53,3.32c-2.62,1.95-6.45,2.3-9.68,1.72-1.09-.2-3.49-.77-4.23-1.59-.26.13-.13,0,0,.17a1.651,1.651,0,0,0,.19.2,12.5,12.5,0,0,0,4.56,1.79c2.69.44,6.92.12,9-1.51a7.35,7.35,0,0,0,2.55-2.79,7.72,7.72,0,0,0,1-4.38c.18-.18-.09-.05.17-.11a3,3,0,0,1,1.13.8c0-.93-.49-1.06-1-1.46-.52,0-1.4-.1-1.72.37h1.19l-.46.42-.48.25a24.16,24.16,0,0,1-3.35,1,17.83,17.83,0,0,1-5.31.27,20.88,20.88,0,0,1-6.64-2c-.55-.31-1.49-.8-1-1.71.2-.17,1.73.9,2.87,1.2,1.49.41,2.54-.23,2.5-1.49-2.22.76-6.25-2-7.42-4.06l1.43-1.76c.19-.17.08-.09.23-.15.29-.71,2-1.92,2.56-2.35-1.95.9-3.08,2.39-4.49,3.77A8.479,8.479,0,0,1,205.27,34c-.13-.42-.24-.87-.34-1.27a5.06,5.06,0,0,0-.38-1.29,10.3,10.3,0,0,0,1.16,5.6c-.12.3-.55.9-.79,1.31a11.32,11.32,0,0,0-2,8.29,11.769,11.769,0,0,0,1,3.17,19.67,19.67,0,0,1-4.79-1.75L197,47l-5.77-3.85c-.54-.5-.7-.47-1.76-1.46L187.8,40.2c1-.24,1.85-.48,2.79-.76a16.881,16.881,0,0,0,2.55-.86c-.49.1-.89.34-1.31.43s-.79.16-1.28.3c-.9.26-1.73.45-2.66.65a51.26,51.26,0,0,1-5.85.78,68.24,68.24,0,0,1-18.43-1c-2.44-.49-7.68-1.91-9.72-3.43-1.23-.92-2.76-1.79-2.69-3.92a.84.84,0,0,1,.16.23c.12.21,0,0,.11.24a8.045,8.045,0,0,0,4.84,3.3h0a5.2,5.2,0,0,1-1.52-.72c-.68-.11-1-.57-1.46-.91a2.28,2.28,0,0,1-1.06-1.22,2.51,2.51,0,0,1-.82-1.53c-.28-1.41-.24-2.09.58-3a8.81,8.81,0,0,1,2.31-1.65,12.88,12.88,0,0,1,6.44-1.58c.68,0,.8-.36,1.4-.63s.87-.51,1.32-.71a16.37,16.37,0,0,1,6.68-1.22,29.67,29.67,0,0,0,3.42.31c-2.39-.45-4.1-1.08-7.12-.38a11.38,11.38,0,0,0-4.21,1.78,13.47,13.47,0,0,1-3.21.77,12.73,12.73,0,0,0-4.7,1.25A9.41,9.41,0,0,0,152,28.39a2.87,2.87,0,0,0-1.15,1.85,4.44,4.44,0,0,0-.49,4c.63,1.59,2.72,3,4.22,3.67a33.5,33.5,0,0,0,9.18,2.81c1.4.23,5.91.93,7.13.66" fill="#080a00" fill-rule="evenodd"/>
      <path id="Trazado_25" data-name="Trazado 25" d="M237.39,87c1.41.12,4-.48,4.41-1.29.67-1.27-2.68-13.13-3.12-14.71-.71-2.54-2.6-9-3.59-11.36-.18-.42-.36-.65-.51-1a7.09,7.09,0,0,0-3.1-3.63l-.45-.35a6.82,6.82,0,0,1,3.26,2.69C236,59.86,236.77,63,237.81,66c.68,1.89,2.74,9.67,3.28,11.91.22.91.33,1.66.51,2.57,1,5.47,1.79,6.54-4.21,6.53Z" fill="#080a00" fill-rule="evenodd"/>
      <path id="Trazado_26" data-name="Trazado 26" d="M188.11,79.42c0,1.11-.13,1.93-.07,3.09.27-.26.08.35.29-.42a13.469,13.469,0,0,1,.24-2.16,40.787,40.787,0,0,1,1.48-7.08,27.361,27.361,0,0,1,1.7-4.47l.64-1.19a3.9,3.9,0,0,1,.2-.44,29.781,29.781,0,0,1,3.62-4.9,5.239,5.239,0,0,1,.67-.59l3.42-2.67a11.8,11.8,0,0,1,2.56-1.25c-.12-.09.25-.54-1.13.06a11.09,11.09,0,0,0-2.51,1.25c-.42.3-.53.24-.9.5a2.783,2.783,0,0,0-.4.35l-2,1.68a4.621,4.621,0,0,1-.46.41l-1.17-1c-.2-.16-.38-.29-.59-.47L188.6,55c-.71-.83-2.46-2.79-3.06-3.67l-1.4-1.91a7.939,7.939,0,0,0-.46-.72c-.17-.24-.28-.32-.46-.61s-.25-.49-.43-.76c-.63-.94-3.09-5.07-3.13-6a12,12,0,0,0-2.92.18h.93a38.271,38.271,0,0,0,2,5l5,8.25c.16.24.32.43.5.68s.3.39.5.67c.38.51.57.58.78.92a1.76,1.76,0,0,0,.26.39l.59.59a7.079,7.079,0,0,0,1.13,1.34l1.12,1.23c.48.48.8.78,1.29,1.19.34.28.19.32.55.62a4.864,4.864,0,0,1,.93.75c.61.62.76.48,1.11.82a24.589,24.589,0,0,0-3.18,5.76,34.269,34.269,0,0,0-2,8.52c0,.1,0,1-.19,1.13" fill="#b6b5b4" fill-rule="evenodd"/>
      <path id="Trazado_27" data-name="Trazado 27" d="M208.66,49.16c0,.27.1.33.26.53.74.82,3.14,1.39,4.23,1.59,3.23.58,7.06.23,9.68-1.72a7.26,7.26,0,0,0,2.53-3.32c-.38,1.06-3.28,1.65-4.18,1.32.51-.37,1.76-.32,3.52-1.26,1-.53.94-.56,1.12-1.21a10,10,0,0,0,.4-2.17,19.1,19.1,0,0,0-1.68,1,13.72,13.72,0,0,1-6.39,1.5,17.25,17.25,0,0,1-8.44-2.15l.22,2.89c.52.25,1,.15,1.13.74a1.52,1.52,0,0,1-1.14-.21,5.56,5.56,0,0,0-1.26,2.48" fill="#f2f3f3" fill-rule="evenodd"/>
      <path id="Trazado_28" data-name="Trazado 28" d="M179.66,41.34c0,.89,2.5,5,3.13,6,.18.27.26.5.43.76s.29.37.46.61a7.939,7.939,0,0,1,.46.72l1.4,1.91c.6.88,2.35,2.84,3.06,3.67l5.06,5.12c.21.18.39.31.59.47l1.18,1a5.916,5.916,0,0,0,.45-.41l2-1.68a2.781,2.781,0,0,1,.4-.35c.37-.26.48-.2.9-.5a11.09,11.09,0,0,1,2.51-1.25c1.38-.6,1-.15,1.13-.06a11.8,11.8,0,0,0-2.56,1.25l-3.42,2.67a5.24,5.24,0,0,0-.67.59,29.78,29.78,0,0,0-3.62,4.9,3.9,3.9,0,0,0-.2.44l-.64,1.19a27.36,27.36,0,0,0-1.7,4.47,40.79,40.79,0,0,0-1.48,7.08,13.467,13.467,0,0,0-.24,2.16c-.21.77,0,.16-.29.42v.33c.38-.06.33-.13.64.11s.1.18.37.36l6.27,3.47c.34.14.73.15,1.08.31a27.72,27.72,0,0,0,7.62,2.1,48.5,48.5,0,0,0,10.5.12,26.44,26.44,0,0,0,6.38-1.06c2.79-.85,2.62-.19,2.55-1.75a1.51,1.51,0,0,1-1,0c-1.94-.36-4,.84-4.62-1.46a3.58,3.58,0,0,1,0-1.78,3.73,3.73,0,0,1-2.22-.19c-.67,2-3.5,2.11-4.53-.35C209.42,82.57,210,82,209.2,81s-1.57-1-2.16-1.59c-.31-.32-.11-.31-.3-.57s-1.48-.69-.79-1.57c1.73-2.2-1.76-3.49,3.53-4.26.55-.08,1.32-.07,1.85-.2a1.84,1.84,0,0,1,1.66.11c.41.31.27.53,1,1a11.78,11.78,0,0,0,4.26,1.8c.37,0,.1-.06.26.06a.93.93,0,0,0-.32-.72c-.3-.38-.18-.24-.67-.43l2.55.18.58-.27a6.57,6.57,0,0,1,5.42.34c.56.33.29.23.95.15a5.32,5.32,0,0,1,2.32.31c2.17.34.57,0,2.1.58a20.461,20.461,0,0,1,2,.75c.65.33,3.11,1.54,3.3,2l-3.5-1.49a4.6,4.6,0,0,0-1.09-.54c.63.88,0,.37,1.05,1.87,2,2.77,2.07,3.63,3.34,6.56,3.12-.54,3.82,0,3.8-1.72a33.6,33.6,0,0,0-1.55-7.22c-1.27-4.06-2.51-8.08-4-12a25.439,25.439,0,0,0-1.56-3.79,8.33,8.33,0,0,0-3.14-.45,10.25,10.25,0,0,0-5.77,2.41c-.62.48-.27.71-.53,2a15.629,15.629,0,0,1-2.07,5,3.479,3.479,0,0,1,.11-.92c.15-1.11.1-1-.1-1.05a8.481,8.481,0,0,1-.48,1.1,2,2,0,0,1-.62.77c-.21-1.06-.17-2.16-.35-3.2-.27-1.57-1.35-4.88-2.52-6-.18-.18-.6-.68-.86-.76a3.89,3.89,0,0,1-3.75-.17c-.37-.23-.54-.35-.59-.83h-.47l.39.2a12.29,12.29,0,0,0-7.13,2.71,10.3,10.3,0,0,0-1.51,1.63A8,8,0,0,1,205.43,58a6.5,6.5,0,0,1,2.09-1.63c-.11-.37-.46-.73-.63-1.22a5.769,5.769,0,0,1-.19-1.76l.06-.41-.4-.31s-.05,0-.06-.07,0-.05-.05-.07a6.4,6.4,0,0,1-2.28-2.7c-2.77.06-7-2.23-9.38-3.65a8.851,8.851,0,0,1-1.06-.65c-.32-.25-.6-.42-.95-.65l-3.85-3.42a3,3,0,0,1-.4-.35l-.75-.91c-1.71.09-5.25,1.15-7.92,1.11m24,25.07c-.43.13-.73.28-1.16-.13a1.14,1.14,0,0,1-.23-1.31c.31-.67,1.68-1.21,1.89.07.27.33-.13.83-.2,1.3Zm-3.31,5.45c-.45-.06-.8,0-1-.41-.6-1.2.9-2.81,1.87-1.3.11.16.05-.16.1.3a1.27,1.27,0,0,1-.19.76c-.19.38-.16.51-.78.65m-1.25,5c-.95.54-1.8-.34-1.49-1.31.23-.7,1.37-1.32,1.88-.22l.12.4a1.38,1.38,0,0,1-.51,1.13m-2.62,4.64c-.17-1.55,2-2.23,2-.41s-1.91,1.7-2,.41" fill="#f9fbfb" fill-rule="evenodd"/>
      <path id="Trazado_29" data-name="Trazado 29" d="M164.68,28.51c.47.51,1,.92.4,1.78-.45.6-1.43.72-1.77.95.29.43-.36,1.12-.88,1.19s-1.91-1-3-1.47a7.94,7.94,0,0,1-1.71-.51c.11-.11.46-.37.66-.53l-.17-.1c-.91-.58.15.4-.34-.29-.27-.39.21.13-.17-.26a1.75,1.75,0,0,0-1.6-.24c-1.23.36-1.18,1.24-1.18,1.24-.11.29-.32.34-.43.46h.37a2.43,2.43,0,0,1,1.3.28c.16.3.91.45,1.27.61s.38.17.65.31a7.72,7.72,0,0,1,2.31,1.5c.3.3.15.35.51.59,1.32.83,5.21.7,7.11.43a12.84,12.84,0,0,1,3.53.17c.31.12,0,0,.27.15l.36.18.29.13,1.11.43a5,5,0,0,0,2.71,0c.24-.09.53-.15.74-.22a13.57,13.57,0,0,1,2.48-.82,4,4,0,0,1,1.38-.29v-.11h1.06c.26-.33,1.71,0,2,0l2.25.23a6.66,6.66,0,0,0,3.46-.56l.22-.1.15-.08a4.83,4.83,0,0,0,2-1.48c1.37-1.37.82-.69,1.74-1.34a8.14,8.14,0,0,1,3.56-1.41l-2-.36a13.92,13.92,0,0,0-1.76.31l-.68.36a8.25,8.25,0,0,0-1.86,1c-.5.25-2.09-.11-2.63,0-.24,0-.42.18-.6.15-.83.19-.71.45-1.53.74a5.21,5.21,0,0,1-2.06.32h.11l.94.28c-.19.5.19.15-.32.38-.2.09-3.11.05-3.08-.48a3,3,0,0,1-2.52.22c-.46.19-.16.11-.53.28a1.32,1.32,0,0,1-.51.14c-.39-.49-.85-.7-.56-1.61-.5.39-.22.59-1.05.82a4.76,4.76,0,0,1-1.88,0l.75.24.22,1.16a5.13,5.13,0,0,1-2.35-.31c-1.75-.65-.92-.19-1.15-1.08-.08-.29.05-.13-.16-.31.29,1.32-1,1.75-2.18,1.89a4.29,4.29,0,0,1-1.79-.16,1,1,0,0,1-.82-1.18l-1.84.54c0-.67-.34-.8.27-1.14l-.55.36a2.14,2.14,0,0,1,.45-1.33,2.87,2.87,0,0,1,.71-1.76c.68-1,.5-.68,1.06-.77a.74.74,0,0,0,.32-.08l.21-.1a4.41,4.41,0,0,1-1.66-.06c-.53-.14-.59-.36-1.12-.49l.71.43c-.15.62-.39.95-1.16.72" fill="#daa922" fill-rule="evenodd"/>
      <path id="Trazado_30" data-name="Trazado 30" d="M198.91,10.23c.06.2.32-.19-.53.55A12,12,0,0,0,194.91,15c0,.07,0,0-.09.23l-.17.77c-.15,1.17,1.08,1.93,1.93,2.46a4.78,4.78,0,0,0,1.43.71c.53.17,1.09.15,1.22.67,1.41-.34.09-.1,1.6-.06,3.67.09,6.1-2.32,5.42-6.12-.46,0-.47,0-.68-.21a2.66,2.66,0,0,1-1.83-.19,3.57,3.57,0,0,1-1.28-.9A3.91,3.91,0,0,1,201.6,11c-.11-.22,0,.09-.11-.22a3.78,3.78,0,0,1-.31-1.56,9.34,9.34,0,0,0-2.27,1" fill="#345f2a" fill-rule="evenodd"/>
      <path id="Trazado_31" data-name="Trazado 31" d="M209.69,80.7c.83.6.62,0,1.11.93.27.51.87.8,1.24.12.18-.34.3-1,.5-1.42s.56-1,1-1c1.35-.08,2.74,3,5.52,1.35V78.87a5.34,5.34,0,0,0-.56-3.06c-.16-.12.11,0-.26-.06l-.36.06a12.09,12.09,0,0,1-4.31-1.66c-.57-.37-.68-.78-1.21-1.07-.36,0-2.18.39-2.76.48a23.613,23.613,0,0,0-2.6.61c0,3.21-.54,2.58-.73,3.67a1.34,1.34,0,0,0,2.06.12c.83-.66.49-1.22.38-2.21.54.29.42.22.42.81s-.15.93,0,1.21c.91,0,.31-.85,1.82-1.66a12.8,12.8,0,0,0-1.22,2.09c-.21.56-.76,2.11-.08,2.5" fill="#e3b986" fill-rule="evenodd"/>
      <path id="Trazado_32" data-name="Trazado 32" d="M207.26,54.83c-.52-.77-.15-2.08.06-2.88-.38.48-.34,1-.62,1.47a5.769,5.769,0,0,0,.19,1.76c.17.49.52.85.63,1.22a6.5,6.5,0,0,0-2.09,1.6,8,8,0,0,0-1.56,4.79,10.67,10.67,0,0,1,1.5-1.63,12.34,12.34,0,0,1,7.14-2.71l-.39-.2a8.929,8.929,0,0,0-1.46,0l-1.72.34a6,6,0,0,1-1.05.32,2.8,2.8,0,0,0-.6.2l-1.68,1.12-1.34,1.54a12.4,12.4,0,0,1,2.76-4.7c1.25-.95.72.23,2.6.74l2.55.45h.41c0,.48.22.6.59.83a3.89,3.89,0,0,0,3.75.17c.28-.48.06-.1-.13-1a4.17,4.17,0,0,1,2.47.75,3.12,3.12,0,0,1,1.34,1.8c.17-.91-.93-2.15-1.68-2.69-.44-.32-.22,0-.45-.52a3.34,3.34,0,0,1,2.66,1.37c1.74,2,1,5.78.4,8l-.35,1.14c-.05.37-.08.21.09.39a8.48,8.48,0,0,0,.48-1.1,12.37,12.37,0,0,0,1-4.72c0-2.9-.18-2.49-1-4.54a9.7,9.7,0,0,0,5.6-2.08c.45-.45.28-.34,1-.59,1.07-.35,1.51-1,2.08-1.2a22.324,22.324,0,0,0,1.49-2c1.73-3.22,1-5.8.35-8.68-.14.2-.07-.14-.1.32l.21,1.07c.41,2.13.19,5.4-1,7.13a6.42,6.42,0,0,1-3.7,3,12.91,12.91,0,0,1-2.74.58,18.75,18.75,0,0,1-6.17-.49c-.87,1.28-3.85,2.46-5.92,2.49-1.89,0-5.08-.81-5.55-2.87" fill="#22351b" fill-rule="evenodd"/>
      <path id="Trazado_33" data-name="Trazado 33" d="M226.34,5.26a.072.072,0,0,0-.07.06L226,5.5a3.86,3.86,0,0,0-1.21.68c.19,1.08,1.77,2.1,2.51,2.43,3.42,1.51,10,2.74,10.37-2.11l-2.38-1.07c-.32-.13-1-.22-1.35-.33a12.28,12.28,0,0,0-4.66-.36c-.51.08-1.1.15-1.48.24a3.66,3.66,0,0,1-1.44.28" fill="#345f2a" fill-rule="evenodd"/>
      <path id="Trazado_34" data-name="Trazado 34" d="M227.66,28.71l-3.06-1.3c-.57-.22-.76-.7-1.46-.79a2.22,2.22,0,0,0-.78.08c-.66.06-3.84-.88-6.85-.17-1.68.4-1.31.59-1.31.57v.06c1.8-.47,6-.79,7.6.08a2,2,0,0,0-.12,1.27,2.93,2.93,0,0,1,2.43.88c.2.15.5.3.66.44.61.29,1.22.86,2,1.24a10.21,10.21,0,0,0-1.5-2.76,8.75,8.75,0,0,1,2.59,1.28c.4.23.69.19.74.55a5.08,5.08,0,0,1,2.25,2.34,5.66,5.66,0,0,1-.08,3c-.12.33-.27.58-.09.86a5.61,5.61,0,0,1,2-3.22c3-1.67,3.65,4.44,2.91,6.12a3.28,3.28,0,0,1-1.29,1.27c-.25.18-1.66.78-1.63.79a3.36,3.36,0,0,0,1.8-.51,3.19,3.19,0,0,0,1.34-1.12,5.07,5.07,0,0,0,.51-4,9.179,9.179,0,0,0-.63-1.74,2.35,2.35,0,0,0-1.08-1.37,1.66,1.66,0,0,0-1.87,0c-.69.38-.74.62-1.22,1.17-.15-2-.39-.25-.21-3.71.07-1.28.1-2.56.08-3.85,0-1.51-.36-5.81-1-6.93l-.19-.23a16.768,16.768,0,0,0,.44,2.54c.21,1.59.52,8.78.06,9.18-.11,0-.06.06-.28,0s-.06,0-.23-.08a.846.846,0,0,1-.31-.35,16.559,16.559,0,0,0-2.08-1.47c-.15-.11-.07,0-.17-.16" fill="#1f190e" fill-rule="evenodd"/>
      <path id="Trazado_35" data-name="Trazado 35" d="M230.7,36.36a4,4,0,0,0,.42,3,3.24,3.24,0,0,1,.44.87c.14-.61.05-.46.38-.72.39,1,.32.2.32,2l.21-.06c.23-.08.12,0,.22-.11s1.38-.61,1.63-.79a3.28,3.28,0,0,0,1.29-1.27c.74-1.68.13-7.79-2.91-6.12a5.61,5.61,0,0,0-2,3.22m1.53,2.46c-.77-2.79,1.85-7,2.36-3.58-.22-.48-.25-.88-.91-.9-.51.16-1.44,3.95-.94,4.06.33.08-.26.19.53,0a1.935,1.935,0,0,0,.48-.16c0-.59-.29-.6-.41-1.14.29.31.77.63.72,1.25a1.56,1.56,0,0,1-1.83.46" fill="#e2b782" fill-rule="evenodd"/>
      <path id="Trazado_36" data-name="Trazado 36" d="M175,63.34c.27.74.48,1.41.73,2.14.19.54.34,1.61.76,1.93-.13-.52-.05-.13,0-.29h2.13V63.39c1.22-.14,2.83.11,3.78-.06a4.179,4.179,0,0,0,0-1,8.1,8.1,0,0,1,0-1.12c0-.73,0-1.57,0-2.29h-3.85a20.73,20.73,0,0,1,0,4.34,15.06,15.06,0,0,1-3.58.06" fill="#e4b8bb" fill-rule="evenodd"/>
      <path id="Trazado_37" data-name="Trazado 37" d="M178.68,55.13h3.77l.06,3.8h4.21a19,19,0,0,0-1.52-2.06,8.69,8.69,0,0,1-1.45-2.06c-.22-.39-.47-.61-.73-1.08l-.32-.44c-1.09-1.05-.9-1.38-1.81-2.6h-2.24Z" fill="#e2b5bc" fill-rule="evenodd"/>
      <path id="Trazado_38" data-name="Trazado 38" d="M216.93,59.23c.26.08.68.58.86.76,1.17,1.15,2.25,4.46,2.52,6,.18,1,.14,2.14.35,3.2a2,2,0,0,0,.62-.77c-.17-.18-.14,0-.09-.39l.35-1.14c.55-2.25,1.34-6.07-.4-8a3.34,3.34,0,0,0-2.66-1.37c.23.55,0,.2.45.52.75.54,1.85,1.78,1.68,2.69a3.12,3.12,0,0,0-1.34-1.8,4.17,4.17,0,0,0-2.47-.75c.19,1,.41.57.13,1" fill="#345f2a" fill-rule="evenodd"/>
      <path id="Trazado_39" data-name="Trazado 39" d="M209.69,80.7c.42,1.28.08,1.46,1.37,2a4.46,4.46,0,0,0,2,1.23,2.25,2.25,0,0,0,2.35-.91c-.31-.36-.82-.49-1.09-1.08l-1.1.29c.12-.63.22-.67.84-.74-.06-.34-.12-.32,0-.62.94,2.54,5,2.26,5.12.56a20.911,20.911,0,0,0,0-2.44l-.07-.16v1.79c-2.78,1.62-4.17-1.43-5.52-1.35-.46,0-.83.62-1,1s-.32,1.08-.5,1.42c-.37.68-1,.39-1.24-.12-.49-.93-.28-.33-1.11-.93" fill="#c79768" fill-rule="evenodd"/>
      <path id="Trazado_40" data-name="Trazado 40" d="M240.16,55.15l4.41.02-.03-4.5-4.39.06.02-.07Z" fill="#ca6259" fill-rule="evenodd"/>
      <path id="Trazado_41" data-name="Trazado 41" d="M174.22,55.09l4.46.04-.03-4.41-4.43.03Z" fill="#ca6259" fill-rule="evenodd"/>
      <path id="Trazado_42" data-name="Trazado 42" d="M182.5,63.34h4.36a2.82,2.82,0,0,0,0-1.09c0-.33.06-.54.07-.94V59.02l-.19-.12h-4.21c-.06.72,0,1.56,0,2.29a8.1,8.1,0,0,0,0,1.12,5.567,5.567,0,0,0,0,1" fill="#c9645b" fill-rule="evenodd"/>
      <path id="Trazado_43" data-name="Trazado 43" d="M193.71,18.58a7,7,0,0,0,2.65,5.11,12.3,12.3,0,0,0,5.56,2.12,13,13,0,0,0,6.59-.84,11.64,11.64,0,0,0,2.32-1.52l.91-1c.42-.46.45-.81.85-1.22,1.07,1.48.31,4.74,0,6.23.92-.91,1.1-3.59.89-5.15A7.71,7.71,0,0,0,212.11,19c-.2-.29-.53-.49-.59-.8-.41,0-.17-.12-.36.1.33.85,1.79,2.07,1,3.24a8.59,8.59,0,0,1-5.5,3.64l-1.8.27h-2.21a12.91,12.91,0,0,1-5.3-1.65,6.2,6.2,0,0,1-1.71-1.48c-.19-.23-.35-.45-.51-.67a6.69,6.69,0,0,1-.77-4.7,3.727,3.727,0,0,1,.08-.44l.17-.43.17-.77c.56-1.71,2.25-3.29,3.56-4.45.85-.74.59-.35.53-.55a8.58,8.58,0,0,0-2,1.45c-.28.3-.66.59-.86.85-1.19,1.59-2.53,3.67-2.35,6" fill="#1b160d" fill-rule="evenodd"/>
      <path id="Trazado_44" data-name="Trazado 44" d="M240.17,46.92h4.43a8.16,8.16,0,0,0-.18-2.53,16.78,16.78,0,0,0-.6-1.85h-3.67v4.43Z" fill="#ca6259" fill-rule="evenodd"/>
      <path id="Trazado_45" data-name="Trazado 45" d="M175,63.34a15.06,15.06,0,0,0,3.58-.06,20.729,20.729,0,0,0,0-4.34h-4.43a24.231,24.231,0,0,0,.8,4.36" fill="#ca6259" fill-rule="evenodd"/>
      <path id="Trazado_46" data-name="Trazado 46" d="M240.17,63.38c2.83-.16,2.38.46,3.6-.78.4-.4.79-.53.82-1.35s0-1.6,0-2.36H240.2Z" fill="#ca6259" fill-rule="evenodd"/>
      <path id="Trazado_47" data-name="Trazado 47" d="M199,36.63v2h4.46V34.27h-2.77a8.459,8.459,0,0,1-.74,1.22c-.25.29-.74.87-.92,1.14" fill="#ca6259" fill-rule="evenodd"/>
      <path id="Trazado_48" data-name="Trazado 48" d="M236.33,55.16l3.83-.01.01-4.49h-3.84Z" fill="#e4b8bb" fill-rule="evenodd"/>
      <path id="Trazado_49" data-name="Trazado 49" d="M236.33,46.93l3.83-.01V42.43h-3.83Z" fill="#e4b8bb" fill-rule="evenodd"/>
      <path id="Trazado_50" data-name="Trazado 50" d="M174.23,58.98l4.43-.04.02-3.81-4.46-.04Z" fill="#e4b8bb" fill-rule="evenodd"/>
      <path id="Trazado_51" data-name="Trazado 51" d="M187,75.42a21.929,21.929,0,0,0-4.51,0c-.09,1.55-.13,1.82,1.3,3.13s.87,1.55,3.23,1.3Z" fill="#ca6259" fill-rule="evenodd"/>
      <path id="Trazado_52" data-name="Trazado 52" d="M224.61,40.74c-1.31.75-8.32,2.45-8.86.45-.7,2.83,2.7,2.67,4.73,2.28a28.148,28.148,0,0,0,3-.89c.86-.24,2-1.16,2.52-1.18.64-.74,2.92-2.16,3.43-3.27a7.35,7.35,0,0,0-1.11.73,22.272,22.272,0,0,1-3.66,1.88" fill="#080a00" fill-rule="evenodd"/>
      <path id="Trazado_53" data-name="Trazado 53" d="M178.65,71.62h3.83a19.61,19.61,0,0,1,0-2.3V67.18H178.7Z" fill="#e4b8bb" fill-rule="evenodd"/>
      <path id="Trazado_54" data-name="Trazado 54" d="M174.42,46.86a30.879,30.879,0,0,0-.2,3.89h4.43c.06-.76,0-1.54,0-2.31V47.37c0-.31.27-.67-.08-.93v.42a23.44,23.44,0,0,1-4.2,0" fill="#e4b8bb" fill-rule="evenodd"/>
      <path id="Trazado_55" data-name="Trazado 55" d="M240.15,50.73l4.39-.06.06-3.79-4.44.04Z" fill="#e4b8bb" fill-rule="evenodd"/>
      <path id="Trazado_56" data-name="Trazado 56" d="M182.44,75.43a21.93,21.93,0,0,1,4.51,0V71.61h-4.42Z" fill="#e4b8bb" fill-rule="evenodd"/>
      <path id="Trazado_57" data-name="Trazado 57" d="M240.19,58.92l4.39.02-.01-3.77-4.41-.02Z" fill="#e4b8bb" fill-rule="evenodd"/>
      <path id="Trazado_58" data-name="Trazado 58" d="M159.89,28.34c-.32.42-.15.28-.54.6v.57a1.4,1.4,0,0,0,1,1.36c1.42.54,1.58.26,3,.37.34-.23,1.32-.35,1.77-.95.63-.86.07-1.27-.4-1.78-.35-.11-.53-.31-1-.45a4.11,4.11,0,0,0-3.65.45c-.18-.09-.19.14-.13-.17" fill="#b5251b" fill-rule="evenodd"/>
      <path id="Trazado_59" data-name="Trazado 59" d="M240.17,63.38v3.77c.37,0,2.51-.16,2.81.12l.28-.54a25.28,25.28,0,0,0,1.9-7.73l-.59-.06V61.3c0,.75-.42,1-.82,1.35-1.22,1.24-.77.62-3.6.78" fill="#e2b5bc" fill-rule="evenodd"/>
      <path id="Trazado_60" data-name="Trazado 60" d="M213.39,39.57c-.12.13-.13-.09-.13.37a5.72,5.72,0,0,1,2.56.22c-.57,0-1.61-.11-2,.17.55.13.7-.11,1.35.08.95.29,2.4,1.12,3.17-.8.54-1.33.49-3.93,2.61-3.19.25.09.15,0,.31.16.36-.22.15,0,.32-.38l-.25-.06c-.28.1-.86-.47-1-.65-.5-.5-.38-.88-.65-1.22-.44.75-2.26,2.09-2.9,3.09A5.67,5.67,0,0,1,215,39.23l-.46.28a3,3,0,0,1-1.08.32Z" fill="#c79768" fill-rule="evenodd"/>
      <path id="Trazado_61" data-name="Trazado 61" d="M207.26,26.41a32.443,32.443,0,0,0,0,4.07l2.59-.05a1.571,1.571,0,0,0,.09-.31c.13-.38-.08-.12.18-.39a2.91,2.91,0,0,1,.79-1.85c.62-.81.94-.45.76-1.92a18.371,18.371,0,0,0-2.46,0c-.6,0-1.36.47-1.91.47" fill="#ca6259" fill-rule="evenodd"/>
      <path id="Trazado_62" data-name="Trazado 62" d="M174.76,31.94a4.76,4.76,0,0,0,1.88,0c.83-.23.55-.43,1.05-.82.05-2.26-2.37-2.93-4.23-2.58a1.3,1.3,0,0,0-.88,2.17,4.62,4.62,0,0,0,2.18,1.25" fill="#b5251b" fill-rule="evenodd"/>
      <path id="Trazado_63" data-name="Trazado 63" d="M233.71,55.13h2.62V50.72h-2.71c-.22.37-.43,1.22-.66,1.71s-.78,1-.89,1.53c.31.27.61.32.92.55a9.294,9.294,0,0,0,.71.61" fill="#ca6259" fill-rule="evenodd"/>
      <path id="Trazado_64" data-name="Trazado 64" d="M184.16,31.86a5.21,5.21,0,0,0,2.06-.32c.82-.29.7-.55,1.53-.74,0-.18.92-1.76-.67-2.21a5.66,5.66,0,0,0-2.89.05c-1.4.44-3.13,2.51,0,3.22" fill="#b02e2d" fill-rule="evenodd"/>
      <path id="Trazado_65" data-name="Trazado 65" d="M178.66,58.94l3.85.01-.06-3.8-3.77-.02Z" fill="#fff" fill-rule="evenodd"/>
      <path id="Trazado_66" data-name="Trazado 66" d="M199,42.47a13.113,13.113,0,0,1,3,.11c.23-.22.15-.44.33-1,.26-.79,1.1-2.56,1.15-3h-4.46Z" fill="#e4b8bb" fill-rule="evenodd"/>
      <path id="Trazado_67" data-name="Trazado 67" d="M236.34,50.72l-.01-.06h3.84l-.02.07.01-3.81-3.83.01Z" fill="#fefefe" fill-rule="evenodd"/>
      <path id="Trazado_68" data-name="Trazado 68" d="M178.7,67.13h3.77v-3.8c-.95.17-2.56-.08-3.78.06Z" fill="#fefefe" fill-rule="evenodd"/>
      <path id="Trazado_69" data-name="Trazado 69" d="M221.31,36.14l.25.06a9.64,9.64,0,0,1,3-1.53l1-.15c.23-.06.11,0,.26-.11.25-.78-.16-1-.58-1.38a7.1,7.1,0,0,0-4.4-1.86c-1.33,1.72-1.36,3.81.52,5M224,34.28c-.78.78-2.52.62-2.4-.93a1.26,1.26,0,0,1,1.06-1.2,1.23,1.23,0,0,1,1.47.87c-.13.2-.29.16-.32.54s.18.22.19.72" fill="#f9fbfb" fill-rule="evenodd"/>
      <path id="Trazado_70" data-name="Trazado 70" d="M218.52,75.81a5.34,5.34,0,0,1,.56,3.06l.07.16a20.911,20.911,0,0,1,0,2.44c-.16,1.7-4.18,2-5.12-.56-.12.3-.06.28,0,.62-.62.07-.72.11-.84.74l1.1-.29c.27.59.78.72,1.09,1.08a2.25,2.25,0,0,1-2.35.91,4.46,4.46,0,0,1-2-1.23c1,2.46,3.86,2.35,4.53.35a3.73,3.73,0,0,0,2.22.19,3.58,3.58,0,0,0,0,1.78c.65,2.3,2.68,1.1,4.62,1.46,0-.38-.79-.29-1.53-.36s-1.17-.11-1.76-.18a2.2,2.2,0,0,1,.19-1.2,42.284,42.284,0,0,0,.28-5.36,8.4,8.4,0,0,0-1.14-4.35,22.148,22.148,0,0,0,2.8.28c-.29-.22,0-.13-.49-.31a5.88,5.88,0,0,0-.73-.2l-2.55-.18c.49.19.37,0,.67.43a.93.93,0,0,1,.32.72m0,10a17.227,17.227,0,0,1-.44-2.65c.23-.21.27-.19.51-.43a4.71,4.71,0,0,1,.54-.55c0,.73-.24,3.23-.61,3.63" fill="#12130c" fill-rule="evenodd"/>
      <path id="Trazado_71" data-name="Trazado 71" d="M211.06,82.74c-1.29-.58-.95-.76-1.37-2-.68-.39-.13-1.94.08-2.5A12.8,12.8,0,0,1,211,76.11c-1.51.81-.91,1.63-1.82,1.66-.17-.28,0-.48,0-1.21s.12-.52-.42-.81c.11,1,.45,1.55-.38,2.21a1.34,1.34,0,0,1-2.06-.12c.19-1.09.73-.46.73-3.67a23.61,23.61,0,0,1,2.6-.61c.58-.09,2.4-.5,2.76-.48.53.29.64.7,1.21,1.07a12.09,12.09,0,0,0,4.31,1.66l.36-.06A11.78,11.78,0,0,1,214,74c-.74-.5-.6-.72-1-1a1.84,1.84,0,0,0-1.66-.11c-.53.13-1.3.12-1.85.2-5.29.77-1.8,2.06-3.53,4.26-.69.88.7,1.45.79,1.57s0,.25.3.57c.59.62,1.43.65,2.16,1.59s.22,1.57,1.86,1.74m-3.41-4a1.9,1.9,0,0,0,.46-.15c.18-.09.9-.71.91,0A8.889,8.889,0,0,0,208.8,80l-1.67-1Z" fill="#12130c" fill-rule="evenodd"/>
      <path id="Trazado_72" data-name="Trazado 72" d="M203.31,26.94l.07,3.49,3.84.05.04-4.07Z" fill="#e4b8bb" fill-rule="evenodd"/>
      <path id="Trazado_73" data-name="Trazado 73" d="M240.17,63.38V58.92h-3.76a17.643,17.643,0,0,0,.82,2.25c.32.78.51,1.43.78,2.2Z" fill="#e4b8bb" fill-rule="evenodd"/>
      <path id="Trazado_74" data-name="Trazado 74" d="M199,46.83a8.65,8.65,0,0,0,2.86.12c0-.75-.11-1.49-.1-2.28s.19-1.44.19-2.09c-.14-.22-2.53-.1-3-.11h0Z" fill="#ca6259" fill-rule="evenodd"/>
      <path id="Trazado_75" data-name="Trazado 75" d="M174.42,46.86a23.44,23.44,0,0,0,4.2,0v-.42l-1.74-3.84h-1.33a24.759,24.759,0,0,0-1.11,4.3" fill="#ca6259" fill-rule="evenodd"/>
      <path id="Trazado_76" data-name="Trazado 76" d="M194.93,44.65l4,2.18V42.45h-3.8v1.91c-.08.33.17.35-.24.3" fill="#e4b8bb" fill-rule="evenodd"/>
      <path id="Trazado_77" data-name="Trazado 77" d="M240.16,38.69V34.53c0-.13-.16-.23-.38-.28a4.68,4.68,0,0,0-.92,0h-1.89c0,.53.36,1.28.45,2.06a13,13,0,0,1,0,2.35Z" fill="#e3b8bc" fill-rule="evenodd"/>
      <path id="Trazado_78" data-name="Trazado 78" d="M233.93,46.79a10.17,10.17,0,0,0,2.4.14v-4.5h-3.22c-.07,1,.93,2.91.82,4.36" fill="#c9645b" fill-rule="evenodd"/>
      <path id="Trazado_79" data-name="Trazado 79" d="M186.86,63.39h3.8a23.5,23.5,0,0,1,.08,3.15l1.42-2.3-1.35-1.32c-1.37-.92-3.51-3.6-3.9-3.85v2.29c0,.4-.09.61-.07.94a2.82,2.82,0,0,1,0,1.09" fill="#e3bbba" fill-rule="evenodd"/>
      <path id="Trazado_80" data-name="Trazado 80" d="M186.92,71.6h1.83a13.208,13.208,0,0,1,.77-2.3,13.668,13.668,0,0,0,.86-2.16h-3.45Z" fill="#e3b8bc" fill-rule="evenodd"/>
      <path id="Trazado_81" data-name="Trazado 81" d="M240.16,38.69v3.8h3.67a8.07,8.07,0,0,0-.7-2.06l-.69-1.69c-.14-.2,0,0-.19-.18Z" fill="#e3b8bc" fill-rule="evenodd"/>
      <path id="Trazado_82" data-name="Trazado 82" d="M201.13,30.23c.35.29.41.21,1,.21h1.27l-.07-3.49a13.84,13.84,0,0,1-2.26-.24,10.46,10.46,0,0,0-2.16-.43c.06.92,2.14,2.05,2.24,4" fill="#ca6259" fill-rule="evenodd"/>
      <path id="Trazado_83" data-name="Trazado 83" d="M220.27,35.49c.18.18.76.75,1,.65-1.88-1.16-1.85-3.25-.52-5a7.1,7.1,0,0,1,4.4,1.86c.42.41.83.6.58,1.38-.15.1,0,.05-.26.11l-1,.15a9.64,9.64,0,0,0-3,1.53c-.17.41,0,.16-.32.38a2.45,2.45,0,0,0-.51.71l1.34-.89c1.39-.82,3.42-1.91,5-1.18-.4-.48-.59-.42-1.26-.71a3.07,3.07,0,0,0,0-2.63,3.609,3.609,0,0,0-.65-1,3.47,3.47,0,0,0-3.33-.86c-1.06.33-.84.69-2.08.83l.51.15a3.32,3.32,0,0,0,0,4.45m1.36-4.72a3,3,0,0,1,2.86.18,3.24,3.24,0,0,1,1.35,2.27,6.5,6.5,0,0,1-.76-.94c-.9-1.08-3.45-1.51-3.45-1.51" fill="#080a00" fill-rule="evenodd"/>
      <path id="Trazado_84" data-name="Trazado 84" d="M192.06,42.52a14.61,14.61,0,0,1,3.1,0V39a32.7,32.7,0,0,0-3.22,1.13,4.28,4.28,0,0,0-1.15.35c-.08.9-.17.87.7,1.65Z" fill="#e3b8bc" fill-rule="evenodd"/>
      <path id="Trazado_85" data-name="Trazado 85" d="M195.32,42.26a24.209,24.209,0,0,0,3.44-.06V38.82a17.533,17.533,0,0,0-2,.07c-.54.17,0,.34-.76.28s0-.16-.61-.35Z" fill="#fff" fill-rule="evenodd"/>
      <path id="Trazado_86" data-name="Trazado 86" d="M232.41,28.74v1.68h4c0-1.15-.58-1.45-1.66-2.52a10,10,0,0,0-2.3-1.89Z" fill="#ca6259" fill-rule="evenodd"/>
      <path id="Trazado_87" data-name="Trazado 87" d="M182.66,71.58h4.24V67.14c-1.45.18-3-.31-4.46,0,0,.67.06,1.64,0,2.14a19.607,19.607,0,0,0,0,2.3Z" fill="#ca6259" fill-rule="evenodd"/>
      <path id="Trazado_88" data-name="Trazado 88" d="M167.28,32.19a1,1,0,0,0,.82,1.18,4.29,4.29,0,0,0,1.79.16c1.21-.14,2.47-.57,2.18-1.89-.35-.21-.37-.46-1.08-.66a3.81,3.81,0,0,0-1.5-.09,2.87,2.87,0,0,0-2.21,1.3" fill="#ab291e" fill-rule="evenodd"/>
      <path id="Trazado_89" data-name="Trazado 89" d="M182.47,67.14c1.45-.31,3,.18,4.46,0a23.62,23.62,0,0,1,0-3.76h-4.44Z" fill="#e3bbba" fill-rule="evenodd"/>
      <path id="Trazado_90" data-name="Trazado 90" d="M165.13,27.36c.53.13.59.35,1.12.49a4.41,4.41,0,0,0,1.66.06c.67-.24,1.48-.38,1.59-1.13s-.71-1.16-1.39-1.35c-1.21-.32-2.82.13-3.16.8s.09.76.18,1.13" fill="#b5251b" fill-rule="evenodd"/>
      <path id="Trazado_91" data-name="Trazado 91" d="M165.61,30.62a2.14,2.14,0,0,0-.45,1.33l.55-.36c1.77-1,2.57-.4,4.31-.82a2.08,2.08,0,0,0,1.21-3.17c-.45.54-.27.71-.92,1.29-1.19,1.08-3.77.22-4.7,1.73" fill="#74a046" fill-rule="evenodd"/>
      <path id="Trazado_92" data-name="Trazado 92" d="M233.63,50.73h2.71v-3.8a10.17,10.17,0,0,1-2.4-.14,11.5,11.5,0,0,1-.3,3.94" fill="#e4b8bb" fill-rule="evenodd"/>
      <path id="Trazado_93" data-name="Trazado 93" d="M212.06,31.51c.25-.25.21-.41.47-.69s.4-.4.59-.59a2.93,2.93,0,0,1,1.47-.87,5.27,5.27,0,0,1,2,.07c.65-.2.62-2.65-2-2-1.36.34-3.29,2.21-2.55,4.05" fill="#2a1f0f" fill-rule="evenodd"/>
      <path id="Trazado_94" data-name="Trazado 94" d="M220.08,74.84a4.529,4.529,0,0,1,.73.2c.45.18.2.09.49.31l.4.41c.16,0,.4.44.57.71a3.69,3.69,0,0,1,.44,1c.21.7.42,1.41.59,2.1l.08.06h.13c.35-.26.22-.53.81-.43,1.21.23,2.1,3.48,2.07,4.93a.54.54,0,0,0,0,.22s0,.06,0,.08c.58,3-.6,9.57-.08,10.83,2.86-.11,5,1.46,5.33-.71a32.37,32.37,0,0,0-.33-8.51c-.09-.53-.29-1.33-.34-1.81l-.06-.1c-1.18-2.2.43-3-2.08-6.11-.15-.17-.17-.15-.42-.31s-1.71-2-2.76-2.32h-.08c-.42-.11-.77-.06-.91-.44-.44.18-.44.07-.52.07a9.13,9.13,0,0,0-2.47-.17c-1.22,0-.91,0-1-.26Z" fill="#345f2a" fill-rule="evenodd"/>
      <path id="Trazado_95" data-name="Trazado 95" d="M220.08,74.84a4.529,4.529,0,0,1,.73.2c.45.18.2.09.49.31l.4.41c.16,0,.4.44.57.71a3.69,3.69,0,0,1,.44,1c.21.7.42,1.41.59,2.1l.08.06h.13c.35-.26.22-.53.81-.43,1.21.23,2.1,3.48,2.07,4.93a.54.54,0,0,0,0,.22s0,.06,0,.08c.58,3-.6,9.57-.08,10.83,2.86-.11,5,1.46,5.33-.71a32.37,32.37,0,0,0-.33-8.51c-.09-.53-.29-1.33-.34-1.81l-.06-.1c-1.18-2.2.43-3-2.08-6.11-.15-.17-.17-.15-.42-.31s-1.71-2-2.76-2.32h-.08c-.42-.11-.77-.06-.91-.44-.44.18-.44.07-.52.07a9.13,9.13,0,0,0-2.47-.17c-1.22,0-.91,0-1-.26Z" fill="none" stroke="#731819" stroke-miterlimit="22.93" stroke-width="0.1"/>
      <path id="Trazado_96" data-name="Trazado 96" d="M177.22,25.16c-1.51.28-1.64,1.1-.46,1.78a5,5,0,0,0,3.23.43c1.34-.26,1.29-1.25.25-1.77a5,5,0,0,0-3-.44" fill="#b02e2d" fill-rule="evenodd"/>
      <path id="Trazado_97" data-name="Trazado 97" d="M200.62,34.27h2.77V30.43h-1.27c-.57,0-.63.08-1-.21.33,1.42-.24,2.68-.51,4" fill="#e3b8bc" fill-rule="evenodd"/>
      <path id="Trazado_98" data-name="Trazado 98" d="M237.11,86.93l-.01-.01h.01Z" fill="#7a181a" fill-rule="evenodd"/>
      <path id="Trazado_99" data-name="Trazado 99" d="M237.06,86.91c-.16.36.05.4-.3.12a5.141,5.141,0,0,1-.57-1.38c-.23-.63-.4-1.17-.63-1.83-.82-2.4-3.37-6.81-5.84-8.07l-.75-.36a.1.1,0,0,1-.08-.06h.46a5.32,5.32,0,0,0-2.32-.31c-.66.08-.39.18-.95-.15a6.57,6.57,0,0,0-5.42-.34c.11.23-.2.29,1,.26a9.131,9.131,0,0,1,2.47.17c5.06,1.3,5.23,6.26,6.77,9.13l.06.1v-.42a25.32,25.32,0,0,1,1.3,8.28c.79-.3,1.75-.93,3,.28a5.93,5.93,0,0,1,1.41,2.87,11.94,11.94,0,0,0,.82-3.95,20.092,20.092,0,0,0-.44-4.22h0V86.9H237" fill="#28451f" fill-rule="evenodd"/>
      <path id="Trazado_100" data-name="Trazado 100" d="M212.12,58.28h.06l-2.55-.45c-1.88-.51-1.35-1.69-2.6-.74a12.4,12.4,0,0,0-2.76,4.7l1.34-1.54,1.68-1.12a2.8,2.8,0,0,1,.6-.2,6,6,0,0,0,1.05-.32l1.72-.34a8.929,8.929,0,0,1,1.46,0" fill="#345f2a" fill-rule="evenodd"/>
      <path id="Trazado_101" data-name="Trazado 101" d="M212.92,40.22a3.32,3.32,0,0,0,.88.11c.41-.28,1.45-.15,2-.17a5.72,5.72,0,0,0-2.56-.22c0-.46,0-.24.13-.37a3.08,3.08,0,0,1,.91-1.74,8.672,8.672,0,0,0,.49-.79c.22-.3.35-.38.59-.7s.3-.5.51-.77c.49-.63,1.35-1.46,1.75-2.1a7.328,7.328,0,0,0-.65.43,7.572,7.572,0,0,1-.85.85,6.44,6.44,0,0,0-.72.86c-.87.06-1.75-.09-1.95-.89-.26-1-.55-1.18,0-2.15.68-1.3,3.23-1,3.4.49,0,0,.37-.1,0-.83-.86-1.56-3.63-1.44-4.23,1.1a2.57,2.57,0,0,0-1.41-.1c.34.2.45,0,.86.36a5.92,5.92,0,0,1,1.49,2.06c.57-.29.68,0,1.72,0L213,38.91c-.18.33-.52,1-.11,1.31" fill="#080a00" fill-rule="evenodd"/>
      <path id="Trazado_102" data-name="Trazado 102" d="M242.93,67.27c-.3-.28-2.44-.16-2.81-.12a16,16,0,0,0,.15,3.62,2.164,2.164,0,0,0,.11.53c.11.34,0,.15.21.35.44-.09.33,0,.8-1,.18-.36.37-.78.57-1.15a11.75,11.75,0,0,0,1-2.28" fill="#c9645b" fill-rule="evenodd"/>
      <path id="Trazado_103" data-name="Trazado 103" d="M217,33.9l-.16-.84c-.17-1.49-2.72-1.79-3.4-.49-.51,1-.22,1.14,0,2.15.2.8,1.08,1,1.95.89a6.441,6.441,0,0,1,.72-.86,7.57,7.57,0,0,0,.85-.85m-.76.08c-.88,1.86-3-.33-1.52-1.32.52-.35,1.06,0,1.37.18-.1.48-.67.44-.12,1Z" fill="#fafafb" fill-rule="evenodd"/>
      <path id="Trazado_104" data-name="Trazado 104" d="M189.18,28.28a1.73,1.73,0,0,1,2.56.15c1.47-.5,1.38-2.07-.87-2.34a3,3,0,0,0-2.1.42c-.84.88.23,1.25.41,1.77" fill="#b02e2d" fill-rule="evenodd"/>
      <path id="Trazado_105" data-name="Trazado 105" d="M207.22,30.48v3.3l2-1.64c1.14-.65.68-.31.71-1.48,0-.32.09-.61.11-.93-.26.27-.05,0-.18.39a1.57,1.57,0,0,1-.09.31Z" fill="#e3b8bc" fill-rule="evenodd"/>
      <path id="Trazado_106" data-name="Trazado 106" d="M159.35,28.94c.39-.32.22-.18.54-.6.33-1.75-1.88-2.14-2.68-1.1-.92,1.19.64,2.39,2.14,1.7" fill="#5b1d48" fill-rule="evenodd"/>
      <path id="Trazado_107" data-name="Trazado 107" d="M176.52,67.41A17.589,17.589,0,0,0,178,70.68c.39.66.25.8.61.94V67.13h-2.13c-.1.16-.17-.23,0,.29" fill="#c9645b" fill-rule="evenodd"/>
      <path id="Trazado_108" data-name="Trazado 108" d="M223.3,79.53a41.062,41.062,0,0,1,.66,6c0,1.75,0,4.8-.13,6.32a29.142,29.142,0,0,0-.39,4l.6-.16a2.71,2.71,0,0,1,.63-.24,5.13,5.13,0,0,1,1.65-.18c-.52-1.26.66-7.84.08-10.83v-.08a.54.54,0,0,1,0-.22c0-1.45-.86-4.7-2.07-4.93-.59-.1-.46.17-.81.43h-.13l-.08-.06" fill="#28451f" fill-rule="evenodd"/>
      <path id="Trazado_109" data-name="Trazado 109" d="M219.36,84.78c.13.37.84.25,1.78.29l2.21.08-.07-1a30.559,30.559,0,0,0-.83-6.59l-.75-1.81-.4-.42a22.152,22.152,0,0,1-2.8-.28,8.4,8.4,0,0,1,1.14,4.35,42.284,42.284,0,0,1-.28,5.36" fill="#fbfcfd" fill-rule="evenodd"/>
      <path id="Trazado_110" data-name="Trazado 110" d="M183.46,26.41c-1.1,1.31-.76.64-2.29,1.8-1.13.86-.47,2,.61,2.42,0-1.56-.11-1.38,1.1-2.2.8-.54,1.41-.79,1.32-2.13Z" fill="#74a046" fill-rule="evenodd"/>
      <path id="Trazado_111" data-name="Trazado 111" d="M190.75,23.55a8.48,8.48,0,0,1,3.45.38,8.62,8.62,0,0,0,.94.31c-.14-.86-1.27-1.2-1.47-2.66-1.12.05-.73.39-2.39,1.23-.43.21-.5.19-.53.74" fill="#e3bbba" fill-rule="evenodd"/>
      <path id="Trazado_112" data-name="Trazado 112" d="M236.37,30.41h-4V28.74a9.051,9.051,0,0,0-.12,2.85c.81-.13,1.32-.57,2.39-.13.91.37,1,.83,1.62,1.33Z" fill="#e3b8bc" fill-rule="evenodd"/>
      <path id="Trazado_113" data-name="Trazado 113" d="M224,34.28c0-.5-.23-.21-.19-.72s.19-.34.32-.54a1.23,1.23,0,0,0-1.47-.87,1.26,1.26,0,0,0-1.06,1.2c-.12,1.55,1.62,1.71,2.4.93" fill="#3f1e16" fill-rule="evenodd"/>
      <path id="Trazado_114" data-name="Trazado 114" d="M244.57,55.17h1a19.649,19.649,0,0,0-.12-4.42h-.93Z" fill="#e4b8bb" fill-rule="evenodd"/>
      <path id="Trazado_115" data-name="Trazado 115" d="M240.16,38.69l2.08-.12a12.931,12.931,0,0,0-.87-1.94l-1.18-2.07Z" fill="#c86e69" fill-rule="evenodd"/>
      <path id="Trazado_116" data-name="Trazado 116" d="M223.16,96.53c1.55-1.43,3.62-.91,6-.48,3.31.61,3.1-.65,3.19-3.65a2.1,2.1,0,0,1,1.71-.18,5,5,0,0,1,1.24.78,15,15,0,0,1,1.45,2.57l.05-.33a5.93,5.93,0,0,0-1.41-2.87c-1.27-1.21-2.23-.58-3-.28a25.32,25.32,0,0,0-1.3-8.28v.42c.05.48.25,1.29.34,1.81a32.371,32.371,0,0,1,.33,8.51c-.36,2.17-2.47.6-5.33.71a5.13,5.13,0,0,0-1.65.18,2.709,2.709,0,0,0-.63.24l-.6.16a29.14,29.14,0,0,1,.39-4c.15-1.52.16-4.57.13-6.32a41.06,41.06,0,0,0-.66-6c-.17-.69-.38-1.4-.59-2.1a3.69,3.69,0,0,0-.44-1c-.17-.27-.41-.75-.57-.7l.75,1.81c1.88,5.8.38,13,.71,19" fill="#1b160d" fill-rule="evenodd"/>
      <path id="Trazado_117" data-name="Trazado 117" d="M179.29,32.29a3,3,0,0,0,2.52-.22c.5-1.26-.52-1.37-1.71-1.28s-1.93.84-.81,1.5" fill="#5b1d48" fill-rule="evenodd"/>
      <path id="Trazado_118" data-name="Trazado 118" d="M236.33,55.16h-2.62l.06.07.11.13c.38.37.22,0,.62.67.26.39.43.51.67.83a18.251,18.251,0,0,0,1.16,2Z" fill="#e3bbba" fill-rule="evenodd"/>
      <path id="Trazado_119" data-name="Trazado 119" d="M196.52,81.45c.13,1.29,2.1,1.56,2-.41s-2.21-1.14-2,.41" fill="#747471" fill-rule="evenodd"/>
      <path id="Trazado_120" data-name="Trazado 120" d="M194.93,44.65c.41.05.16,0,.24-.3V42.53a14.609,14.609,0,0,0-3.1,0,32.925,32.925,0,0,0,2.87,2.13" fill="#c76562" fill-rule="evenodd"/>
      <path id="Trazado_121" data-name="Trazado 121" d="M189.18,28.28c-.74,1.53,2.59,1.87,2.56.15a1.73,1.73,0,0,0-2.56-.15" fill="#5b1d48" fill-rule="evenodd"/>
      <path id="Trazado_122" data-name="Trazado 122" d="M183.46,26.41l.74-.11c.42-.32.64-.38.58-1.09a1.82,1.82,0,0,0-2.27-.26c-.55.31-1,1.23,1,1.46" fill="#5b1d48" fill-rule="evenodd"/>
      <path id="Trazado_123" data-name="Trazado 123" d="M232.23,38.82a1.56,1.56,0,0,0,1.83-.46c.05-.62-.43-.94-.72-1.25.12.54.39.55.41,1.14a3.853,3.853,0,0,0-.48.16c-.79.18-.2.07-.53,0-.5-.11.43-3.9.94-4.06.66,0,.69.42.91.9-.51-3.39-3.13.79-2.36,3.58" fill="#14120b" fill-rule="evenodd"/>
      <path id="Trazado_124" data-name="Trazado 124" d="M199,38.67v-2c-.64.24-.49.42-1.49,1-.44.27-1.37.64-1.57,1Z" fill="#e3bbba" fill-rule="evenodd"/>
      <path id="Trazado_125" data-name="Trazado 125" d="M216,33.8c-.55-.52,0-.48.12-1-.31-.17-.85-.53-1.37-.18-1.44,1,.64,3.18,1.52,1.32Z" fill="#3f1e16" fill-rule="evenodd"/>
      <path id="Trazado_126" data-name="Trazado 126" d="M221.63,30.77s2.55.43,3.45,1.51a6.5,6.5,0,0,0,.76.94A3.24,3.24,0,0,0,224.49,31a3,3,0,0,0-2.86-.18" fill="#e2b782" fill-rule="evenodd"/>
      <path id="Trazado_127" data-name="Trazado 127" d="M172.65,26.35v-.07l.09-.24c.05-.14,0-.06.09-.31.81,0,.39.55.32,1h1.16c-.11-.45-.63-1,.23-1.05l.21.64c.47-.17,1.1-1-1.07-1s-1.51.8-1.07,1" fill="#f7f3ba" fill-rule="evenodd"/>
      <path id="Trazado_128" data-name="Trazado 128" d="M200.39,71.86c.62-.14.54-.13.78-.65s.23-.47.19-.76c-.05-.46,0-.14-.1-.3-.26.39,0-.27-.74-.18-.54.07-1.21,1.1-.45,1.67l.2.13s0,.06.06,0,0,0,.06,0" fill="#9e9b99" fill-rule="evenodd"/>
      <path id="Trazado_129" data-name="Trazado 129" d="M203.7,66.41l.3-.07c.07-.47.47-1,.2-1.3v.13c-.23-.73-.71-.5-1.26-.31a1.75,1.75,0,0,0,0,1.45Z" fill="#9e9b99" fill-rule="evenodd"/>
      <path id="Trazado_130" data-name="Trazado 130" d="M199.14,76.81a1.37,1.37,0,0,0,.51-1.13l-.12-.4c-.06.35.08-.16-.52-.22-.87-.08-1,1-.77,1.39s.51.31.9.36" fill="#9e9b99" fill-rule="evenodd"/>
      <path id="Trazado_131" data-name="Trazado 131" d="M199.14,76.81c-.39,0-.73,0-.9-.36s-.1-1.47.77-1.39c.6.06.46.57.52.22-.51-1.1-1.65-.48-1.88.22-.31,1,.54,1.85,1.49,1.31" fill="#14140e" fill-rule="evenodd"/>
      <path id="Trazado_132" data-name="Trazado 132" d="M198.05,82.19c-.38,0-.72,0-.89-.36s-.11-1.47.77-1.39c.6.06.46.57.52.22-.51-1.1-1.65-.48-1.88.22-.31,1,.54,1.85,1.48,1.31" fill="#14140e" fill-rule="evenodd"/>
      <path id="Trazado_133" data-name="Trazado 133" d="M203.7,66.41l-.78-.1a1.75,1.75,0,0,1,0-1.45c.55-.19,1-.42,1.26.31V65c-.21-1.28-1.58-.74-1.89-.07a1.14,1.14,0,0,0,.23,1.31c.43.41.73.26,1.16.13" fill="#14140e" fill-rule="evenodd"/>
      <path id="Trazado_134" data-name="Trazado 134" d="M200.39,71.86s0-.07-.06,0-.05,0-.06,0l-.2-.13c-.76-.57-.09-1.6.45-1.67.76-.09.48.57.74.18-1-1.51-2.47.1-1.87,1.3.2.39.55.35,1,.41" fill="#12130c" fill-rule="evenodd"/>
      <path id="Trazado_135" data-name="Trazado 135" d="M207.12,78.89l1.67,1a8.893,8.893,0,0,1,.23-1.33c0-.67-.73-.05-.91,0a1.9,1.9,0,0,1-.46.15Z" fill="#c7996d" fill-rule="evenodd"/>
      <path id="Trazado_136" data-name="Trazado 136" d="M161.46,33.25v-.07l.1-.24c0-.14,0-.06.09-.31.81,0,.38.55.32,1h1.15c-.11-.45-.63-1,.23-1.05l.21.64c.47-.17,1.1-1-1.07-1s-1.5.8-1.07,1" fill="#f7f3ba" fill-rule="evenodd"/>
      <path id="Trazado_137" data-name="Trazado 137" d="M156.72,28.91v.08l-.09.24c-.05.13,0,.06-.09.3-.81,0-.38-.55-.32-1h-1.15c.1.45.62,1-.23,1.05l-.21-.63c-.47.16-1.1,1,1.07,1s1.5-.79,1.06-1" fill="#f7f3ba" fill-rule="evenodd"/>
      <path id="Trazado_138" data-name="Trazado 138" d="M190.08,31.32v.11l.06.3c0,.18.08,0,.11.38-.84.52-.75-.31-1-.84l-1.2.74c.41.39,1.29.58.46,1.23l-.64-.51c-.37.48-.47,1.75,1.75.3s1-1.82.45-1.71" fill="#f7f3ba" fill-rule="evenodd"/>
      <path id="Trazado_139" data-name="Trazado 139" d="M194.59,27.4v.08l-.09.24c-.05.13,0,.06-.09.3-.81,0-.38-.54-.32-1h-1.15c.1.44.62,1-.23,1l-.21-.63c-.47.16-1.1,1,1.07,1s1.5-.8,1.06-1" fill="#f7f3ba" fill-rule="evenodd"/>
      <path id="Trazado_140" data-name="Trazado 140" d="M173.53,34.19v-.08l.09-.24c.05-.14,0-.06.09-.31.81,0,.38.55.32,1h1.16c-.11-.45-.63-1,.23-1.05l.21.64c.47-.17,1.1-1-1.07-1s-1.51.8-1.07,1" fill="#f7f3ba" fill-rule="evenodd"/>
      <path id="Trazado_141" data-name="Trazado 141" d="M156.12,31c1.69,0,4.23,2.42,4.8,3.06,1,1.12,8.61.27,9.86.46,2.28.36,1.34,1.56,5,.94,1.57-.27,2.52-1.38,5.33-1.28,1.45,0,7.95.27,9-.32,2.18-1.26,2.58-4.13,7-4.49" fill="none" stroke="#27241f" stroke-miterlimit="22.93" stroke-width="1"/>
      <path id="Trazado_142" data-name="Trazado 142" d="M161.23,28.8a.37.37,0,0,1,0,.74.38.38,0,1,1,0-.74" fill="#e2b1b4" fill-rule="evenodd"/>
      <path id="Trazado_143" data-name="Trazado 143" d="M163.37,29.59a.24.24,0,1,1-.27.24.26.26,0,0,1,.27-.24" fill="#e2b1b4" fill-rule="evenodd"/>
      <path id="Trazado_144" data-name="Trazado 144" d="M166.11,26a.37.37,0,1,1-.37.163.37.37,0,0,1,.37-.163" fill="#e2b1b4" fill-rule="evenodd"/>
      <path id="Trazado_145" data-name="Trazado 145" d="M168.25,26.74a.23.23,0,1,1-.23.23.23.23,0,0,1,.23-.23" fill="#e2b1b4" fill-rule="evenodd"/>
      <path id="Trazado_146" data-name="Trazado 146" d="M173.88,29.57a.37.37,0,1,1-.37.163.37.37,0,0,1,.37-.163" fill="#e2b1b4" fill-rule="evenodd"/>
      <path id="Trazado_147" data-name="Trazado 147" d="M176,30.36a.23.23,0,1,1-.23.23.23.23,0,0,1,.23-.23" fill="#e2b1b4" fill-rule="evenodd"/>
      <path id="Trazado_148" data-name="Trazado 148" d="M177.38,25.61a.37.37,0,1,1-.37.163.37.37,0,0,1,.37-.163" fill="#e2b1b4" fill-rule="evenodd"/>
      <path id="Trazado_149" data-name="Trazado 149" d="M179.52,26.4a.23.23,0,1,1-.23.23.23.23,0,0,1,.23-.23" fill="#e2b1b4" fill-rule="evenodd"/>
      <path id="Trazado_150" data-name="Trazado 150" d="M186.17,29.39a.37.37,0,1,0,.37.163.37.37,0,0,0-.37-.163" fill="#e2b1b4" fill-rule="evenodd"/>
      <path id="Trazado_151" data-name="Trazado 151" d="M184.77,30.22a.38.38,0,0,0-.41.35.41.41,0,0,0,.81,0,.38.38,0,0,0-.4-.35" fill="#e2b1b4" fill-rule="evenodd"/>
      <path id="Trazado_152" data-name="Trazado 152" d="M170.44,31.62a.32.32,0,1,0,.38.32.35.35,0,0,0-.38-.32" fill="#e2b1b4" fill-rule="evenodd"/>
      <path id="Trazado_153" data-name="Trazado 153" d="M168.56,32.31a.2.2,0,1,0,.2.2.2.2,0,0,0-.2-.2" fill="#e2b1b4" fill-rule="evenodd"/>
      <path id="Trazado_154" data-name="Trazado 154" d="M190,26.48a.37.37,0,1,1-.37.163.37.37,0,0,1,.37-.163" fill="#e2b1b4" fill-rule="evenodd"/>
      <path id="Trazado_155" data-name="Trazado 155" d="M191.45,27.32a.38.38,0,0,1,.41.34.42.42,0,0,1-.82,0,.38.38,0,0,1,.41-.34" fill="#e2b1b4" fill-rule="evenodd"/>
      <path id="Trazado_156" data-name="Trazado 156" d="M157.63,27.24a.41.41,0,0,1,.42.41.42.42,0,0,1-.84,0,.41.41,0,0,1,.42-.41" fill="#c5acce" fill-rule="evenodd"/>
      <path id="Trazado_157" data-name="Trazado 157" d="M179.68,31.25a.38.38,0,1,1-.38.38.38.38,0,0,1,.38-.38" fill="#c5acce" fill-rule="evenodd"/>
      <path id="Trazado_158" data-name="Trazado 158" d="M183.42,25.12a.42.42,0,1,1-.42.42.42.42,0,0,1,.42-.42" fill="#c5acce" fill-rule="evenodd"/>
      <path id="Trazado_159" data-name="Trazado 159" d="M190.3,28.48a.31.31,0,1,1-.31.31.31.31,0,0,1,.31-.31" fill="#c5acce" fill-rule="evenodd"/>
      <path id="Trazado_160" data-name="Trazado 160" d="M178.2,23.26c-1.49.19-.88,0-2.54-.21-1.24-.12-1.5,1-1.06,1.91.93-1,.76-.95,2-.75.83.13,1.37.34,2.12-.57Z" fill="#74a046" fill-rule="evenodd"/>
      <path id="Trazado_161" data-name="Trazado 161" d="M173.69,25.24c.4-.31.23-.17.55-.59.33-1.76-1.88-2.14-2.68-1.11-.92,1.2.64,2.4,2.13,1.7" fill="#5b1d48" fill-rule="evenodd"/>
      <path id="Trazado_162" data-name="Trazado 162" d="M172,23.54a.42.42,0,1,1-.42.42.42.42,0,0,1,.42-.42" fill="#c5acce" fill-rule="evenodd"/>
      <path id="Trazado_163" data-name="Trazado 163" d="M237.06,86.91l-.47-1.81c-1.27-2.93-1.36-3.79-3.34-6.56-1.06-1.5-.42-1-1.05-1.87a4.6,4.6,0,0,1,1.09.54l3.5,1.49c-.19-.46-2.65-1.67-3.3-2a20.464,20.464,0,0,0-2-.75c-1.53-.6.07-.24-2.1-.58h-.46a.087.087,0,0,1,.08.06l.75.36c2.47,1.26,5,5.67,5.84,8.07.23.66.4,1.2.63,1.83a5.141,5.141,0,0,0,.57,1.38c.35.28.14.24.3-.12" fill="#12130c" fill-rule="evenodd"/>
      <path id="Trazado_164" data-name="Trazado 164" d="M219.36,84.78a2.2,2.2,0,0,0-.19,1.2c.59.07,1.17.13,1.76.18s1.52,0,1.53.36a1.44,1.44,0,0,0,.94,0,18.552,18.552,0,0,0,0-2.69l-.05,1.33-2.21-.08c-.94,0-1.65.08-1.78-.29" fill="#cbd5de" fill-rule="evenodd"/>
      <path id="Trazado_165" data-name="Trazado 165" d="M218.5,85.81c.37-.4.59-2.9.61-3.63a4.711,4.711,0,0,0-.54.55c-.24.24-.28.22-.51.43a17.229,17.229,0,0,0,.44,2.65" fill="#cad3da" fill-rule="evenodd"/>
    </g>
  </g>
</svg>
