<svg xmlns="http://www.w3.org/2000/svg" width="262.284" height="194.335" viewBox="0 0 262.284 194.335">
  <g id="suPizzaCompleto" transform="translate(0.006 0.011)">
    <g id="Layer_1" data-name="Layer 1" transform="translate(-0.006 -0.011)">
      <path id="Trazado_166" data-name="Trazado 166" d="M261.339,146.462l-8.569-11.267,7.048-19.2a4.591,4.591,0,0,0-6.293-5.719c-2.832,1.362-5.841,2.695-8.981,3.974a23.243,23.243,0,0,0-17.228-8.363,8.894,8.894,0,0,0,1.051-4.111,9.133,9.133,0,0,0-.589-3.612,7.282,7.282,0,0,0-1.246-2.041,4.584,4.584,0,0,0,1.293-3.511l-.148-1.933a4.544,4.544,0,0,0-1.246-2.76,4.555,4.555,0,0,0,.448-2.89l-.322-1.806a4.541,4.541,0,0,0-.925-2.016V81.17a10.577,10.577,0,0,0-.318-3.735l-.867-3.753a4.552,4.552,0,0,0-.824-1.738,4.555,4.555,0,0,0-.217-1.189l-2.167-6.347a4.609,4.609,0,0,0-.849-1.488,4.526,4.526,0,0,0-.311-.986L217.331,55.9a4.566,4.566,0,0,0-.788-1.16,4.581,4.581,0,0,0-.39-.9l-3.3-5.747a4.53,4.53,0,0,0-1.066-1.246,4.477,4.477,0,0,0-.571-1.127l-1.066-1.488a4.58,4.58,0,0,0-1.568-1.351c-.069-.213-.126-.43-.213-.639a12.833,12.833,0,0,0-1.853-2.829l-1.806-2.3a4.584,4.584,0,0,0-6.441-.769l-6.77,5.321c-.488-.513-.965-1.037-1.467-1.535A16.249,16.249,0,0,0,193,21.95c-1.636-3.641-2.984-4.888-5.672-7.146l-.39-.329a31.107,31.107,0,0,0-8.309-4.862c-4.617-1.5-11.2-3.136-17.922-1.362a16.2,16.2,0,0,0-3.143-2.5,36.258,36.258,0,0,0-6.954-3.432A39.5,39.5,0,0,0,132.51.261a30.493,30.493,0,0,0-8.428,2.052l-.285.112a24.11,24.11,0,0,0-3.67,1.669c-.993.607-1.633.99-2.074,1.25a12.2,12.2,0,0,0-2.366,1.68c-.314.267-.769.661-1.524,1.286a23.025,23.025,0,0,0-2.948,3.41,13.243,13.243,0,0,0-2.384,5.693A85.779,85.779,0,0,0,69.237,39.261c-.589,0-1.178-.022-1.774-.022-20.866,0-38.766,5.318-45.792,13.572a8.309,8.309,0,0,0-1.481,1.875h0a9.031,9.031,0,0,0-.535,1.113,13.1,13.1,0,0,0-.827,2.03,11.6,11.6,0,0,0-.5,9.9c1.9,4.783,7.521,7.908,9.844,9.031a63.963,63.963,0,0,0,16.946,5.3,86.2,86.2,0,0,0-2.167,19.168c0,1.514.043,3.063.13,4.628H31.649a23.16,23.16,0,0,0-16.758,7.207q-3.251-1.4-6.141-2.789a4.591,4.591,0,0,0-6.3,5.719l6.011,16.372v4.18L.932,146.462A4.581,4.581,0,0,0,2.6,153.373c1.767.849,3.67,1.712,5.863,2.655v13.753a23.21,23.21,0,0,0,23.185,23.185h68.88c10.115.9,20.411,1.358,30.609,1.358s20.49-.455,30.6-1.358h65a23.21,23.21,0,0,0,23.185-23.185V157.69c3.4-1.391,6.669-2.839,9.754-4.313a4.588,4.588,0,0,0,1.669-6.914Z" transform="translate(0.006 0.011)" fill="#fff"/>
      <path id="Trazado_167" data-name="Trazado 167" d="M213.272,54.23a81.642,81.642,0,1,1-81.642,81.642A81.641,81.641,0,0,1,213.272,54.23" transform="translate(-84.076 -34.636)" fill="#345f2a" fill-rule="evenodd"/>
      <path id="Trazado_168" data-name="Trazado 168" d="M560.65,168.589l.126,1.788a2.168,2.168,0,0,0-1.329.611,1.958,1.958,0,0,0-.455,1.311,2.041,2.041,0,0,0,.336,1.333,1.124,1.124,0,0,0,.86.473.849.849,0,0,0,.553-.173,1.468,1.468,0,0,0,.408-.647c.083-.21.228-.69.437-1.445a4.935,4.935,0,0,1,.954-2.027,2.4,2.4,0,0,1,3.139-.361,2.428,2.428,0,0,1,.885,1.152,4.4,4.4,0,0,1,.267,1.785,3.736,3.736,0,0,1-.824,2.529,2.68,2.68,0,0,1-2.037.849v-1.835a1.575,1.575,0,0,0,1.022-.473,1.806,1.806,0,0,0,.34-1.138,2.059,2.059,0,0,0-.3-1.246.665.665,0,0,0-.556-.3.683.683,0,0,0-.556.257,4.724,4.724,0,0,0-.658,1.658,8.71,8.71,0,0,1-.7,1.947,2.528,2.528,0,0,1-.946.972,2.7,2.7,0,0,1-1.445.322,2.648,2.648,0,0,1-1.445-.473,2.561,2.561,0,0,1-.975-1.25,5.107,5.107,0,0,1-.278-1.976,3.922,3.922,0,0,1,.867-2.615,3.421,3.421,0,0,1,2.334-1.033m.228-4.19,3.251-1.51-3.432-.965ZM557.572,168l-.152-1.969,2-.936-.275-3.613-2.113-.6-.148-1.933,9.295,2.818.148,1.933Zm-1.387-11.632,8.916-1.582.318,1.806-8.912,1.582Zm3.544-8.24.3,1.319a7.017,7.017,0,0,0,.488,1.575.968.968,0,0,0,.488.412,1.21,1.21,0,0,0,.722.029,1.084,1.084,0,0,0,.665-.4,1.116,1.116,0,0,0,.191-.751,11.057,11.057,0,0,0-.267-1.308L562,147.612Zm-5.5-.614,8.822-2.019.867,3.75a6.563,6.563,0,0,1,.235,2.113,2.066,2.066,0,0,1-.607,1.221,2.586,2.586,0,0,1-1.3.723,2.406,2.406,0,0,1-1.774-.2,2.89,2.89,0,0,1-1.217-1.55,4.069,4.069,0,0,1-.52,1.12,10.206,10.206,0,0,1-1.2,1.34l-1.474,1.474-.491-2.131,1.633-1.72a12.792,12.792,0,0,0,1.084-1.243,1.409,1.409,0,0,0,.242-.621,2.984,2.984,0,0,0-.112-.921l-.083-.361-3.685.849Zm-2.821-7.947,8.572-2.912L562.145,143l-1.445.491-1.568-4.61-1.9.647,1.445,4.288-1.445.491-1.445-4.288-2.348.777,1.622,4.779-1.445.491Zm-3.612-7.724,1.5-.683,7.33,1.9-1.756-3.847,1.394-.636,2.749,6.029-1.29.589-7.633-1.987,2.128,4.7-1.394.636Zm-3.963-6.665,1.445-.816,7.474,1.21-2.1-3.667,1.326-.762,3.3,5.747-1.228.722-7.781-1.264,2.558,4.461-1.326.762Zm-1.683-2.222,7.355-5.278,1.084,1.488-7.37,5.278Zm1.962-9.859-2.012,1.593.614.784a4.6,4.6,0,0,0,1,1.044,1.138,1.138,0,0,0,.7.17,1.3,1.3,0,0,0,1.149-1,1.278,1.278,0,0,0-.137-.827,8.515,8.515,0,0,0-.762-1.084Zm-7.048,3.212,7.117-5.6,1.806,2.3a10.654,10.654,0,0,1,1.235,1.806,2.377,2.377,0,0,1,.108,1.571,2.814,2.814,0,0,1-1.062,1.5,2.962,2.962,0,0,1-1.279.614,2.529,2.529,0,0,1-1.178-.051,2.688,2.688,0,0,1-.921-.48,10.544,10.544,0,0,1-1.272-1.405l-.723-.936-2.684,2.113Z" transform="translate(-343.045 -70.712)" fill="#080a00"/>
      <path id="Trazado_169" data-name="Trazado 169" d="M54.737,305.79H249.812a18.651,18.651,0,0,1,18.6,18.594v40.727a18.655,18.655,0,0,1-18.6,18.6H54.737a18.655,18.655,0,0,1-18.6-18.6V324.384a18.651,18.651,0,0,1,18.6-18.594" transform="translate(-23.082 -195.32)" fill="#345f2a" fill-rule="evenodd"/>
      <path id="Trazado_170" data-name="Trazado 170" d="M63.117,320.13H259.164a13.139,13.139,0,0,1,13.1,13.1v41.356a13.139,13.139,0,0,1-13.1,13.1H63.117A13.139,13.139,0,0,1,50,374.588V333.233a13.139,13.139,0,0,1,13.1-13.1" transform="translate(-31.935 -204.479)" fill="#fff" fill-rule="evenodd"/>
      <path id="Trazado_171" data-name="Trazado 171" d="M224.47,71.8a75.312,75.312,0,1,1-75.31,75.31A75.31,75.31,0,0,1,224.47,71.8" transform="translate(-95.274 -45.858)" fill="#fff" fill-rule="evenodd"/>
      <path id="Trazado_172" data-name="Trazado 172" d="M338.341,35.09l.069.278-.466-.058-.213-.022a1.676,1.676,0,0,0-1.315.394c-4.335,2.937-5.058,3.475-10.881,4.758-6.456,1.445-10,.618-12.062.925-1.506.224-1.806,3.584-4.313.618-1.037-1.221.043-1.243-1.644-1.579.058,2.832-.271,4.6-1.673,6.354-1.806,2.272-2.807,2.677-4.371,3.172-1.239.394.863-.6-.336.134.361.34.4.361,1.235.361,1.221,6.82-3.146,11.134-9.732,10.975-2.709-.065-.34-.509-2.89.112-.224-.928-1.246-.9-2.167-1.207a8.54,8.54,0,0,1-2.569-1.279c-1.517-.946-3.743-2.316-3.457-4.414l-.318.777c-.033.134-.116.679-.137.8-.506,2.774-.108,6.43,1.38,8.435.3.394.578.784.921,1.192a11.054,11.054,0,0,0,3.071,2.662,23.129,23.129,0,0,0,9.494,2.948c1.322.137,2.655,0,3.974.079l3.23-.477a15.455,15.455,0,0,0,9.88-6.542c1.344-2.092-1.279-4.277-1.871-5.809.336-.394-.087-.13.639-.184l-.477-.585c.517-1.084,3.053-2.662,4.429-3.342,5.289-2.6,14.656-2.937,20.378-1.268.773.224,2.384.679,2.969.9.871.329,1.037,1.275,1.268,2.76l1.373,7.445c.033.419.043.455.087.845l.293,5.708a25.15,25.15,0,0,1-.206,3.652c-.09.506-.184,1.051-.289,1.633-.163.892-.112,1.2-.867,1.178.191.231.043.094.322.3a29.012,29.012,0,0,1,3.717,2.641c.069.079.52.589.567.614.3.184.069.108.412.141a.7.7,0,0,0,.5-.069c.827-.723.264-13.619-.1-16.466-.173-1.337-.957-3.71-.8-4.555l.361.4c-.061-.744-.079-.22.224-.361,4.617,2.211,12.962,2.731,17.766.087,5.458-3.006,6.958-9.537,4.526-14.945-1.373-3.053-2.254-3.688-4.859-5.892a27.661,27.661,0,0,0-6.759-4C350.718,33.4,344.2,32.312,338.341,35.09Zm.069.278A6.8,6.8,0,0,0,341,34.859c.679-.163,1.734-.289,2.652-.423a22.119,22.119,0,0,1,8.363.632c.665.191,1.85.361,2.424.6L358.7,37.6c-.686,8.7-12.463,6.5-18.6,3.782-1.319-.582-4.162-2.41-4.5-4.357A6.931,6.931,0,0,1,337.76,35.8l.509-.322c.036-.079.1-.076.141-.112Z" transform="translate(-179.418 -21.337)" fill="#731819" fill-rule="evenodd"/>
      <path id="Trazado_173" data-name="Trazado 173" d="M338.341,35.09l.069.278-.466-.058-.213-.022a1.676,1.676,0,0,0-1.315.394c-4.335,2.937-5.058,3.475-10.881,4.758-6.456,1.445-10,.618-12.062.925-1.506.224-1.806,3.584-4.313.618-1.037-1.221.043-1.243-1.644-1.579.058,2.832-.271,4.6-1.673,6.354-1.806,2.272-2.807,2.677-4.371,3.172-1.239.394.863-.6-.336.134.361.34.4.361,1.235.361,1.221,6.82-3.146,11.134-9.732,10.975-2.709-.065-.34-.509-2.89.112-.224-.928-1.246-.9-2.167-1.207a8.54,8.54,0,0,1-2.569-1.279c-1.517-.946-3.743-2.316-3.457-4.414l-.318.777c-.033.134-.116.679-.137.8-.506,2.774-.108,6.43,1.38,8.435.3.394.578.784.921,1.192a11.054,11.054,0,0,0,3.071,2.662,23.129,23.129,0,0,0,9.494,2.948c1.322.137,2.655,0,3.974.079l3.23-.477a15.455,15.455,0,0,0,9.88-6.542c1.344-2.092-1.279-4.277-1.871-5.809.336-.394-.087-.13.639-.184l-.477-.585c.517-1.084,3.053-2.662,4.429-3.342,5.289-2.6,14.656-2.937,20.378-1.268.773.224,2.384.679,2.969.9.871.329,1.037,1.275,1.268,2.76l1.373,7.445c.033.419.043.455.087.845l.293,5.708a25.15,25.15,0,0,1-.206,3.652c-.09.506-.184,1.051-.289,1.633-.163.892-.112,1.2-.867,1.178.191.231.043.094.322.3a29.012,29.012,0,0,1,3.717,2.641c.069.079.52.589.567.614.3.184.069.108.412.141a.7.7,0,0,0,.5-.069c.827-.723.264-13.619-.1-16.466-.173-1.337-.957-3.71-.8-4.555l.361.4c-.061-.744-.079-.22.224-.361,4.617,2.211,12.962,2.731,17.766.087,5.458-3.006,6.958-9.537,4.526-14.945-1.373-3.053-2.254-3.688-4.859-5.892a27.661,27.661,0,0,0-6.759-4C350.718,33.4,344.2,32.312,338.341,35.09Zm.069.278A6.8,6.8,0,0,0,341,34.859c.679-.163,1.734-.289,2.652-.423a22.119,22.119,0,0,1,8.363.632c.665.191,1.85.361,2.424.6L358.7,37.6c-.686,8.7-12.463,6.5-18.6,3.782-1.319-.582-4.162-2.41-4.5-4.357A6.931,6.931,0,0,1,337.76,35.8l.509-.322c.036-.079.1-.076.141-.112Z" transform="translate(-179.418 -21.337)" fill="none" stroke="#080a00" stroke-linejoin="round" stroke-width="4.12"/>
      <path id="Trazado_174" data-name="Trazado 174" d="M312.423,29.758A7.029,7.029,0,0,0,313,32.7c.228.582,0,0,.2.423a7.329,7.329,0,0,0,1.626,2.46,6.528,6.528,0,0,0,2.417,1.694c.795.311,2.482.863,3.432.361,1.261-.766-.95.271.361-.141,1.644-.52,2.688-.946,4.588-3.327,1.474-1.842,1.806-3.7,1.756-6.669,1.77.361.639.361,1.727,1.658,2.63,3.11,2.944-.415,4.526-.65,2.168-.322,5.881.524,12.644-.972,6.083-1.326,6.885-1.889,11.419-4.96a1.774,1.774,0,0,1,1.38-.412l.228.022.488.061-.076-.293c-1.225.242-1.767-2.167-4.982-4.14a31.6,31.6,0,0,0-6.2-3.06,34.477,34.477,0,0,0-15.924-1.785,25.8,25.8,0,0,0-7.3,1.77,23.644,23.644,0,0,0-3.23,1.42c-4.3,2.63-2.135,1.105-5.419,3.836a18.988,18.988,0,0,0-2.124,2.529c-1.767,2.507-1.571,3.992-2.1,7.254" transform="translate(-199.548 -8.126)" fill="#080a00" fill-rule="evenodd"/>
      <path id="Trazado_175" data-name="Trazado 175" d="M240.4,96.84a67.971,67.971,0,1,1-67.969,67.973A67.971,67.971,0,0,1,240.4,96.84" transform="translate(-110.137 -61.853)" fill="#282c16" fill-rule="evenodd"/>
      <path id="Trazado_176" data-name="Trazado 176" d="M242.6,99.2a65.7,65.7,0,1,1-65.7,65.7,65.7,65.7,0,0,1,65.7-65.7" transform="translate(-112.993 -63.36)" fill="#fff" fill-rule="evenodd"/>
      <path id="Trazado_177" data-name="Trazado 177" d="M107.929,121.34c24.626,0,44.589,7.828,44.589,17.484s-19.963,17.484-44.589,17.484S63.34,148.481,63.34,138.824,83.3,121.34,107.929,121.34" transform="translate(-40.456 -77.502)" fill="#fff" fill-rule="evenodd"/>
      <path id="Trazado_178" data-name="Trazado 178" d="M338.341,35.09l.069.278-.466-.058-.213-.022a1.676,1.676,0,0,0-1.315.394c-4.335,2.937-5.058,3.475-10.881,4.758-6.456,1.445-10,.618-12.062.925-1.506.224-1.806,3.584-4.313.618-1.037-1.221.043-1.243-1.644-1.579.058,2.832-.271,4.6-1.673,6.354-1.806,2.272-2.807,2.677-4.371,3.172-1.239.394.863-.6-.336.134.361.34.4.361,1.235.361,1.221,6.82-3.146,11.134-9.732,10.975-2.709-.065-.34-.509-2.89.112-.224-.928-1.246-.9-2.167-1.207a8.54,8.54,0,0,1-2.569-1.279c-1.517-.946-3.743-2.316-3.457-4.414l-.318.777c-.033.134-.116.679-.137.8-.506,2.774-.108,6.43,1.38,8.435.3.394.578.784.921,1.192a11.054,11.054,0,0,0,3.071,2.662,23.129,23.129,0,0,0,9.494,2.948c1.322.137,2.655,0,3.974.079l3.23-.477a15.455,15.455,0,0,0,9.88-6.542c1.344-2.092-1.279-4.277-1.871-5.809.336-.394-.087-.13.639-.184l-.477-.585c.517-1.084,3.053-2.662,4.429-3.342,5.289-2.6,14.656-2.937,20.378-1.268.773.224,2.384.679,2.969.9.871.329,1.037,1.275,1.268,2.76l1.373,7.445c.033.419.043.455.087.845l.293,5.708a25.15,25.15,0,0,1-.206,3.652c-.09.506-.184,1.051-.289,1.633-.163.892-.112,1.2-.867,1.178.191.231.043.094.322.3a29.012,29.012,0,0,1,3.717,2.641c.069.079.52.589.567.614.3.184.069.108.412.141a.7.7,0,0,0,.5-.069c.827-.723.264-13.619-.1-16.466-.173-1.337-.957-3.71-.8-4.555l.361.4c-.061-.744-.079-.22.224-.361,4.617,2.211,12.962,2.731,17.766.087,5.458-3.006,6.958-9.537,4.526-14.945-1.373-3.053-2.254-3.688-4.859-5.892a27.661,27.661,0,0,0-6.759-4C350.718,33.4,344.2,32.312,338.341,35.09Zm.069.278A6.8,6.8,0,0,0,341,34.859c.679-.163,1.734-.289,2.652-.423a22.119,22.119,0,0,1,8.363.632c.665.191,1.85.361,2.424.6L358.7,37.6c-.686,8.7-12.463,6.5-18.6,3.782-1.319-.582-4.162-2.41-4.5-4.357A6.931,6.931,0,0,1,337.76,35.8l.509-.322c.036-.079.1-.076.141-.112Z" transform="translate(-179.418 -21.337)" fill="#28451f" fill-rule="evenodd"/>
      <path id="Trazado_179" data-name="Trazado 179" d="M338.341,35.09l.069.278-.466-.058-.213-.022a1.676,1.676,0,0,0-1.315.394c-4.335,2.937-5.058,3.475-10.881,4.758-6.456,1.445-10,.618-12.062.925-1.506.224-1.806,3.584-4.313.618-1.037-1.221.043-1.243-1.644-1.579.058,2.832-.271,4.6-1.673,6.354-1.806,2.272-2.807,2.677-4.371,3.172-1.239.394.863-.6-.336.134.361.34.4.361,1.235.361,1.221,6.82-3.146,11.134-9.732,10.975-2.709-.065-.34-.509-2.89.112-.224-.928-1.246-.9-2.167-1.207a8.54,8.54,0,0,1-2.569-1.279c-1.517-.946-3.743-2.316-3.457-4.414l-.318.777c-.033.134-.116.679-.137.8-.506,2.774-.108,6.43,1.38,8.435.3.394.578.784.921,1.192a11.054,11.054,0,0,0,3.071,2.662,23.129,23.129,0,0,0,9.494,2.948c1.322.137,2.655,0,3.974.079l3.23-.477a15.455,15.455,0,0,0,9.88-6.542c1.344-2.092-1.279-4.277-1.871-5.809.336-.394-.087-.13.639-.184l-.477-.585c.517-1.084,3.053-2.662,4.429-3.342,5.289-2.6,14.656-2.937,20.378-1.268.773.224,2.384.679,2.969.9.871.329,1.037,1.275,1.268,2.76l1.373,7.445c.033.419.043.455.087.845l.293,5.708a25.15,25.15,0,0,1-.206,3.652c-.09.506-.184,1.051-.289,1.633-.163.892-.112,1.2-.867,1.178.191.231.043.094.322.3a29.012,29.012,0,0,1,3.717,2.641c.069.079.52.589.567.614.3.184.069.108.412.141a.7.7,0,0,0,.5-.069c.827-.723.264-13.619-.1-16.466-.173-1.337-.957-3.71-.8-4.555l.361.4c-.061-.744-.079-.22.224-.361,4.617,2.211,12.962,2.731,17.766.087,5.458-3.006,6.958-9.537,4.526-14.945-1.373-3.053-2.254-3.688-4.859-5.892a27.661,27.661,0,0,0-6.759-4C350.718,33.4,344.2,32.312,338.341,35.09Zm.069.278A6.8,6.8,0,0,0,341,34.859c.679-.163,1.734-.289,2.652-.423a22.119,22.119,0,0,1,8.363.632c.665.191,1.85.361,2.424.6L358.7,37.6c-.686,8.7-12.463,6.5-18.6,3.782-1.319-.582-4.162-2.41-4.5-4.357A6.931,6.931,0,0,1,337.76,35.8l.509-.322c.036-.079.1-.076.141-.112Z" transform="translate(-179.418 -21.337)" fill="none" stroke="#731819" stroke-miterlimit="22.93" stroke-width="0.12"/>
      <path id="Trazado_180" data-name="Trazado 180" d="M315.143,29.973a6.672,6.672,0,0,0,.553,2.807c.217.553,0,0,.184.4a7.044,7.044,0,0,0,1.55,2.355,6.257,6.257,0,0,0,2.3,1.615c.755.3,2.366.824,3.269.361,1.2-.723-.9.26.336-.134,1.564-.495,2.558-.9,4.371-3.172,1.4-1.756,1.73-3.522,1.673-6.354,1.687.336.607.361,1.644,1.579,2.511,2.966,2.807-.394,4.313-.618,2.059-.307,5.607.5,12.062-.925,5.805-1.282,6.56-1.806,10.881-4.758a1.676,1.676,0,0,1,1.315-.394l.213.022.466.058-.069-.278c-1.17.231-1.687-2.077-4.747-3.945a29.964,29.964,0,0,0-5.906-2.915,33,33,0,0,0-15.173-1.7,24.637,24.637,0,0,0-6.958,1.665A22.515,22.515,0,0,0,324.344,17c-4.1,2.5-2.034,1.051-5.173,3.652a17.987,17.987,0,0,0-2.027,2.4c-1.683,2.388-1.5,3.8-2,6.911" transform="translate(-201.286 -8.775)" fill="#345f2a" fill-rule="evenodd"/>
      <path id="Trazado_181" data-name="Trazado 181" d="M364.82,91.894c.119.553.7.925,1.059,1.445a13.764,13.764,0,0,1,2.46,6c.387,2.8.065,7.608-1.589,9.234-.983,1.98-1.716,1.2-2.438,2.959a7.754,7.754,0,0,0-.069,4.924l.47.459a21.016,21.016,0,0,1,.86-6.08c.423-1.217.618-1.051,1.705-1.716.95-.582,1.636-.571,2.384-1.062-.029-.022-.025-.126-.022-.1s-.661-.318,2.345-1.03c5.4-1.272,11.1.4,12.283.3a4.292,4.292,0,0,1,1.405-.144c1.246.163,1.593,1.026,2.608,1.42l5.487,2.33c.755.018.723-.285.867-1.178.1-.582.2-1.127.289-1.633a25.15,25.15,0,0,0,.206-3.652l-.293-5.708c-.043-.39-.054-.426-.087-.845l-1.373-7.445c-.231-1.485-.4-2.431-1.268-2.76-.585-.22-2.2-.676-2.969-.9-5.711-1.676-15.079-1.344-20.367,1.254-1.376.679-3.912,2.276-4.429,3.342Z" transform="translate(-232.423 -54.721)" fill="#345f2a" fill-rule="evenodd"/>
      <path id="Trazado_182" data-name="Trazado 182" d="M157.7,134.161c4.154-3.2,4.335.538,10.758-.78-.56,1.788-2.767,1.257-4.754,1.254-.643.535-.466.824-1.358,1.181a6.693,6.693,0,0,1-1.911.361c-1.593.029-2.792-.4-2.735-2.023" transform="translate(-100.725 -84.84)" fill="#ecce1f" fill-rule="evenodd"/>
      <path id="Trazado_183" data-name="Trazado 183" d="M219.337,138.162c.163,2.417-.946,2.854-2.37,3.822-2.167,1.47-1.987,1.149-1.972,3.974-1.936-.751-3.132-2.792-1.084-4.335,2.735-2.077,2.131-.878,4.1-3.251-3.446-.415-2.7-2.052-1.7-2.6a3.265,3.265,0,0,1,4.064.448c.112,1.275-.289,1.394-1.033,1.958" transform="translate(-135.951 -86.387)" fill="#ecce1f" fill-rule="evenodd"/>
      <path id="Trazado_184" data-name="Trazado 184" d="M173.942,143.907c-.784-.314-2-1.709,1.918-1.748s2.764,1.445,1.918,1.752l-.361-1.134c-1.539.144-.607,1.084-.412,1.878l-2.07-.036c.108-.845.878-1.806-.574-1.828-.224.437-.079.3-.159.549l-.17.43c0-.029-.043.1-.076.137" transform="translate(-110.583 -90.8)" fill="#ecce1f" fill-rule="evenodd"/>
      <path id="Trazado_185" data-name="Trazado 185" d="M192.184,137.456a9.006,9.006,0,0,1,5.419.791c1.871.936,1.965,2.717-.448,3.168a8.982,8.982,0,0,1-5.78-.762c-2.117-1.217-1.893-2.688.816-3.2" transform="translate(-121.329 -87.719)" fill="#ecce1f" fill-rule="evenodd"/>
      <path id="Trazado_186" data-name="Trazado 186" d="M80.139,143.662c.531,1.084,7.687,3.338,8.76,3.652a26.948,26.948,0,0,0,7.947,1.181,11.76,11.76,0,0,1,2.7.611c4.017.769,13.366.361,16.8-1s10.22,1.85,13.131-.932h0l.993-.1c3.566-.835,4.443-.759,7.89-2.46.885-.433,1.788-1.293,2.07-1.38,1.882-.592,4.393.657,10.422-3.389a16.555,16.555,0,0,0,1.767-1.687c.545-.542,1.235-1.2.957-2.124l-.1-.275-.058-.141-.054-.141a15.4,15.4,0,0,0-2.666-3.349,32.752,32.752,0,0,0-4.115-2.767l-2.348-1.142c-.4-.477-3.75-1.192-4.985-1.163-.881.022-1.55.336-2.113-.163a4.732,4.732,0,0,1-1.2.722c-.8.448-.6.495-1.445.2-1.051-.361-2.063-.679-3.161-1.084-.954-.361-5.859-1.933-6.167-2.258-.231,0-6.687-1.9-8.959-2.2-2.084-.275-6.633-.387-7.879,1.506l-.542.983-.564-.184c-.629.26-4.769-.527-6.141-.556a28.972,28.972,0,0,0-11.979,2.2c-.82.361-1.5.849-2.384,1.261-1.062.5-1.282,1.1-2.529,1.138a23.041,23.041,0,0,0-11.56,2.839,15.7,15.7,0,0,0-4.151,2.948c-1.445,1.582-1.543,2.8-1.04,5.336a4.455,4.455,0,0,0,1.47,2.746,4.022,4.022,0,0,0,1.9,2.168c.834.614,1.409,1.445,2.623,1.633a9.32,9.32,0,0,0,2.735,1.3c1.17-.329.206-.018.759-.3a7.659,7.659,0,0,0,1.532-1.373c.336-.325.546-.531.871-.853.668-.657.538-.452.78-1.391" transform="translate(-42.896 -77.997)" fill="#ecce1f" fill-rule="evenodd"/>
      <path id="Trazado_187" data-name="Trazado 187" d="M257.838,146.409c.047,3.085-5.932,2.471-4.6-.275-.329-.936-2.233-1.59-.722-3.172.686-.722,2.5-.91,3.764-.759,4.028.488,4.2,3.295,1.564,4.2" transform="translate(-160.923 -90.798)" fill="#ecce1f" fill-rule="evenodd"/>
      <path id="Trazado_188" data-name="Trazado 188" d="M136.6,134.882c.564.5,1.232.184,2.113.163,1.235-.029,4.584.686,4.985,1.163l2.366,1.149a33.274,33.274,0,0,1,4.115,2.767,15.4,15.4,0,0,1,2.666,3.349l.054.141.058.141.1.275c.278.928-.412,1.582-.957,2.124a16.553,16.553,0,0,1-1.767,1.687c-6.029,4.046-8.54,2.8-10.422,3.389-.282.087-1.185.946-2.07,1.38-3.446,1.7-4.335,1.626-7.89,2.46l-2.724.271c-.04,0-.134,0-.163-.054s-.108-.036-.159-.065c-.383.2-.116.072-.524.289-2.861,1.51-.878.491-3.385.3-1.546.654-1.561-1.951-7.171.289-3.439,1.373-12.785,1.774-16.8,1a11.758,11.758,0,0,0-2.7-.611,26.775,26.775,0,0,1-7.947-1.181c-1.084-.314-8.229-2.565-8.76-3.652-.242.939-12.4-9.346-13.07-8.67-1.445,8.4,4.263,10.4,9.129,12.608l1.586.462c1.084.433,2.713,2.825,10.241,4.277,3.92.759,9.32.39,11.325,1.015,5.058,1.579,13.858,1.532,18.373-.047,2.323-.813,4.852,0,7.55.018a49.192,49.192,0,0,0,7.586-.542,50.955,50.955,0,0,0,9.439-2.85c1.026-.441,1.806-.918,2.854-1.369a28.142,28.142,0,0,0,6.347-3.836,9.054,9.054,0,0,0,2.908-3.443c1.655-3.378.1-6.5-2.265-8.9a24.8,24.8,0,0,0-2.363-1.864c-2.926-2.283-7.731-4.7-12.662-3.612" transform="translate(-42.365 -85.997)" fill="#dfa71e" fill-rule="evenodd"/>
      <path id="Trazado_189" data-name="Trazado 189" d="M334.692,159.782c-.267.1-.069-.047-.408.271l-2.561,3.15c2.1,3.678,9.32,8.652,13.308,7.286.076,2.261-1.806,3.4-4.49,2.684-2.045-.553-4.787-2.464-5.141-2.167-.925,1.647.77,2.529,1.759,3.085a36.865,36.865,0,0,0,11.921,3.667,31.729,31.729,0,0,0,9.523-.473,44.675,44.675,0,0,0,6.018-1.864c.26-.134.531-.271.86-.462l.824-.751-2.142-.079c.589-.853,2.167-.657,3.1-.679.69-.722-.267-1.618-.925-1.806-.925.036-2.98,1.687-4.512,2.121a51.522,51.522,0,0,1-5.292,1.6c-3.649.7-9.754.979-8.5-4.1.983,3.612,13.565.538,15.9-.8-.444-.849-2.1-.722-2.839-1.254a29.9,29.9,0,0,0,5.751-1.723,9.621,9.621,0,0,0,4.31-3.381,9.738,9.738,0,0,0,1.445-6.167,20.043,20.043,0,0,0-1.474-6.5c-.1-.643-.607-.585-1.333-.986-1.445-.806-2.168-1.622-4.642-2.294.722,1.235,2.222,2.995,2.691,4.953-1.42-.683-2.529-1.705-3.612-2.233-.275-.242-.816-.517-1.178-.78-1.387-1.012-2.193-1.806-4.367-1.582a3.544,3.544,0,0,1,.22-2.279c-2.908-1.561-10.4-.983-13.626-.145-.748.491-1.445.48-2.384,1.062-1.084.665-1.282.5-1.705,1.716a21.015,21.015,0,0,0-.86,6.08l-.47-.459-.466.928c-.022.033-.069.083-.1.126-1.04.777-4.071,2.948-4.6,4.219m30.211-6.922a6.5,6.5,0,0,1,1.16,1.72c.965,1.907.513,3.139.076,4.722,1.2.517,1.528.4,2.258,1.268-2.89-1.319-6.531.643-9.031,2.117l-2.391,1.6a4.194,4.194,0,0,1,.907-1.282c-.278-.231-.112-.126-.545-.282-3.822-1.34-3.721,3.342-4.7,5.715-1.394,3.443-3.974,1.969-5.7,1.445-1.163-.361-1.445.087-2.41-.148a5.845,5.845,0,0,1-1.593-.206c-.722-.527-.126-1.759.206-2.348l3.938-5.935c-1.879.072-2.074-.434-3.089.087a10.738,10.738,0,0,0-2.688-3.688c-.722-.611-.918-.3-1.532-.654a4.516,4.516,0,0,1,2.529.177c1.084-4.548,6.044-4.772,7.586-1.965.723,1.311.061,1.481.061,1.485l.289,1.5c.459-.267.629-.5,1.16-.766-.7,1.152-2.254,2.641-3.132,3.768-.361.484-.47.784-.914,1.384s-.668.722-1.055,1.246c-.361.484-.423.853-.878,1.445-.7.885-1.647,1.9-1.637,3.11v.473a5.305,5.305,0,0,0,1.951-.571l.824-.506a10.14,10.14,0,0,0,3.193-3.356c1.152-1.806,4.429-4.017,5.216-5.354,0-3.092-1.011-3.529,1.116-5.99l-.91-.264c2.225-.253,1.828-.892,3.721-1.5a6.228,6.228,0,0,1,6.015,1.557Zm-33.925,38.834c.029.047.083.054.1.126a.224.224,0,0,0,.1.126l.723.56-.116.723c.5-.9.441-1.759,1.105-2.634-.361,1.445-1.037,3.79-.094,5.169a10.209,10.209,0,0,0,4.3,2.608c5.339,1.539,14.876-.946,15.7-3.1,2.594.213,4.14.816,7.023.531a17.177,17.177,0,0,0,5.715-1.6A11.358,11.358,0,0,0,370.9,184.9c1.008-.271-.134.173.538-.065-.82-.654-.484-1.488-.722-2.854a18.3,18.3,0,0,0-1.976-5.339l-1.636-2.016c-.455.094,0-.141-.307.2.289,3.2-.625,5.3-1.806,7.843-1.149,2.46-2.76,3.569-4.584,5.021-3.681,2.926-11.267,3.486-16.1,2.7-2.167-.361-6.441-1.781-8.168-3.219a3.331,3.331,0,0,1-.361-.361c-.224-.361-.455-.079,0-.3-.285-.361-.444-.466-.462-.954a1.747,1.747,0,0,1-.144-1.445c.484-2.417,1.138-2.677,1.394-3.638a20.128,20.128,0,0,0-.1-3,15.609,15.609,0,0,1,.513-2.677c-.592-.643-1.322-.831-1.806-1.629-.892-1.47.036-1.969.177-2.854a14.008,14.008,0,0,1-3.728-3.764c-.3-.477-.632-1.178-.871-1.615-.7.318-.513.141-1.235,1.412-2.243,3.974-3.93,7.648-3.815,12.485a26.054,26.054,0,0,0,1.636,7.745c.607,1.275,1.142,1.806,1.741,2.861.535.95.361.629,1.084,1.239C331.292,191.728,331.086,191.529,330.974,191.681ZM341.4,153.919c-1.326-3.309,2.146-6.654,4.584-7.283,4.7-1.21,4.776,3.186,3.612,3.547-.264.079-2.066-.611-3.638-.126a5.228,5.228,0,0,0-2.652,1.55c-.325.34-.668.643-1.048,1.062-.47.509-.4.806-.86,1.25Z" transform="translate(-208.035 -92.781)" fill="#e2b782" fill-rule="evenodd"/>
      <path id="Trazado_190" data-name="Trazado 190" d="M417.3,305.589c.361.159.452-.09.173,1.9a6.613,6.613,0,0,0-.2,1.647,27.966,27.966,0,0,0,3.725-8.9c.47-2.413-.177-2.821.936-3.688A18.432,18.432,0,0,1,432.3,292.23c1.123-.072,4.9.191,5.635.806.6.495,2.225,5.307,2.8,6.8,2.709,7.062,4.935,14.287,7.225,21.57,1.022,3.251,2.72,9.559,2.774,12.954.043,3.074-1.225,2.117-6.824,3.078l.849,3.251c2.326.47,7.666-.665,8.5-2.243,1.207-2.269-4.8-23.564-5.589-26.371-1.279-4.57-4.675-16.191-6.445-20.4-.318-.755-.643-1.163-.921-1.781a12.77,12.77,0,0,0-5.56-6.524l-.816-.632c-.278-.549.061-.173-.574-.538a3.81,3.81,0,0,0-.477-.155c-1.019.311-1.806,1.532-3.728,2.168-1.329.437-1.019.242-1.828,1.044-1.781,1.763-6.333,3.641-10.054,3.739,1.553,3.674,1.954,2.933,1.882,8.153-.054,4.035-.813,5.238-1.842,8.453" transform="translate(-266.523 -180.156)" fill="#cbd5de" fill-rule="evenodd"/>
      <path id="Trazado_191" data-name="Trazado 191" d="M376.5,181.44a41.946,41.946,0,0,0,6.575-3.37,11.206,11.206,0,0,1,1.98-1.311c-.91,1.99-5,4.53-6.141,5.856.657.173,1.615,1.084.925,1.806,1,.722,1.933.954,1.878,2.623a5.288,5.288,0,0,0-2.03-1.423l1.636,2.016a18.3,18.3,0,0,1,1.965,5.339c.246,1.366-.09,2.2.722,2.854-.672.238.47-.206-.538.065a11.358,11.358,0,0,1-5.354,9.266,17.177,17.177,0,0,1-5.715,1.6c-2.89.285-4.429-.318-7.023-.531-.827,2.149-10.364,4.635-15.7,3.1a10.389,10.389,0,0,1-4.3-2.608c.845,3.706,6.568,5.195,9.949,5.148,3.721-.047,9.071-2.167,10.624-4.469,3.472.625,7.435,1.47,11.065.885a24,24,0,0,0,4.92-1.04c4.053-1.618,4.7-2.695,6.651-5.419,2.222-3.089,2.612-8.966,1.878-12.8l-.361-1.911c.051-.816-.076-.206.17-.578-.589-2.529-.191-1.329-.04-3.739,0-3.15.123-1.691-.574-3.508-.578.466-.426.2-.668,1.3a6.8,6.8,0,0,0-.795-1.564,7.078,7.078,0,0,1-.751-5.444c-.329-.488-.061-.946.155-1.535a10.237,10.237,0,0,0,.148-5.419c-.387-1.409-2.59-3.511-4.035-4.2a20.042,20.042,0,0,1,1.474,6.5,8.916,8.916,0,0,1-5.755,9.548,30.955,30.955,0,0,1-5.751,1.723c.723.52,2.4.4,2.839,1.254" transform="translate(-220.609 -103.742)" fill="#cb9e6e" fill-rule="evenodd"/>
      <path id="Trazado_192" data-name="Trazado 192" d="M98.4,159.064c3.327.553,7.344-.159,10.559.217.556-.426,4.194-.285,5.245-.322,4.794.065,11.137-1.832,14.212-1.994l1.34,1.636a6.892,6.892,0,0,0,.723.625l6.914,6.141c.621.4,1.127.722,1.709,1.163a13.792,13.792,0,0,0,1.9,1.178c4.3,2.529,11.849,6.654,16.831,6.542.513,1.709,2.612,3.855,4.082,4.841.112-.152.318.047-.842-.957-.723-.611-.531-.289-1.084-1.239-.6-1.062-1.134-1.586-1.741-2.861a26.056,26.056,0,0,1-1.636-7.745c-.116-4.837,1.571-8.525,3.815-12.485.722-1.272.535-1.084,1.235-1.412.238.437.571,1.138.871,1.615a14.06,14.06,0,0,0,3.728,3.764c-.141.885-1.084,1.384-.177,2.854.484.8,1.214.986,1.806,1.629a15.609,15.609,0,0,0-.513,2.677,20.126,20.126,0,0,1,.1,3c-.256.961-.91,1.221-1.394,3.638a1.759,1.759,0,0,0,.144,1.445,10.04,10.04,0,0,1,2.258-4.451,2.662,2.662,0,0,0,2.041.361c-.134-1.051-1.084-.878-2.03-1.315l-.39-5.191a31.128,31.128,0,0,0,15.151,3.847,24.454,24.454,0,0,0,11.466-2.691c1.272-.567,2.135-1.514,3.006-1.767a17.554,17.554,0,0,1-.723,3.887c-.332,1.174-.22,1.228-2,2.168-3.172,1.694-5.419,1.6-6.318,2.254,1.611.592,6.81-.459,7.5-2.37-.6,2.283-2.919,4.754-4.548,5.968-4.7,3.49-11.56,4.129-17.358,3.078-1.965-.361-6.26-1.38-7.586-2.843-.459.22-.228-.069,0,.3a3.331,3.331,0,0,0,.361.361c1.727,1.445,6.011,2.865,8.168,3.219,4.834.784,12.42.224,16.1-2.7,1.824-1.445,3.435-2.561,4.584-5.021,1.192-2.547,2.106-4.642,1.806-7.843.322-.34-.148-.1.307-.2a5.289,5.289,0,0,1,2.03,1.423c.054-1.669-.881-1.9-1.878-2.623-.932.022-2.529-.173-3.1.679l2.142.079-.824.751c-.329.191-.6.329-.86.462a44.675,44.675,0,0,1-6.018,1.864,31.728,31.728,0,0,1-9.523.473,37.175,37.175,0,0,1-11.921-3.667c-.99-.56-2.684-1.445-1.759-3.085.361-.293,3.1,1.618,5.141,2.168,2.68.723,4.566-.423,4.49-2.684-3.974,1.366-11.2-3.612-13.308-7.286l2.561-3.15c.34-.318.141-.166.408-.271.527-1.272,3.558-3.443,4.6-4.219-3.508,1.611-5.524,4.281-8.056,6.77a15.411,15.411,0,0,1-2.016-3.883c-.224-.748-.419-1.55-.611-2.269a8.741,8.741,0,0,0-.676-2.319c-.4,4.024.723,7.048,2.081,10.043a25.551,25.551,0,0,1-1.423,2.348c-3.146,5.133-4.281,8.569-3.612,14.88a21.407,21.407,0,0,0,1.806,5.686c-2.142-.238-6.69-2.168-8.58-3.143l-3.826-1.922-10.357-6.907c-.975-.9-1.261-.831-3.154-2.608l-2.962-2.727c1.752-.437,3.309-.863,5-1.369a33.159,33.159,0,0,0,4.584-1.535c-.874.173-1.608.592-2.348.769-.863.206-1.445.285-2.3.538-1.608.462-3.1.8-4.765,1.167a93.961,93.961,0,0,1-10.509,1.384A122.152,122.152,0,0,1,85.4,156.163c-4.382-.881-13.782-3.428-17.441-6.141-2.2-1.644-4.956-3.215-4.837-7.026a1.123,1.123,0,0,1,.3.415c.213.361,0,.043.2.419,1.167,2.424,5.581,5.332,8.67,5.928l-.029.036a9.32,9.32,0,0,1-2.735-1.3c-1.214-.188-1.806-1.019-2.623-1.633a4.126,4.126,0,0,1-1.9-2.167,4.635,4.635,0,0,1-1.47-2.746c-.5-2.529-.423-3.753,1.04-5.336a15.7,15.7,0,0,1,4.151-2.948,23,23,0,0,1,11.56-2.839c1.228-.036,1.445-.639,2.529-1.138.881-.412,1.564-.91,2.384-1.261a28.972,28.972,0,0,1,11.979-2.2c1.373.029,5.513.816,6.141.556-4.288-.816-7.355-1.933-12.781-.694a20.667,20.667,0,0,0-7.547,3.2,23.849,23.849,0,0,1-5.78,1.373,23.149,23.149,0,0,0-8.439,2.243c-3.172,1.582-2.384,1.517-4.259,2.847a5.084,5.084,0,0,0-2.066,3.309c-.21.722-2.435,3.316-.881,7.225,1.134,2.854,4.877,5.292,7.586,6.6a59.467,59.467,0,0,0,16.466,5.036c2.507.415,10.606,1.665,12.8,1.189" transform="translate(-38.971 -80.184)" fill="#080a00" fill-rule="evenodd"/>
      <path id="Trazado_193" data-name="Trazado 193" d="M474.809,342c2.529.21,7.138-.867,7.911-2.323,1.207-2.269-4.8-23.564-5.589-26.371-1.279-4.57-4.675-16.191-6.445-20.4-.318-.755-.643-1.163-.921-1.781a12.77,12.77,0,0,0-5.56-6.524l-.816-.632a12.282,12.282,0,0,1,5.852,4.834c3.114,4.6,4.451,10.306,6.329,15.534,1.221,3.4,4.9,17.34,5.881,21.372.4,1.636.592,2.98.9,4.617,1.857,9.808,3.222,11.733-7.547,11.719Z" transform="translate(-295.988 -181.382)" fill="#080a00" fill-rule="evenodd"/>
      <path id="Trazado_194" data-name="Trazado 194" d="M214.161,286.364c0,1.994-.242,3.468-.137,5.549.488-.466.152.625.517-.751a24.011,24.011,0,0,1,.43-3.887,75.289,75.289,0,0,1,2.662-12.694,49.049,49.049,0,0,1,3.053-8.02l1.138-2.146c.083-.188.224-.524.361-.777a52.09,52.09,0,0,1,6.5-8.8,8.5,8.5,0,0,1,1.207-1.058l6.141-4.79a20.728,20.728,0,0,1,4.6-2.243c-.21-.166.441-.965-2.027.1a21.113,21.113,0,0,0-4.512,2.247c-.755.545-.95.434-1.6.892a5.516,5.516,0,0,0-.722.636l-3.667,3.016a8.43,8.43,0,0,1-.816.722l-2.11-1.846c-.361-.3-.679-.527-1.062-.86l-9.067-9.176c-1.282-1.5-4.418-5.014-5.505-6.589l-2.5-3.432a15.072,15.072,0,0,0-.831-1.293,13.264,13.264,0,0,1-.824-1.084c-.3-.473-.441-.881-.762-1.358-1.145-1.694-5.552-9.111-5.625-10.7-1.051.036-4.7-.1-5.245.322l1.673.094c.079,1.044,2.85,7.395,3.612,8.948l9.01,14.811c.3.434.571.78.9,1.217s.538.722.9,1.207c.679.918,1.03,1.044,1.4,1.651a3.078,3.078,0,0,0,.466.723l1.051,1.055a12.4,12.4,0,0,0,2.041,2.391l2.012,2.214a28.983,28.983,0,0,0,2.3,2.131c.61.5.343.571.993,1.116a9.142,9.142,0,0,1,1.669,1.355c1.17,1.2,1.358.853,1.987,1.445a44.312,44.312,0,0,0-5.7,10.335,61.689,61.689,0,0,0-3.566,15.3c-.025.177-.043,1.886-.325,2.023" transform="translate(-123.756 -139.263)" fill="#b6b5b4" fill-rule="evenodd"/>
      <path id="Trazado_195" data-name="Trazado 195" d="M352.3,237.108c.018.488.177.585.462.954,1.337,1.463,5.632,2.489,7.586,2.843,5.8,1.051,12.673.412,17.358-3.078,1.629-1.214,3.952-3.685,4.548-5.968-.686,1.911-5.885,2.962-7.5,2.37.907-.657,3.147-.56,6.318-2.254,1.785-.95,1.673-1,2-2.167a17.552,17.552,0,0,0,.723-3.887c-.871.253-1.734,1.2-3.006,1.767-4.079,1.806-6.477,2.63-11.466,2.691a31.128,31.128,0,0,1-15.151-3.847l.387,5.2c.939.437,1.9.264,2.03,1.315a2.725,2.725,0,0,1-2.041-.361,10.291,10.291,0,0,0-2.258,4.451" transform="translate(-225.029 -144.303)" fill="#f2f3f3" fill-rule="evenodd"/>
      <path id="Trazado_196" data-name="Trazado 196" d="M208.25,214.518c.072,1.586,4.479,9,5.625,10.7.322.477.462.885.762,1.358a13.255,13.255,0,0,0,.824,1.084,15.075,15.075,0,0,1,.831,1.293l2.5,3.432c1.084,1.575,4.223,5.09,5.505,6.589l9.067,9.176c.383.332.723.564,1.062.86l2.11,1.846c.531-.4.336-.329.816-.723l3.678-3.027a5.517,5.517,0,0,1,.723-.636c.65-.459.845-.361,1.6-.892a20.62,20.62,0,0,1,4.512-2.247c2.467-1.066,1.806-.267,2.027-.1a20.727,20.727,0,0,0-4.6,2.243l-6.145,4.794a8.5,8.5,0,0,0-1.207,1.062,52.529,52.529,0,0,0-6.5,8.8c-.137.253-.278.589-.361.777l-1.138,2.146a49.051,49.051,0,0,0-3.053,8.02,75.292,75.292,0,0,0-2.662,12.694,24.015,24.015,0,0,0-.43,3.887c-.361,1.376-.029.285-.517.751l-.058.592c.694-.119.592-.238,1.16.188.332.249.166.332.657.654l11.253,6.214c.607.264,1.311.271,1.944.571a49.574,49.574,0,0,0,13.662,3.761,86.776,86.776,0,0,0,18.85.224,47.972,47.972,0,0,0,11.452-1.915c5-1.521,4.7-.332,4.566-3.128a2.7,2.7,0,0,1-1.727.033c-3.482-.643-7.113,1.514-8.287-2.615a6.3,6.3,0,0,1-.047-3.193,6.578,6.578,0,0,1-3.974-.361c-1.21,3.584-6.289,3.786-8.125-.621-2.951-.318-1.929-1.329-3.342-3.139-1.315-1.68-2.814-1.738-3.873-2.836-.556-.578-.191-.564-.535-1.022-.17-.228-2.662-1.239-1.423-2.818,3.1-3.952-3.154-6.271,6.336-7.655.99-.148,2.359-.119,3.323-.361,1.131-.278,2.106-.455,2.98.206.722.549.48.947,1.806,1.842,1.85,1.257,5.534,3.053,7.644,3.251.665.065.181-.1.473.1a1.692,1.692,0,0,0-.571-1.29c-.542-.668-.332-.437-1.2-.773l4.573.325,1.048-.473a11.735,11.735,0,0,1,9.714.6c1.012.589.524.412,1.705.267a9.513,9.513,0,0,1,4.158.556c3.894.6,1.03-.036,3.779,1.04,1.246.488,2.507.751,3.656,1.337s5.589,2.767,5.917,3.612l-6.275-2.673a8.122,8.122,0,0,0-1.962-.972c1.145,1.579-.022.657,1.893,3.349,3.544,4.985,3.714,6.524,5.982,11.77,5.6-.961,6.864,0,6.824-3.078-.054-3.4-1.752-9.689-2.774-12.954-2.283-7.283-4.508-14.508-7.225-21.57-.578-1.5-2.207-6.307-2.8-6.8-.723-.614-4.512-.878-5.635-.806a18.432,18.432,0,0,0-10.357,4.317c-1.113.867-.466,1.275-.936,3.688a27.966,27.966,0,0,1-3.724,8.9,6.611,6.611,0,0,1,.2-1.647c.278-1.987.173-1.738-.173-1.9a16.429,16.429,0,0,1-.863,1.991,3.718,3.718,0,0,1-1.105,1.369c-.383-1.9-.318-3.869-.632-5.729-.48-2.836-2.431-8.76-4.523-10.837-.325-.325-1.084-1.221-1.539-1.366-2.24.835-4.451,1.163-6.745-.3-.661-.423-.965-.636-1.051-1.5l-.744.083h-.1l.7.361a22.133,22.133,0,0,0-12.8,4.862,17.942,17.942,0,0,0-2.7,2.926,14.409,14.409,0,0,1,2.8-8.591,11.388,11.388,0,0,1,3.753-2.926c-.2-.672-.82-1.319-1.127-2.189a10.226,10.226,0,0,1-.343-3.168l.116-.723-.723-.56a.224.224,0,0,1-.1-.126c0-.072-.072-.079-.1-.126-1.47-.986-3.569-3.132-4.082-4.841-4.982.112-12.535-4-16.831-6.542a13.792,13.792,0,0,1-1.9-1.178c-.582-.452-1.084-.759-1.709-1.163l-6.914-6.141a6.9,6.9,0,0,1-.723-.625l-1.34-1.636c-3.074.163-9.418,2.059-14.212,1.994m43.133,44.972c-.766.238-1.311.513-2.077-.235a2.041,2.041,0,0,1-.408-2.344c.556-1.2,3.009-2.168,3.4.126.48.6-.235,1.488-.361,2.341Zm-5.932,9.79c-.816-.1-1.445-.04-1.806-.723-1.084-2.167,1.611-5.057,3.345-2.326.2.275.087-.293.191.524.065.524-.036.694-.34,1.358-.43.939-.293.91-1.4,1.17Zm-2.261,8.879c-1.7.975-3.222-.607-2.659-2.348.4-1.25,2.453-2.373,3.363-.387l.224.7A2.409,2.409,0,0,1,243.2,278.156Zm-4.7,8.334c-.3-2.789,3.558-4,3.667-.744C242.28,289.278,238.739,288.794,238.5,286.49Z" transform="translate(-133.017 -135.743)" fill="#f9fbfb" fill-rule="evenodd"/>
      <path id="Trazado_197" data-name="Trazado 197" d="M101.385,150.67c.845.907,1.846,1.636.722,3.179-.8,1.084-2.558,1.3-3.172,1.716.527.773-.643,2-1.582,2.135-.834.112-3.425-1.879-5.451-2.637-.881-.329-2.366-.4-3.063-.921a15.009,15.009,0,0,1,1.174-.943l-.311-.191c-1.626-1.037.278.723-.6-.52-.491-.7.379.242-.307-.47a3.169,3.169,0,0,0-2.89-.426c-2.2.657-2.117,2.222-2.117,2.225-.2.527-.574.607-.759.824l.654-.029a4.516,4.516,0,0,1,2.345.491c.271.545,1.622.813,2.272,1.113.48.217.676.3,1.167.549a13.542,13.542,0,0,1,4.151,2.695c.531.538.253.632.91,1.044,2.366,1.492,9.346,1.272,12.756.791a22.271,22.271,0,0,1,6.34.3c.545.213-.054-.033.477.253.311.173.336.181.65.329l.52.246,1.983.759a8.816,8.816,0,0,0,4.866.051c.437-.148.946-.264,1.333-.39,1.806-.585,2.034-1,4.443-1.47a7.453,7.453,0,0,1,2.489-.517v-.191H132.3c.452-.611,3.053-.09,3.634-.033,1.6.159,2.467.256,4.035.415,2.8,0,3.8.076,6.206-1.012l.4-.177.264-.126c1.951-.986,1.716-.853,3.533-2.666,2.453-2.457,1.474-1.239,3.132-2.4a14.385,14.385,0,0,1,6.383-2.529l-3.612-.643a21.474,21.474,0,0,0-3.15.556l-1.214.643c-2.857,1.152-1.972,1.142-3.342,1.824-.9.448-3.753-.188-4.729,0-.43.079-.751.332-1.084.278-1.492.361-1.275.809-2.742,1.319a9.3,9.3,0,0,1-3.706.574,1.5,1.5,0,0,0,.191.065l1.7.488c-.361.9.343.282-.589.686-.361.155-5.581.087-5.524-.853-1.582.611-2.529,1.084-4.523.379-.813.361-.275.21-.939.509a2.424,2.424,0,0,1-.925.253c-.7-.874-1.524-1.25-1-2.89-.9.7-.4,1.062-1.886,1.478a8.574,8.574,0,0,1-3.378.043l1.355.423.39,2.081a9.36,9.36,0,0,1-4.212-.578c-3.136-1.167-1.651-.361-2.063-1.933-.134-.52.09-.238-.289-.553.531,2.359-1.727,3.132-3.912,3.385a7.521,7.521,0,0,1-3.2-.3,1.768,1.768,0,0,1-1.485-2.106l-3.295.961c.058-1.2-.611-1.445.491-2.037l-1,.636a4.016,4.016,0,0,1,.809-2.388c-.173-1.062.741-2.359,1.279-3.143,1.228-1.788.9-1.225,1.9-1.384a1.546,1.546,0,0,0,.574-.141l.383-.188a8.217,8.217,0,0,1-2.988-.1c-.99-.282-1.058-.647-2-.885l1.272.773c-.267,1.109-.7,1.705-2.088,1.3" transform="translate(-53.033 -94.914)" fill="#daa922" fill-rule="evenodd"/>
      <path id="Trazado_198" data-name="Trazado 198" d="M290.319,60.428c.116.361.574-.361-.943.993-2.641,2.33-4.469,3.92-6.232,7.565a1.621,1.621,0,0,0-.17.412l-.289,1.38c-.285,2.1,1.94,3.468,3.457,4.414a8.539,8.539,0,0,0,2.569,1.279c.939.307,1.962.278,2.167,1.207,2.529-.621.163-.177,2.89-.112,6.586.159,10.953-4.154,9.732-10.975-.834,0-.86-.04-1.235-.361-.9.473-2.529-.054-3.269-.361a6.257,6.257,0,0,1-2.3-1.615,7.044,7.044,0,0,1-1.55-2.355c-.188-.408.033.152-.184-.4a6.672,6.672,0,0,1-.553-2.807c-1.109.412-3.432,1.084-4.086,1.745" transform="translate(-180.547 -37.484)" fill="#345f2a" fill-rule="evenodd"/>
      <path id="Trazado_199" data-name="Trazado 199" d="M346.589,389.4c1.488,1.066,1.113,0,2.009,1.669.48.9,1.561,1.42,2.211.206.329-.607.545-1.77.907-2.529s.993-1.806,1.806-1.839c2.424-.148,4.927,5.325,9.9,2.428V386.12c.253-.95-.145-4.61-1.008-5.491-.293-.2.191-.033-.473-.1l-.636.1a21.5,21.5,0,0,1-7.742-2.984c-1.022-.657-1.217-1.391-2.167-1.915-.639-.033-3.905.69-4.946.856a41.539,41.539,0,0,0-4.667,1.084c0,5.758-.961,4.631-1.3,6.589,1,1.282,2.428,1.232,3.7.213,1.481-1.185.871-2.2.668-3.974.983.524.759.394.762,1.445,0,1.315-.271,1.669.033,2.168,1.64-.04.56-1.524,3.273-2.966-.387.889-1.445,1.683-2.2,3.75-.361,1-1.366,3.779-.148,4.487" transform="translate(-217.479 -239.998)" fill="#e3b986" fill-rule="evenodd"/>
      <path id="Trazado_200" data-name="Trazado 200" d="M334.582,249.319c-.943-1.38-.282-3.732.094-5.169-.665.874-.6,1.734-1.105,2.634a10.036,10.036,0,0,0,.343,3.168c.307.871.932,1.517,1.127,2.189a11.142,11.142,0,0,0-3.753,2.926,14.458,14.458,0,0,0-2.8,8.591,18.977,18.977,0,0,1,2.7-2.926,22.171,22.171,0,0,1,12.8-4.862l-.7-.361a16.255,16.255,0,0,0-2.619-.029l-3.085.6c-1.152.3-.112.21-1.882.582a4.334,4.334,0,0,0-1.084.361l-3.006,2-2.41,2.753c.361-1.99,3.454-7.3,4.949-8.432,2.251-1.7,1.293.415,4.675,1.34l4.563.813.744-.083c.087.863.39,1.084,1.051,1.5,2.294,1.445,4.5,1.131,6.745.3.495-.863.1-.173-.238-1.889a7.452,7.452,0,0,1,4.433,1.369,5.585,5.585,0,0,1,2.4,3.233c.314-1.64-1.673-3.865-3.006-4.841-.784-.574-.4.065-.806-.932a6.027,6.027,0,0,1,4.776,2.467c3.118,3.522,1.691,10.368.723,14.4l-.639,2.059c-.087.65-.137.361.166.7a17.754,17.754,0,0,0,.863-1.99c1.03-3.215,1.788-4.418,1.842-8.453.072-5.22-.329-4.479-1.882-8.153,3.721-.1,8.273-1.976,10.054-3.739.809-.8.5-.607,1.828-1.044,1.922-.632,2.709-1.853,3.728-2.167a40.46,40.46,0,0,0,2.684-3.519c3.092-5.78,1.879-10.4.618-15.577-.246.361-.119-.238-.17.578l.361,1.911c.722,3.829.343,9.707-1.879,12.8-1.962,2.735-2.6,3.811-6.651,5.419a24,24,0,0,1-4.92,1.04c-3.631.585-7.586-.26-11.065-.885-1.553,2.294-6.9,4.422-10.624,4.469-3.381.047-9.1-1.445-9.949-5.148" transform="translate(-209.819 -146.359)" fill="#22351b" fill-rule="evenodd"/>
      <path id="Trazado_201" data-name="Trazado 201" d="M435.153,36.928c-.04.036-.1.033-.126.1l-.509.322a6.626,6.626,0,0,0-2.167,1.221c.343,1.947,3.186,3.775,4.5,4.357,6.141,2.713,17.918,4.92,18.6-3.782L451.2,37.235c-.574-.231-1.759-.4-2.424-.6A22.119,22.119,0,0,0,440.413,36c-.918.134-1.972.26-2.652.423a6.8,6.8,0,0,1-2.594.509" transform="translate(-276.161 -22.897)" fill="#345f2a" fill-rule="evenodd"/>
      <path id="Trazado_202" data-name="Trazado 202" d="M403.879,124.543l-5.487-2.33c-1.015-.394-1.362-1.257-2.608-1.42a4.257,4.257,0,0,0-1.405.145c-1.192.108-6.9-1.568-12.283-.3-3.006.722-2.345,1.051-2.345,1.03s0,.079.022.1c3.222-.838,10.718-1.416,13.626.145a3.567,3.567,0,0,0-.22,2.279c2.168-.228,2.98.571,4.368,1.582.361.264.9.538,1.178.78,1.105.527,2.2,1.55,3.613,2.233-.47-1.958-1.962-3.717-2.691-4.953,2.467.672,3.19,1.488,4.642,2.294.723.4,1.235.343,1.333.986,1.445.694,3.634,2.767,4.035,4.2a10.089,10.089,0,0,1-.148,5.419c-.217.589-.484,1.048-.155,1.535.047-1.763,2.359-5.1,3.58-5.78,5.455-3,6.56,7.973,5.224,10.989a5.834,5.834,0,0,1-2.312,2.276c-.444.329-2.984,1.391-2.93,1.423a6.3,6.3,0,0,0,3.251-.921,5.767,5.767,0,0,0,2.4-2.016,9.078,9.078,0,0,0,.914-7.189,16.917,16.917,0,0,0-1.123-3.121,4.247,4.247,0,0,0-1.944-2.467,2.943,2.943,0,0,0-3.345,0c-1.254.676-1.333,1.116-2.193,2.1-.267-3.634-.7-.448-.383-6.665.119-2.287.181-4.588.152-6.9-.036-2.72-.654-10.437-1.777-12.445l-.361-.4c-.159.845.625,3.219.8,4.555.361,2.847.928,15.754.1,16.466-.2.076-.1.108-.5.069s-.108.043-.412-.141c-.047-.025-.5-.535-.567-.614a27.127,27.127,0,0,0-3.717-2.641c-.278-.206-.13-.069-.322-.3" transform="translate(-242.524 -68.445)" fill="#1f190e" fill-rule="evenodd"/>
      <path id="Trazado_203" data-name="Trazado 203" d="M461.37,182.162a7.133,7.133,0,0,0,.751,5.444,6.8,6.8,0,0,1,.795,1.564c.242-1.084.09-.831.668-1.3.7,1.806.574.361.574,3.508l.387-.116c.4-.148.21-.079.387-.188-.054-.033,2.485-1.084,2.93-1.423a5.9,5.9,0,0,0,2.312-2.276c1.337-3.016.231-13.991-5.224-10.989-1.221.672-3.533,4.01-3.58,5.78m2.738,4.429c-1.373-5.011,3.316-12.506,4.23-6.427-.39-.863-.441-1.579-1.622-1.611-.925.271-2.587,7.073-1.687,7.279.582.134-.47.332.939.025.264-.061.647-.217.863-.293-.025-1.062-.513-1.084-.723-2.056.52.556,1.373,1.138,1.275,2.254a2.785,2.785,0,0,1-3.277.82Z" transform="translate(-294.546 -112.336)" fill="#e2b782" fill-rule="evenodd"/>
      <path id="Trazado_204" data-name="Trazado 204" d="M185.24,313.4c.488,1.322.871,2.529,1.322,3.826.34.975.592,2.89,1.355,3.468-.224-.939-.079-.224.09-.524l3.818.029.047-6.7c2.186-.253,5.058.2,6.77-.116-.033-.816.148-.914.072-1.748a19.7,19.7,0,0,1-.09-2c0-1.326-.069-2.829.047-4.115H191.75c.134,1.358.332,6.9-.083,7.781-.867.412-5.123.2-6.427.116" transform="translate(-118.32 -195.147)" fill="#e4b8bb" fill-rule="evenodd"/>
      <path id="Trazado_205" data-name="Trazado 205" d="M203.266,272.519l6.755.04.116,6.824h7.55a34.374,34.374,0,0,0-2.735-3.688c-1.539-2.117-.9-.621-2.6-3.7-.387-.7-.835-1.084-1.315-1.944l-.567-.784c-1.954-1.882-1.608-2.475-3.251-4.667l-4.032.022Z" transform="translate(-129.785 -169.009)" fill="#e2b5bc" fill-rule="evenodd"/>
      <path id="Trazado_206" data-name="Trazado 206" d="M392.972,301.483c.459.145,1.214,1.04,1.539,1.366,2.092,2.066,4.042,7.991,4.523,10.837.314,1.86.249,3.833.632,5.729a3.718,3.718,0,0,0,1.105-1.369c-.3-.332-.253-.051-.166-.7l.639-2.059c.972-4.032,2.4-10.877-.723-14.4a6.027,6.027,0,0,0-4.776-2.467c.4,1,.022.361.806.932,1.333.975,3.32,3.2,3.006,4.841a5.585,5.585,0,0,0-2.4-3.233,7.453,7.453,0,0,0-4.425-1.355c.34,1.716.722,1.026.238,1.889" transform="translate(-250.854 -190.612)" fill="#345f2a" fill-rule="evenodd"/>
      <path id="Trazado_207" data-name="Trazado 207" d="M357.39,407.738c.759,2.279.148,2.608,2.471,3.659a7.916,7.916,0,0,0,3.594,2.193,3.993,3.993,0,0,0,4.212-1.633c-.564-.632-1.474-.867-1.954-1.929l-1.962.524c.213-1.145.39-1.217,1.5-1.326-.108-.618-.217-.585,0-1.12,1.694,4.563,8.908,4.057,9.19,1.011a35.823,35.823,0,0,0-.054-4.389l-.116-.289v3.219c-4.974,2.89-7.478-2.576-9.9-2.428-.827.051-1.481,1.109-1.806,1.839s-.578,1.936-.907,2.529c-.65,1.214-1.73.694-2.211-.206-.9-1.683-.52-.6-2.009-1.669" transform="translate(-228.281 -258.332)" fill="#c79768" fill-rule="evenodd"/>
      <path id="Trazado_208" data-name="Trazado 208" d="M508.748,272.393l7.915.04-.058-8.088-7.875.1.029-.119Z" transform="translate(-324.949 -168.837)" fill="#ca6259" fill-rule="evenodd"/>
      <path id="Trazado_209" data-name="Trazado 209" d="M181.21,272.462l8.016.076-.065-7.908-7.937.051Z" transform="translate(-115.746 -169.029)" fill="#ca6259" fill-rule="evenodd"/>
      <path id="Trazado_210" data-name="Trazado 210" d="M222.289,313.365l7.969.072-.148.022a5.126,5.126,0,0,0,0-1.954c-.036-.592.1-.961.119-1.691.022-1.355-.029-2.749-.022-4.1l-.332-.22h-7.55c-.116,1.286-.04,2.789-.047,4.115a19.7,19.7,0,0,0,.09,2c.076.834-.1.932-.072,1.748" transform="translate(-141.967 -195.128)" fill="#c9645c" fill-rule="evenodd"/>
      <path id="Trazado_211" data-name="Trazado 211" d="M277.951,78.524a12.561,12.561,0,0,0,4.772,9.172,22.161,22.161,0,0,0,9.963,3.8A23.4,23.4,0,0,0,304.521,90a21.428,21.428,0,0,0,4.158-2.738l1.633-1.806c.762-.82.813-1.445,1.524-2.167,1.922,2.659.553,8.507,0,11.173,1.655-1.626,1.976-6.434,1.59-9.234a13.763,13.763,0,0,0-2.46-6c-.361-.513-.939-.885-1.058-1.445-.723.054-.3-.21-.639.184.592,1.532,3.215,3.717,1.871,5.809a15.455,15.455,0,0,1-9.88,6.542l-3.23.477c-1.315-.065-2.648.058-3.974-.079a23.237,23.237,0,0,1-9.494-2.948,11.054,11.054,0,0,1-3.071-2.662c-.343-.408-.625-.8-.921-1.192-1.488-2-1.886-5.661-1.38-8.435.022-.119.1-.665.137-.8l.318-.777.289-1.38c1.015-3.063,4.042-5.9,6.4-7.976,1.517-1.337,1.059-.639.943-.993a15.72,15.72,0,0,0-3.562,2.6c-.513.542-1.2,1.084-1.539,1.524-2.131,2.847-4.541,6.571-4.227,10.848" transform="translate(-177.521 -40.589)" fill="#1b160d" fill-rule="evenodd"/>
      <path id="Trazado_212" data-name="Trazado 212" d="M508.713,231.5l7.948-.069a14.641,14.641,0,0,0-.318-4.537,29.228,29.228,0,0,0-1.084-3.323H508.67l.029-.123Z" transform="translate(-324.911 -142.725)" fill="#ca6259" fill-rule="evenodd"/>
      <path id="Trazado_213" data-name="Trazado 213" d="M182.687,313.377c1.3.087,5.56.3,6.427-.116.415-.885.217-6.423.083-7.781l-7.947.058c-.1,1.528,1,6.163,1.423,7.839" transform="translate(-115.767 -195.122)" fill="#ca6259" fill-rule="evenodd"/>
      <path id="Trazado_214" data-name="Trazado 214" d="M508.83,313.269c5.057-.282,4.259.824,6.459-1.387.722-.723,1.42-.961,1.445-2.424.036-1.358,0-2.89-.032-4.237l.029.087-7.879-.043Z" transform="translate(-325.013 -194.955)" fill="#ca6259" fill-rule="evenodd"/>
      <path id="Trazado_215" data-name="Trazado 215" d="M304.078,187.147l.072,3.678-.09-.033,8.013-.051-.036-7.821h-4.985a14.516,14.516,0,0,1-1.311,2.193c-.459.524-1.337,1.561-1.662,2.041" transform="translate(-194.216 -116.836)" fill="#ca6259" fill-rule="evenodd"/>
      <path id="Trazado_216" data-name="Trazado 216" d="M489.741,272.411l6.871-.018.011-8.063H489.73Z" transform="translate(-312.813 -168.837)" fill="#e4b8bb" fill-rule="evenodd"/>
      <path id="Trazado_217" data-name="Trazado 217" d="M489.734,231.508l6.882-.018V223.43H489.73Z" transform="translate(-312.813 -142.712)" fill="#e4b8bb" fill-rule="evenodd"/>
      <path id="Trazado_218" data-name="Trazado 218" d="M181.243,293.293l7.933-.058.051-6.849-8.016-.076Z" transform="translate(-115.746 -182.877)" fill="#e4b8bb" fill-rule="evenodd"/>
      <path id="Trazado_219" data-name="Trazado 219" d="M230.033,386.981a40.456,40.456,0,0,0-8.1,0c-.159,2.782-.235,3.269,2.33,5.607,2.37,2.168,1.568,2.8,5.8,2.345Z" transform="translate(-141.716 -247.05)" fill="#ca6259" fill-rule="evenodd"/>
      <path id="Trazado_220" data-name="Trazado 220" d="M403.113,206.792c-2.341,1.34-14.923,4.4-15.895.8-1.272,5.076,4.844,4.8,8.482,4.1a51.712,51.712,0,0,0,5.292-1.6c1.532-.434,3.587-2.084,4.512-2.121,1.156-1.326,5.242-3.865,6.141-5.856a11.2,11.2,0,0,0-1.98,1.311,41.792,41.792,0,0,1-6.575,3.37" transform="translate(-247.224 -129.094)" fill="#080a00" fill-rule="evenodd"/>
      <path id="Trazado_221" data-name="Trazado 221" d="M203.21,354.238l6.864-.065a36.665,36.665,0,0,1,.018-4.133c.076-.892-.029-2.637-.04-3.84h-6.763Z" transform="translate(-129.798 -221.131)" fill="#e4b8bb" fill-rule="evenodd"/>
      <path id="Trazado_222" data-name="Trazado 222" d="M181.581,244.023A56.269,56.269,0,0,0,181.22,251l7.948-.051c.112-1.358.058-2.764.054-4.14,0-.582-.043-1.369,0-1.925.069-.69.484-1.21-.152-1.673l.036.755a42.5,42.5,0,0,1-7.539.058" transform="translate(-115.752 -155.347)" fill="#e4b8bb" fill-rule="evenodd"/>
      <path id="Trazado_223" data-name="Trazado 223" d="M508.73,252.453l7.875-.1.1-6.8-7.958.069Z" transform="translate(-324.949 -156.841)" fill="#e4b8bb" fill-rule="evenodd"/>
      <path id="Trazado_224" data-name="Trazado 224" d="M222.05,375.18a38.418,38.418,0,0,1,8.1,0l-.058-6.864-.423.047-7.225-.083h-.329Z" transform="translate(-141.832 -235.235)" fill="#e4b8bb" fill-rule="evenodd"/>
      <path id="Trazado_225" data-name="Trazado 225" d="M508.831,293.4l7.879.043-.015-6.755-7.915-.04Z" transform="translate(-324.981 -183.094)" fill="#e4b8bb" fill-rule="evenodd"/>
      <path id="Trazado_226" data-name="Trazado 226" d="M108.166,151.891c-.574.744-.264.488-.975,1.058l-.09,1.022a2.515,2.515,0,0,0,1.853,2.442c2.547.979,2.829.47,5.347.676.614-.415,2.373-.625,3.172-1.716,1.131-1.543.13-2.272-.722-3.179-.632-.213-.954-.56-1.806-.824-2.124-.657-5.057-.524-6.549.816-.322-.17-.329.26-.224-.3" transform="translate(-68.404 -96.439)" fill="#b5251b" fill-rule="evenodd"/>
      <path id="Trazado_227" data-name="Trazado 227" d="M508.651,313.269l-.1,6.766c.672-.065,4.512-.278,5.057.217l.5-.961c1.593-4.147,3.381-9.465,3.5-13.966l-1.084-.1c.029,1.362.069,2.89.033,4.237-.036,1.463-.722,1.705-1.445,2.424-2.2,2.211-1.394,1.105-6.459,1.387" transform="translate(-324.834 -194.955)" fill="#e2b5bc" fill-rule="evenodd"/>
      <path id="Trazado_228" data-name="Trazado 228" d="M375.366,192.459c-.22.235-.231-.155-.246.676,1.557.043,3.287-.336,4.61.4-1.03.029-2.89-.2-3.612.3.972.235,1.246-.206,2.406.148,1.716.52,4.31,1.994,5.7-1.445.965-2.373.863-7.055,4.7-5.715.433.155.267.051.545.282.647-.39.275.051.582-.679l-.459-.116c-.5.181-1.532-.834-1.857-1.163-.9-.9-.686-1.575-1.174-2.168-.791,1.337-4.046,3.746-5.2,5.538a10.14,10.14,0,0,1-3.193,3.356l-.824.506a5.3,5.3,0,0,1-1.951.571Z" transform="translate(-239.606 -116.875)" fill="#c79768" fill-rule="evenodd"/>
      <path id="Trazado_229" data-name="Trazado 229" d="M345.073,142.278a62.329,62.329,0,0,0-.072,7.308l4.657-.087a3.36,3.36,0,0,0,.155-.564c.231-.676-.134-.217.329-.686a5.129,5.129,0,0,1,1.42-3.334c1.109-1.445,1.68-.795,1.362-3.446a34.811,34.811,0,0,0-4.425-.029c-1.084.094-2.428.845-3.425.838" transform="translate(-220.32 -90.305)" fill="#ca6259" fill-rule="evenodd"/>
      <path id="Trazado_230" data-name="Trazado 230" d="M175.969,160.229a8.574,8.574,0,0,0,3.378-.043c1.488-.415.983-.777,1.886-1.478.1-4.046-4.256-5.253-7.586-4.613a2.33,2.33,0,0,0-1.579,3.887c.8,1.149,2.308,1.6,3.9,2.247" transform="translate(-109.537 -98.321)" fill="#b5251b" fill-rule="evenodd"/>
      <path id="Trazado_231" data-name="Trazado 231" d="M471.583,272.346l4.7.065V264.33l.029.112h-4.873c-.387.665-.762,2.2-1.185,3.071-.509,1.062-1.4,1.85-1.59,2.753a18.557,18.557,0,0,0,1.647.975c.564.4.722.773,1.282,1.084" transform="translate(-299.354 -168.837)" fill="#ca6259" fill-rule="evenodd"/>
      <path id="Trazado_232" data-name="Trazado 232" d="M225.11,160.033a9.3,9.3,0,0,0,3.706-.574c1.467-.509,1.25-.975,2.742-1.319.04-.336,1.644-3.168-1.207-3.974a9.913,9.913,0,0,0-5.188.09c-2.507.777-5.61,4.49-.054,5.78" transform="translate(-141.803 -98.277)" fill="#b02e2d" fill-rule="evenodd"/>
      <path id="Trazado_233" data-name="Trazado 233" d="M203.26,293.369l6.918.014-.112-6.824-6.755-.04Z" transform="translate(-129.83 -183.011)" fill="#fff" fill-rule="evenodd"/>
      <path id="Trazado_234" data-name="Trazado 234" d="M304.092,211.466c.784,0,5.058-.191,5.325.2.4-.4.267-.791.582-1.738.47-1.423,1.98-4.6,2.074-5.354l-8.013.051Z" transform="translate(-194.216 -130.665)" fill="#e4b8bb" fill-rule="evenodd"/>
      <path id="Trazado_235" data-name="Trazado 235" d="M489.759,252.568l-.029-.112h6.893l-.029.119.022-6.835-6.882.018Z" transform="translate(-312.813 -156.963)" fill="#fefefe" fill-rule="evenodd"/>
      <path id="Trazado_236" data-name="Trazado 236" d="M203.47,334.081h6.763l.054-6.831c-1.705.318-4.584-.137-6.77.116Z" transform="translate(-129.964 -209.027)" fill="#fefefe" fill-rule="evenodd"/>
      <path id="Trazado_237" data-name="Trazado 237" d="M410.459,176.413l.459.116a17.26,17.26,0,0,1,5.3-2.749l1.774-.271c.426-.112.2,0,.477-.2.441-1.4-.289-1.734-1.04-2.475-1.951-1.929-5.91-3.511-7.9-3.327-2.384,3.081-2.446,6.828.928,8.908m4.819-3.324c-1.4,1.384-4.534,1.113-4.317-1.676a2.28,2.28,0,0,1,1.911-2.168c1.553-.285,2.167.6,2.637,1.561-.242.361-.527.3-.578.972-.065.921.325.412.347,1.315Z" transform="translate(-260.495 -106.98)" fill="#f9fbfb" fill-rule="evenodd"/>
      <path id="Trazado_238" data-name="Trazado 238" d="M377.608,385.618c.863.881,1.261,4.541,1.008,5.491l.116.289a35.816,35.816,0,0,1,.054,4.389c-.282,3.045-7.5,3.551-9.19-1.012-.213.535-.1.5,0,1.12-1.113.108-1.29.181-1.5,1.326l1.98-.524c.48,1.062,1.391,1.3,1.954,1.929a4,4,0,0,1-4.212,1.633,7.916,7.916,0,0,1-3.594-2.193c1.835,4.407,6.914,4.2,8.124.621a6.826,6.826,0,0,0,3.974.361,6.3,6.3,0,0,0,.047,3.193c1.174,4.129,4.8,1.972,8.287,2.615,0-.679-1.42-.531-2.746-.647-1.058-.094-2.1-.2-3.157-.329a3.948,3.948,0,0,1,.361-2.146c-.1-1.47.809-4.938.495-9.627-.249-3.764-.553-5.057-2.048-7.8,1.976.6,3.612.163,5.032.5-.524-.4-.065-.238-.885-.556a9.978,9.978,0,0,0-1.3-.361l-4.573-.325c.871.336.661.1,1.2.773a1.692,1.692,0,0,1,.571,1.29m-.043,17.943a30.013,30.013,0,0,1-.773-4.758c.412-.361.488-.343.918-.769a7.083,7.083,0,0,1,.968-1c-.04,1.3-.441,5.8-1.105,6.51Z" transform="translate(-232.643 -245.002)" fill="#11130c" fill-rule="evenodd"/>
      <path id="Trazado_239" data-name="Trazado 239" d="M347.41,391.724c-2.323-1.051-1.712-1.38-2.471-3.659-1.217-.723-.224-3.49.148-4.487.766-2.066,1.806-2.861,2.2-3.75-2.713,1.445-1.633,2.926-3.273,2.966-.3-.5-.033-.856-.033-2.168,0-1.058.22-.928-.762-1.445.2,1.774.813,2.785-.668,3.974-1.272,1.019-2.695,1.084-3.7-.213.343-1.958,1.3-.831,1.3-6.589a41.539,41.539,0,0,1,4.667-1.084c1.04-.166,4.306-.889,4.946-.856.957.524,1.152,1.257,2.167,1.915a21.5,21.5,0,0,0,7.742,2.984l.654-.123c-2.11-.181-5.78-1.976-7.644-3.251-1.319-.9-1.084-1.293-1.806-1.842-.874-.661-1.85-.484-2.98-.206-.965.238-2.334.21-3.323.361-9.49,1.384-3.251,3.7-6.336,7.655-1.239,1.579,1.254,2.59,1.423,2.818.361.459-.022.444.535,1.022,1.058,1.084,2.558,1.156,3.873,2.836,1.413,1.806.39,2.821,3.342,3.139m-6.141-7.225a2.808,2.808,0,0,0,.838-.271c.318-.159,1.6-1.268,1.626-.072a17.043,17.043,0,0,0-.423,2.391l-2.988-1.759Z" transform="translate(-215.83 -238.659)" fill="#11130c" fill-rule="evenodd"/>
      <path id="Trazado_240" data-name="Trazado 240" d="M325.74,144.81l.112,6.26,6.893.1.072-7.308Z" transform="translate(-208.064 -91.887)" fill="#e4b8bb" fill-rule="evenodd"/>
      <path id="Trazado_241" data-name="Trazado 241" d="M496.956,313.345l.033-8.005H490.24a32.154,32.154,0,0,0,1.463,4.032c.585,1.4.921,2.576,1.4,3.974Z" transform="translate(-313.139 -195.032)" fill="#e4b8bb" fill-rule="evenodd"/>
      <path id="Trazado_242" data-name="Trazado 242" d="M304.115,231.4c.91.542,3.883.246,5.13.22,0-1.34-.206-2.677-.177-4.089.025-1.322.332-2.594.343-3.75-.264-.387-4.541-.184-5.325-.2l-.036-.036Z" transform="translate(-194.21 -142.782)" fill="#ca6259" fill-rule="evenodd"/>
      <path id="Trazado_243" data-name="Trazado 243" d="M182.22,231.829a42.49,42.49,0,0,0,7.539-.058l-.036-.755-3.114-6.9h-2.4c-.813,1.676-1.553,5.6-1.994,7.72" transform="translate(-116.391 -143.153)" fill="#ca6259" fill-rule="evenodd"/>
      <path id="Trazado_244" data-name="Trazado 244" d="M284.067,227.5l7.279,3.912-.065-7.85h-6.81c0,.759,0,1.521.018,2.276,0,.163.029,1.058,0,1.152-.13.592.314.618-.43.524" transform="translate(-181.441 -142.795)" fill="#e4b8bb" fill-rule="evenodd"/>
      <path id="Trazado_245" data-name="Trazado 245" d="M498.754,190.676l.051-7.456c0-.246-.285-.412-.683-.513a9.611,9.611,0,0,0-1.655-.04c-1.127,0-2.254,0-3.378.018.061.954.643,2.3.806,3.7a24.733,24.733,0,0,1-.083,4.227Z" transform="translate(-314.959 -116.663)" fill="#e3b8bc" fill-rule="evenodd"/>
      <path id="Trazado_246" data-name="Trazado 246" d="M475.211,231.258c1.058.434,2.933.141,4.3.249V223.43h-5.78c-.119,1.853,1.676,5.227,1.481,7.828" transform="translate(-302.589 -142.712)" fill="#c9645c" fill-rule="evenodd"/>
      <path id="Trazado_247" data-name="Trazado 247" d="M243.958,313.836h6.835c.39,1.712,0,3.855.144,5.65l2.529-4.133-2.42-2.363c-2.464-1.647-6.3-6.466-7.008-6.911,0,1.355.043,2.749.022,4.1,0,.722-.155,1.084-.119,1.691a4.853,4.853,0,0,1,0,1.954" transform="translate(-155.811 -195.505)" fill="#e3bbba" fill-rule="evenodd"/>
      <path id="Trazado_248" data-name="Trazado 248" d="M244.31,354.156h3.28a24.49,24.49,0,0,1,1.394-4.136,25.851,25.851,0,0,0,1.543-3.88l-6.206.022Z" transform="translate(-156.051 -221.093)" fill="#e3b8bc" fill-rule="evenodd"/>
      <path id="Trazado_249" data-name="Trazado 249" d="M508.732,204.487l-.022,6.828H515.3a14.051,14.051,0,0,0-1.261-3.692L512.81,204.6c-.256-.361.065-.043-.34-.329Z" transform="translate(-324.936 -130.474)" fill="#e3b8bc" fill-rule="evenodd"/>
      <path id="Trazado_250" data-name="Trazado 250" d="M307.79,150.243c.643.527.748.387,1.766.361l2.269-.025-.112-6.26a24.15,24.15,0,0,1-4.06-.423,19.48,19.48,0,0,0-3.873-.78c.1,1.651,3.829,3.692,4.01,7.113" transform="translate(-194.037 -91.409)" fill="#ca6259" fill-rule="evenodd"/>
      <path id="Trazado_251" data-name="Trazado 251" d="M407.222,171.369c.325.329,1.355,1.344,1.857,1.163-3.374-2.081-3.313-5.827-.928-8.908,1.99-.184,5.95,1.4,7.9,3.327.751.722,1.481,1.084,1.04,2.475-.275.191-.051.09-.477.2l-1.774.271a17.425,17.425,0,0,0-5.3,2.749c-.307.722.065.289-.582.679a4.193,4.193,0,0,0-.907,1.282l2.391-1.6c2.5-1.474,6.141-3.435,9.031-2.117-.722-.867-1.062-.751-2.258-1.272.437-1.579.889-2.811-.076-4.718a6.5,6.5,0,0,0-1.16-1.72,6.228,6.228,0,0,0-5.993-1.564c-1.893.6-1.5,1.243-3.721,1.5l.91.264a5.937,5.937,0,0,0,.047,7.994m2.438-8.464c1.445-1,3.836-.4,5.126.322a5.83,5.83,0,0,1,2.431,4.064,10.367,10.367,0,0,1-1.366-1.676c-1.618-1.951-6.2-2.72-6.2-2.72Z" transform="translate(-259.108 -103.089)" fill="#080a00" fill-rule="evenodd"/>
      <path id="Trazado_252" data-name="Trazado 252" d="M265.593,212.764a26.971,26.971,0,0,1,5.56,0l-.022-6.3c-1.178.033-4.107,1.608-5.78,2.037a7.565,7.565,0,0,0-2.074.625c-.141,1.611-.307,1.553,1.261,2.966Z" transform="translate(-168.111 -131.873)" fill="#e3b8bc" fill-rule="evenodd"/>
      <path id="Trazado_253" data-name="Trazado 253" d="M286,211.7c1.445,0,5.018.2,6.167-.112l.051-6.051c-.722.029-3.157,0-3.58.123-.975.307-.1.607-1.366.495s.022-.282-1.084-.618Z" transform="translate(-182.68 -131.285)" fill="#fff" fill-rule="evenodd"/>
      <path id="Trazado_254" data-name="Trazado 254" d="M470.218,146.757l-.018,3.02,7.127-.022c.076-2.063-1.033-2.612-2.969-4.53-.686-.679-3.28-3.251-4.136-3.385Z" transform="translate(-300.338 -90.596)" fill="#ca6259" fill-rule="evenodd"/>
      <path id="Trazado_255" data-name="Trazado 255" d="M222.485,353.811l7.225.083.423-.047v-8c-2.6.336-5.386-.56-8,0,0,1.2.116,2.948.04,3.84a36.665,36.665,0,0,0-.018,4.133Z" transform="translate(-141.866 -220.785)" fill="#ca6259" fill-rule="evenodd"/>
      <path id="Trazado_256" data-name="Trazado 256" d="M146.729,168.348c-.069,1.3.415,1.734,1.485,2.106a7.521,7.521,0,0,0,3.2.3c2.186-.253,4.443-1.026,3.912-3.385-.625-.383-.657-.834-1.922-1.2a6.557,6.557,0,0,0-2.695-.152,5.093,5.093,0,0,0-3.974,2.33" transform="translate(-93.717 -105.992)" fill="#ab2a1e" fill-rule="evenodd"/>
      <path id="Trazado_257" data-name="Trazado 257" d="M222.19,334.134c2.615-.567,5.4.329,8,0a44.421,44.421,0,0,1,.022-6.752l-7.969-.072Z" transform="translate(-141.922 -209.065)" fill="#e3bbba" fill-rule="evenodd"/>
      <path id="Trazado_258" data-name="Trazado 258" d="M135.211,142.14c.939.238,1.058.618,2,.885a8.507,8.507,0,0,0,2.988.1c1.2-.426,2.652-.683,2.85-2.023.184-1.261-1.275-2.092-2.489-2.42-2.168-.589-5.058.22-5.672,1.427-.484.957.155,1.362.325,2.03" transform="translate(-86.042 -88.454)" fill="#b5251b" fill-rule="evenodd"/>
      <path id="Trazado_259" data-name="Trazado 259" d="M137.009,155.182a4.016,4.016,0,0,0-.809,2.388l1-.636c3.161-1.756,4.6-.723,7.731-1.481,3.5-.849,2.948-4.566,2.167-5.693-.8.983-.47,1.279-1.636,2.334-2.139,1.925-6.777.387-8.45,3.089" transform="translate(-86.995 -95.655)" fill="#74a046" fill-rule="evenodd"/>
      <path id="Trazado_260" data-name="Trazado 260" d="M476.32,252.189h4.873l-.025-6.81c-1.366-.108-3.251.184-4.3-.249.383,2.995-.155,4.465-.549,7.07" transform="translate(-304.247 -156.573)" fill="#e4b8bb" fill-rule="evenodd"/>
      <path id="Trazado_261" data-name="Trazado 261" d="M368.64,155.981c.459-.448.39-.723.853-1.25.379-.419.722-.723,1.048-1.062a5.243,5.243,0,0,1,2.652-1.55c1.571-.484,3.374.206,3.638.126,1.17-.361,1.105-4.758-3.612-3.547-2.438.629-5.91,3.974-4.584,7.283" transform="translate(-235.275 -94.843)" fill="#2a1f0f" fill-rule="evenodd"/>
      <path id="Trazado_262" data-name="Trazado 262" d="M409,383.568a9.966,9.966,0,0,1,1.3.361c.82.318.361.155.885.556l.722.744c.3-.072.723.784,1.03,1.272a6.257,6.257,0,0,1,.784,1.723c.361,1.243.755,2.529,1.066,3.761l.137.108.228.079c.632-.477.408-.965,1.445-.773,2.168.4,3.768,6.246,3.714,8.84a2.121,2.121,0,0,0,0,.4.293.293,0,0,0,.025.144c1.033,5.35-1.084,17.17-.148,19.435,5.137-.2,8.923,2.612,9.566-1.275s.108-11.412-.592-15.284c-.17-.936-.524-2.388-.6-3.251a1.013,1.013,0,0,1-.116-.188c-2.121-3.945.766-5.39-3.739-10.957-.253-.314-.3-.271-.748-.564s-3.063-3.569-4.953-4.158l-.145-.04c-.741-.2-1.373-.108-1.633-.788-.777.318-.795.134-.932.126a17.014,17.014,0,0,0-4.436-.307c-2.168.058-1.618-.058-1.806-.455Z" transform="translate(-261.247 -244.689)" fill="#345f2a" fill-rule="evenodd"/>
      <path id="Trazado_263" data-name="Trazado 263" d="M409,383.568a9.966,9.966,0,0,1,1.3.361c.82.318.361.155.885.556l.722.744c.3-.072.723.784,1.03,1.272a6.257,6.257,0,0,1,.784,1.723c.361,1.243.755,2.529,1.066,3.761l.137.108.228.079c.632-.477.408-.965,1.445-.773,2.168.4,3.768,6.246,3.714,8.84a2.121,2.121,0,0,0,0,.4.293.293,0,0,0,.025.144c1.033,5.35-1.084,17.17-.148,19.435,5.137-.2,8.923,2.612,9.566-1.275s.108-11.412-.592-15.284c-.17-.936-.524-2.388-.6-3.251a1.013,1.013,0,0,1-.116-.188c-2.121-3.945.766-5.39-3.739-10.957-.253-.314-.3-.271-.748-.564s-3.063-3.569-4.953-4.158l-.145-.04c-.741-.2-1.373-.108-1.633-.788-.777.318-.795.134-.932.126a17.014,17.014,0,0,0-4.436-.307c-2.168.058-1.618-.058-1.806-.455Z" transform="translate(-261.247 -244.689)" fill="none" stroke="#731819" stroke-miterlimit="22.93" stroke-width="0.12"/>
      <path id="Trazado_264" data-name="Trazado 264" d="M192.171,137.456c-2.709.509-2.933,1.98-.816,3.2a8.9,8.9,0,0,0,5.78.762c2.413-.452,2.319-2.233.448-3.168a9.006,9.006,0,0,0-5.419-.791" transform="translate(-121.317 -87.719)" fill="#b02e2d" fill-rule="evenodd"/>
      <path id="Trazado_265" data-name="Trazado 265" d="M312.34,170.106h4.985l-.032-6.9-2.269.025c-1.019,0-1.123.152-1.766-.361.6,2.529-.419,4.815-.918,7.243" transform="translate(-199.505 -104.029)" fill="#e3b8bc" fill-rule="evenodd"/>
      <path id="Trazado_266" data-name="Trazado 266" d="M493.6,444.438l-.018-.018.018,0Z" transform="translate(-315.272 -283.87)" fill="#7a181a" fill-rule="evenodd"/>
      <path id="Trazado_267" data-name="Trazado 267" d="M441.347,403.873c-.282.658.1.723-.538.217a9.225,9.225,0,0,1-1.012-2.478c-.415-1.134-.723-2.1-1.134-3.273-1.474-4.306-6.044-12.232-10.476-14.49l-1.362-.65c-.025-.069-.09-.061-.13-.1l.813.076a9.512,9.512,0,0,0-4.158-.556c-1.181.144-.694.322-1.705-.271a11.748,11.748,0,0,0-9.714-.6c.2.4-.361.513,1.806.455a17.014,17.014,0,0,1,4.436.307c9.085,2.341,9.392,11.231,12.149,16.379a1.012,1.012,0,0,0,.116.188l.061-.751c1.835,5.419,2.03,8.4,2.337,14.847,1.409-.527,3.136-1.662,5.419.517a10.572,10.572,0,0,1,2.529,5.141c.8-1.355,1.387-5.166,1.467-7.095.134-3.226-.408-4.7-.777-7.568h0v-.018h-.032v-.238l-.018-.018h-.079" transform="translate(-263.118 -243.337)" fill="#28451f" fill-rule="evenodd"/>
      <path id="Trazado_268" data-name="Trazado 268" d="M344.572,297.231h.1l-4.563-.813c-3.381-.925-2.424-3.038-4.675-1.34-1.5,1.127-4.6,6.441-4.949,8.432l2.41-2.753,3.006-2a4.333,4.333,0,0,1,1.084-.361c1.77-.361.723-.278,1.882-.582l3.085-.6a16.255,16.255,0,0,1,2.619.029" transform="translate(-211.098 -188.068)" fill="#345f2a" fill-rule="evenodd"/>
      <path id="Trazado_269" data-name="Trazado 269" d="M367.838,183.847a5.844,5.844,0,0,0,1.593.206c.723-.506,2.594-.275,3.613-.3-1.322-.722-3.053-.361-4.61-.4,0-.831.025-.441.246-.676,0-1.214.932-2.225,1.636-3.11.455-.574.524-.943.878-1.445.387-.538.629-.672,1.055-1.246s.538-.9.914-1.384c.878-1.127,2.428-2.615,3.132-3.768-.531.267-.7.5-1.16.766a13.2,13.2,0,0,1-1.517,1.528,10.842,10.842,0,0,0-1.3,1.55c-1.564.094-3.143-.173-3.508-1.6-.462-1.806-.983-2.113-.065-3.862,1.217-2.326,5.78-1.806,6.1.881,0,0,.665-.173-.061-1.485-1.55-2.807-6.5-2.583-7.586,1.965a4.516,4.516,0,0,0-2.529-.177c.614.361.795.043,1.532.654a10.738,10.738,0,0,1,2.688,3.688c1.015-.52,1.21,0,3.089-.087l-3.938,5.968c-.332.589-.925,1.806-.206,2.348" transform="translate(-232.931 -107.092)" fill="#080a00" fill-rule="evenodd"/>
      <path id="Trazado_270" data-name="Trazado 270" d="M513.512,346.267c-.538-.495-4.378-.282-5.057-.217a30.184,30.184,0,0,0,.267,6.5c.054.246.13.759.2.95.217.614,0,.271.394.625.791-.148.582-.043,1.423-1.7.329-.643.672-1.405,1.022-2.063a19.757,19.757,0,0,0,1.748-4.1" transform="translate(-324.746 -220.971)" fill="#c9645c" fill-rule="evenodd"/>
      <path id="Trazado_271" data-name="Trazado 271" d="M381.481,174.252l-.289-1.5c-.307-2.673-4.88-3.208-6.1-.881-.918,1.748-.4,2.056.065,3.862.361,1.445,1.944,1.694,3.508,1.6a10.835,10.835,0,0,1,1.3-1.55,13.2,13.2,0,0,0,1.517-1.528m-1.355.145c-1.593,3.334-5.314-.6-2.731-2.359.928-.636,1.893.018,2.449.314-.17.867-1.2.788-.2,1.72Z" transform="translate(-239.265 -108.837)" fill="#fafafb" fill-rule="evenodd"/>
      <path id="Trazado_272" data-name="Trazado 272" d="M253.233,146.134a3.109,3.109,0,0,1,4.6.275c2.641-.91,2.464-3.717-1.564-4.2-1.268-.152-3.078.036-3.764.759-1.506,1.582.4,2.236.723,3.172" transform="translate(-160.921 -90.798)" fill="#b02e2d" fill-rule="evenodd"/>
      <path id="Trazado_273" data-name="Trazado 273" d="M345.13,161.727v5.928L348.8,164.7c2.045-1.163,1.221-.553,1.275-2.648,0-.571.166-1.1.206-1.665-.462.47-.1,0-.329.686a3.363,3.363,0,0,1-.155.564Z" transform="translate(-220.45 -102.445)" fill="#e3b8bc" fill-rule="evenodd"/>
      <path id="Trazado_274" data-name="Trazado 274" d="M99.709,149.221c.722-.571.4-.314.975-1.058.592-3.161-3.367-3.851-4.8-1.994-1.662,2.167,1.149,4.306,3.829,3.053" transform="translate(-60.923 -92.71)" fill="#5b1d48" fill-rule="evenodd"/>
      <path id="Trazado_275" data-name="Trazado 275" d="M192.454,346.6a31.032,31.032,0,0,0,2.735,5.859c.7,1.188.444,1.445,1.084,1.7l.094-8.052-3.818-.029c-.17.3-.314-.415-.09.524" transform="translate(-122.857 -221.055)" fill="#c9645c" fill-rule="evenodd"/>
      <path id="Trazado_276" data-name="Trazado 276" d="M424.994,406.62c.567,4.895,1.055,5.1,1.174,10.744.065,3.139.043,8.616-.224,11.347-.145,1.478-.946,6.362-.723,7.171l1.084-.278a4.515,4.515,0,0,1,1.134-.434,9.112,9.112,0,0,1,2.951-.314c-.928-2.265,1.181-14.089.148-19.435a1,1,0,0,0-.025-.144,2.131,2.131,0,0,1,0-.4c.054-2.594-1.539-8.442-3.714-8.84-1.048-.191-.824.3-1.445.773l-.228-.079-.137-.108" transform="translate(-271.46 -259.324)" fill="#28451f" fill-rule="evenodd"/>
      <path id="Trazado_277" data-name="Trazado 277" d="M402.72,403.019c.231.661,1.506.437,3.186.517,1.322.061,2.641.094,3.974.148l-.108-1.763c.322-1.467-.9-10.007-1.5-11.827l-1.344-3.251-.723-.744c-1.412-.336-3.056.1-5.032-.5,1.5,2.724,1.806,4.032,2.048,7.8.314,4.7-.592,8.157-.495,9.627" transform="translate(-256.245 -246.298)" fill="#fbfcfd" fill-rule="evenodd"/>
      <path id="Trazado_278" data-name="Trazado 278" d="M218,143.49c-1.972,2.359-1.369,1.16-4.1,3.251-2.037,1.55-.842,3.591,1.084,4.335,0-2.807-.2-2.485,1.972-3.974,1.423-.968,2.529-1.405,2.37-3.822Z" transform="translate(-135.946 -91.516)" fill="#74a046" fill-rule="evenodd"/>
      <path id="Trazado_279" data-name="Trazado 279" d="M263.34,123.4a15.3,15.3,0,0,1,6.188.694c.867.21.78.387,1.694.56-.264-1.55-2.287-2.167-2.641-4.79-2.016.1-1.311.722-4.284,2.211-.77.39-.9.361-.957,1.326" transform="translate(-168.206 -76.557)" fill="#e3bbba" fill-rule="evenodd"/>
      <path id="Trazado_280" data-name="Trazado 280" d="M476.832,158.448l-7.127.022.018-3.02c-.47.723-.256,4.335-.206,5.123,1.445-.235,2.373-1.037,4.281-.249,1.64.676,1.9,1.5,2.915,2.391Z" transform="translate(-299.843 -99.29)" fill="#e3b8bc" fill-rule="evenodd"/>
      <path id="Trazado_281" data-name="Trazado 281" d="M420.782,176.12c-.022-.9-.412-.39-.361-1.3.051-.672.336-.6.578-.972a2.22,2.22,0,0,0-2.637-1.561,2.279,2.279,0,0,0-1.911,2.167c-.217,2.789,2.919,3.06,4.317,1.676" transform="translate(-265.999 -110.008)" fill="#3f1e16" fill-rule="evenodd"/>
      <path id="Trazado_282" data-name="Trazado 282" d="M530.588,272.458l1.831-.09a36.3,36.3,0,0,0-.22-7.926l-1.669-.072Z" transform="translate(-338.874 -168.863)" fill="#e4b8bb" fill-rule="evenodd"/>
      <path id="Trazado_283" data-name="Trazado 283" d="M508.77,191.776l3.739-.21a25.861,25.861,0,0,0-1.561-3.493l-2.128-3.7Z" transform="translate(-324.975 -117.763)" fill="#c86e69" fill-rule="evenodd"/>
      <path id="Trazado_284" data-name="Trazado 284" d="M419.708,426.314c2.778-2.579,6.5-1.644,10.679-.871,5.943,1.1,5.57-1.167,5.726-6.542a3.753,3.753,0,0,1,3.071-.329,9.755,9.755,0,0,1,2.229,1.394A26.593,26.593,0,0,1,444,424.584l.1-.589a10.51,10.51,0,0,0-2.529-5.141c-2.287-2.168-4.013-1.044-5.419-.517-.307-6.452-.5-9.436-2.337-14.847l-.061.751c.079.849.434,2.3.6,3.251.7,3.873,1.235,11.387.592,15.284s-4.429,1.084-9.566,1.275a9.111,9.111,0,0,0-2.951.314,4.514,4.514,0,0,0-1.134.433l-1.084.278c-.238-.809.564-5.693.723-7.171.267-2.731.289-8.208.224-11.347-.119-5.643-.607-5.849-1.174-10.744-.311-1.228-.69-2.529-1.066-3.761a6.258,6.258,0,0,0-.784-1.723c-.3-.488-.723-1.344-1.03-1.272l1.344,3.251c3.381,10.411.69,23.25,1.279,34.012" transform="translate(-266.42 -248.507)" fill="#1b160d" fill-rule="evenodd"/>
      <path id="Trazado_285" data-name="Trazado 285" d="M204.727,168.24c1.994.723,2.941.231,4.523-.379.9-2.269-.932-2.464-3.063-2.3-1.962.148-3.468,1.514-1.445,2.684" transform="translate(-130.163 -105.718)" fill="#5b1d48" fill-rule="evenodd"/>
      <path id="Trazado_286" data-name="Trazado 286" d="M481.456,286.585l-4.7-.065a1.407,1.407,0,0,0,.1.126l.2.231c.668.665.383.087,1.113,1.214.452.7.769.9,1.192,1.492.8,1.116,1.192,2.55,2.092,3.49Z" transform="translate(-304.528 -183.011)" fill="#e3bbba" fill-rule="evenodd"/>
      <path id="Trazado_287" data-name="Trazado 287" d="M291.969,412.515c.242,2.3,3.782,2.789,3.667-.744-.108-3.251-3.974-2.045-3.667.744" transform="translate(-186.482 -261.769)" fill="#747471" fill-rule="evenodd"/>
      <path id="Trazado_288" data-name="Trazado 288" d="M274.978,227.472c.744.094.3.069.43-.524.022-.094,0-.99,0-1.152-.022-.755,0-1.517-.018-2.276v.155a25.089,25.089,0,0,0-5.56,0,60.414,60.414,0,0,0,5.144,3.811" transform="translate(-172.352 -142.77)" fill="#c76562" fill-rule="evenodd"/>
      <path id="Trazado_289" data-name="Trazado 289" d="M255.189,151.6c-1.329,2.745,4.649,3.36,4.6.275a3.109,3.109,0,0,0-4.6-.275" transform="translate(-162.876 -96.266)" fill="#5b1d48" fill-rule="evenodd"/>
      <path id="Trazado_290" data-name="Trazado 290" d="M222.646,138.341l1.333-.2c.744-.564,1.145-.683,1.033-1.958a3.265,3.265,0,0,0-4.064-.448c-1,.553-1.748,2.189,1.7,2.6" transform="translate(-140.593 -86.368)" fill="#5b1d48" fill-rule="evenodd"/>
      <path id="Trazado_291" data-name="Trazado 291" d="M468.928,190.159a2.785,2.785,0,0,0,3.277-.827c.1-1.116-.755-1.7-1.275-2.254.21.968.7.993.723,2.056-.217.076-.6.231-.863.293-1.409.307-.361.108-.939-.025-.9-.206.762-7.008,1.687-7.279,1.181.033,1.232.748,1.622,1.611-.914-6.08-5.6,1.416-4.23,6.427" transform="translate(-299.366 -115.904)" fill="#14120b" fill-rule="evenodd"/>
      <path id="Trazado_292" data-name="Trazado 292" d="M294.48,198.3l-.072-3.678c-1.152.444-.871.759-2.673,1.871-.791.488-2.456,1.145-2.814,1.77Z" transform="translate(-184.545 -124.31)" fill="#e3bbba" fill-rule="evenodd"/>
      <path id="Trazado_293" data-name="Trazado 293" d="M383.038,176.5c-1-.932.033-.853.2-1.72-.556-.3-1.521-.95-2.449-.314-2.583,1.763,1.138,5.693,2.731,2.359Z" transform="translate(-242.661 -111.264)" fill="#3f1e16" fill-rule="evenodd"/>
      <path id="Trazado_294" data-name="Trazado 294" d="M416.73,164.6s4.581.769,6.192,2.709a10.371,10.371,0,0,0,1.365,1.676,5.83,5.83,0,0,0-2.431-4.064c-1.29-.723-3.67-1.326-5.126-.322" transform="translate(-266.184 -104.797)" fill="#e2b782" fill-rule="evenodd"/>
      <path id="Trazado_295" data-name="Trazado 295" d="M172,140.5c.033-.04.061-.166.072-.137l.17-.43c.079-.246-.065-.108.159-.545,1.445,0,.686.983.574,1.824l2.074.036c-.2-.806-1.131-1.734.408-1.879l.379,1.138c.842-.3,1.972-1.806-1.922-1.756s-2.7,1.445-1.915,1.748" transform="translate(-109.348 -88.621)" fill="#f7f3ba" fill-rule="evenodd"/>
      <path id="Trazado_296" data-name="Trazado 296" d="M309.122,363.62c1.109-.26.972-.228,1.405-1.178.3-.665.4-.834.34-1.358-.1-.816,0-.249-.191-.524-.459.683.04-.495-1.329-.329-.961.119-2.168,1.976-.806,2.995.173.13.177.1.361.228.022,0,.094.116.108.083s.076.054.112.083" transform="translate(-196.688 -230.084)" fill="#9e9b99" fill-rule="evenodd"/>
      <path id="Trazado_297" data-name="Trazado 297" d="M324.729,337.039l.549-.112c.126-.853.842-1.745.361-2.341v.242c-.412-1.311-1.272-.9-2.261-.571a3.2,3.2,0,0,0-.043,2.608Z" transform="translate(-206.363 -213.292)" fill="#9e9b99" fill-rule="evenodd"/>
      <path id="Trazado_298" data-name="Trazado 298" d="M301.9,388.658a2.408,2.408,0,0,0,.928-2.03l-.224-.7c-.112.614.145-.3-.932-.4-1.568-.148-1.72,1.774-1.376,2.493.3.614.907.556,1.6.639" transform="translate(-191.712 -246.246)" fill="#9e9b99" fill-rule="evenodd"/>
      <path id="Trazado_299" data-name="Trazado 299" d="M300.088,387.461c-.7-.083-1.308-.025-1.6-.639-.343-.722-.191-2.641,1.376-2.493,1.084.1.82,1.011.932.4-.91-1.987-2.959-.863-3.363.387-.564,1.741.957,3.323,2.659,2.348" transform="translate(-189.904 -245.049)" fill="#14150e" fill-rule="evenodd"/>
      <path id="Trazado_300" data-name="Trazado 300" d="M294.708,414.182c-.7-.079-1.308-.022-1.6-.636-.343-.722-.191-2.641,1.376-2.5,1.084.1.82,1.015.932.4-.91-1.99-2.959-.867-3.363.383-.564,1.745.957,3.327,2.659,2.348" transform="translate(-186.468 -262.117)" fill="#14150e" fill-rule="evenodd"/>
      <path id="Trazado_301" data-name="Trazado 301" d="M322.9,335.748l-1.391-.173a3.174,3.174,0,0,1,.043-2.608c.99-.325,1.85-.723,2.261.571v-.242c-.387-2.287-2.839-1.326-3.4-.126a2.041,2.041,0,0,0,.408,2.345c.766.748,1.311.473,2.077.235" transform="translate(-204.537 -212.001)" fill="#14150e" fill-rule="evenodd"/>
      <path id="Trazado_302" data-name="Trazado 302" d="M307.627,362.275c-.036-.029-.094-.119-.112-.083s-.087-.069-.108-.083c-.184-.123-.188-.1-.361-.228-1.366-1.019-.155-2.89.806-2.995,1.369-.166.871,1.012,1.329.329-1.734-2.717-4.418.163-3.345,2.326.361.694.975.629,1.806.723" transform="translate(-195.193 -228.739)" fill="#11130c" fill-rule="evenodd"/>
      <path id="Trazado_303" data-name="Trazado 303" d="M344.65,402.453l2.988,1.759a17.037,17.037,0,0,1,.423-2.391c-.022-1.2-1.308-.087-1.626.072a2.807,2.807,0,0,1-.838.271Z" transform="translate(-220.143 -256.309)" fill="#c7996d" fill-rule="evenodd"/>
      <path id="Trazado_304" data-name="Trazado 304" d="M116.409,174.776c.033-.04.065-.166.076-.137l.17-.43c.079-.246-.065-.112.159-.549,1.445.018.683.986.574,1.828l2.07.036c-.2-.806-1.127-1.734.412-1.879l.361,1.134c.845-.3,1.976-1.806-1.918-1.752s-2.7,1.445-1.918,1.748" transform="translate(-73.83 -110.517)" fill="#f7f3ba" fill-rule="evenodd"/>
      <path id="Trazado_305" data-name="Trazado 305" d="M86.1,154.968c-.033.04-.065.166-.076.137l-.17.43c-.079.246.065.112-.159.549-1.445,0-.686-.986-.574-1.828l-2.07-.036c.2.806,1.127,1.734-.412,1.878l-.361-1.134c-.845.3-1.976,1.806,1.918,1.752s2.7-1.445,1.918-1.748" transform="translate(-52.024 -98.504)" fill="#f7f3ba" fill-rule="evenodd"/>
      <path id="Trazado_306" data-name="Trazado 306" d="M252.288,168.107c0,.065.043.213,0,.191l.108.556c.079.3.141.069.2.668-1.506.939-1.355-.564-1.806-1.5l-2.167,1.326c.723.7,2.3,1.044.816,2.207l-1.138-.921c-.672.86-.849,3.15,3.132.538s1.835-3.251.82-3.063" transform="translate(-158.361 -107.319)" fill="#f7f3ba" fill-rule="evenodd"/>
      <path id="Trazado_307" data-name="Trazado 307" d="M274.183,147.478c-.029.043-.061.166-.072.137l-.17.43c-.079.246.065.112-.159.549-1.445,0-.686-.983-.574-1.828l-2.07-.036c.2.809,1.127,1.738-.412,1.882l-.379-1.138c-.842.3-1.972,1.806,1.922,1.756s2.7-1.445,1.915-1.752" transform="translate(-172.153 -93.72)" fill="#f7f3ba" fill-rule="evenodd"/>
      <path id="Trazado_308" data-name="Trazado 308" d="M176.339,179.4c.033-.043.065-.166.072-.137l.17-.43c.083-.246-.061-.112.159-.549,1.445,0,.686.983.578,1.828l2.07.036c-.2-.809-1.127-1.738.412-1.882l.361,1.138c.842-.3,1.976-1.806-1.918-1.756s-2.7,1.445-1.918,1.752" transform="translate(-112.11 -113.468)" fill="#f7f3ba" fill-rule="evenodd"/>
      <path id="Trazado_309" data-name="Trazado 309" d="M91.35,161.452c3.031,0,7.586,4.357,8.612,5.495,1.806,2.016,15.433.484,17.7.834,4.089.639,2.406,2.8,8.977,1.683,2.8-.48,4.519-2.471,9.551-2.3,2.6.087,14.266.491,16.1-.571,3.92-2.269,4.635-7.42,12.535-8.056" transform="translate(-58.348 -101.264)" fill="none" stroke="#27241f" stroke-miterlimit="22.93" stroke-width="1.29"/>
      <path id="Trazado_310" data-name="Trazado 310" d="M115.31,155.746a.672.672,0,1,1-.78.661.722.722,0,0,1,.78-.661" transform="translate(-73.154 -99.477)" fill="#e2b1b4" fill-rule="evenodd"/>
      <path id="Trazado_311" data-name="Trazado 311" d="M126.468,159.7a.419.419,0,1,1-.488.412.455.455,0,0,1,.488-.412" transform="translate(-80.467 -102.002)" fill="#e2b1b4" fill-rule="evenodd"/>
      <path id="Trazado_312" data-name="Trazado 312" d="M139.62,141.576a.668.668,0,1,1-.78.661.723.723,0,0,1,.78-.661" transform="translate(-88.682 -90.426)" fill="#e2b1b4" fill-rule="evenodd"/>
      <path id="Trazado_313" data-name="Trazado 313" d="M150.728,145.518a.419.419,0,1,1-.488.415.455.455,0,0,1,.488-.415" transform="translate(-95.964 -92.945)" fill="#e2b1b4" fill-rule="evenodd"/>
      <path id="Trazado_314" data-name="Trazado 314" d="M178.19,159.556a.672.672,0,1,1-.78.661.723.723,0,0,1,.78-.661" transform="translate(-113.318 -101.911)" fill="#e2b1b4" fill-rule="evenodd"/>
      <path id="Trazado_315" data-name="Trazado 315" d="M189.338,163.508a.419.419,0,1,1-.488.412.459.459,0,0,1,.488-.412" transform="translate(-120.626 -104.436)" fill="#e2b1b4" fill-rule="evenodd"/>
      <path id="Trazado_316" data-name="Trazado 316" d="M195.56,139.876a.668.668,0,1,1-.78.661.722.722,0,0,1,.78-.661" transform="translate(-124.413 -89.34)" fill="#e2b1b4" fill-rule="evenodd"/>
      <path id="Trazado_317" data-name="Trazado 317" d="M206.718,143.818a.419.419,0,1,1-.488.415.455.455,0,0,1,.488-.415" transform="translate(-131.727 -91.859)" fill="#e2b1b4" fill-rule="evenodd"/>
      <path id="Trazado_318" data-name="Trazado 318" d="M239.626,158.655a.668.668,0,1,0,.78.657.723.723,0,0,0-.78-.657" transform="translate(-152.704 -101.336)" fill="#e2b1b4" fill-rule="evenodd"/>
      <path id="Trazado_319" data-name="Trazado 319" d="M232.675,162.808a.629.629,0,1,0,.723.621.686.686,0,0,0-.723-.621" transform="translate(-148.277 -103.989)" fill="#e2b1b4" fill-rule="evenodd"/>
      <path id="Trazado_320" data-name="Trazado 320" d="M161.588,169.737a.585.585,0,1,0,.683.578.636.636,0,0,0-.683-.578" transform="translate(-102.9 -108.414)" fill="#e2b1b4" fill-rule="evenodd"/>
      <path id="Trazado_321" data-name="Trazado 321" d="M152.616,173.188a.361.361,0,1,0,.426.361.4.4,0,0,0-.426-.361" transform="translate(-97.292 -110.62)" fill="#e2b1b4" fill-rule="evenodd"/>
      <path id="Trazado_322" data-name="Trazado 322" d="M258.44,144.216a.668.668,0,1,1-.78.661.723.723,0,0,1,.78-.661" transform="translate(-164.578 -92.112)" fill="#e2b1b4" fill-rule="evenodd"/>
      <path id="Trazado_323" data-name="Trazado 323" d="M265.542,148.368a.629.629,0,1,1-.723.621.683.683,0,0,1,.723-.621" transform="translate(-169.152 -94.765)" fill="#e2b1b4" fill-rule="evenodd"/>
      <path id="Trazado_324" data-name="Trazado 324" d="M97.511,148a.751.751,0,1,1-.751.751.751.751,0,0,1,.751-.751" transform="translate(-61.803 -94.531)" fill="#c5acce" fill-rule="evenodd"/>
      <path id="Trazado_325" data-name="Trazado 325" d="M207.129,167.91a.679.679,0,1,1-.679.679.679.679,0,0,1,.679-.679" transform="translate(-131.868 -107.249)" fill="#c5acce" fill-rule="evenodd"/>
      <path id="Trazado_326" data-name="Trazado 326" d="M225.591,137.46a.751.751,0,1,1-.751.751.751.751,0,0,1,.751-.751" transform="translate(-143.614 -87.799)" fill="#c5acce" fill-rule="evenodd"/>
      <path id="Trazado_327" data-name="Trazado 327" d="M260.114,154.14a.564.564,0,1,1-.564.564.564.564,0,0,1,.564-.564" transform="translate(-165.785 -98.453)" fill="#c5acce" fill-rule="evenodd"/>
      <path id="Trazado_328" data-name="Trazado 328" d="M188.952,127.58c-2.67.332-1.568-.076-4.559-.361-2.225-.228-2.684,1.806-1.9,3.428,1.669-1.806,1.358-1.709,3.613-1.351,1.488.235,2.46.618,3.8-1.026Z" transform="translate(-116.339 -81.246)" fill="#74a046" fill-rule="evenodd"/>
      <path id="Trazado_329" data-name="Trazado 329" d="M170.975,130.884c.723-.567.4-.311.975-1.058.592-3.157-3.367-3.851-4.8-1.99-1.662,2.167,1.149,4.3,3.826,3.049" transform="translate(-106.447 -80.999)" fill="#5b1d48" fill-rule="evenodd"/>
      <path id="Trazado_330" data-name="Trazado 330" d="M168.781,129.64a.748.748,0,1,1-.531.218.751.751,0,0,1,.531-.218" transform="translate(-107.327 -82.804)" fill="#c5acce" fill-rule="evenodd"/>
      <path id="Trazado_331" data-name="Trazado 331" d="M467.452,407.671l-.849-3.251c-2.269-5.245-2.438-6.784-5.982-11.77-1.915-2.691-.748-1.77-1.893-3.349a8.12,8.12,0,0,1,1.962.972l6.275,2.673c-.329-.834-4.747-3.006-5.917-3.612a31.5,31.5,0,0,0-3.656-1.308c-2.749-1.084.116-.437-3.779-1.04l-.813-.076c.04.043.1.036.13.1l1.362.65c4.433,2.258,9,10.184,10.476,14.49.4,1.17.722,2.139,1.134,3.273a9.323,9.323,0,0,0,1.012,2.478c.636.506.256.441.538-.217" transform="translate(-289.224 -247.135)" fill="#11130c" fill-rule="evenodd"/>
      <path id="Trazado_332" data-name="Trazado 332" d="M404.777,430.76a3.948,3.948,0,0,0-.361,2.146c1.062.13,2.1.235,3.157.329,1.326.116,2.735-.033,2.746.647a2.563,2.563,0,0,0,1.691-.025,32.092,32.092,0,0,0,0-4.826l-.1,2.4c-1.319-.054-2.637-.087-3.974-.148-1.68-.079-2.955.145-3.186-.517" transform="translate(-258.303 -274.039)" fill="#cbd5de" fill-rule="evenodd"/>
      <path id="Trazado_333" data-name="Trazado 333" d="M399.78,427.413c.676-.723,1.066-5.206,1.105-6.5a7.091,7.091,0,0,0-.968,1c-.441.437-.506.394-.918.769a30.018,30.018,0,0,0,.78,4.743" transform="translate(-254.859 -268.852)" fill="#cad3da" fill-rule="evenodd"/>
      <path id="Trazado_334" data-name="Trazado 334" d="M38.37,361.629V338.148l14.248-7.442v-.361a215.991,215.991,0,0,1-37.74-13.6L22.79,338.3,12.7,351.564a203.615,203.615,0,0,0,25.67,10.064" transform="translate(-8.11 -202.314)" fill="#c02830"/>
      <path id="Trazado_335" data-name="Trazado 335" d="M617.081,361.565V338.084l-14.251-7.442v-.361a219.183,219.183,0,0,0,37.743-13.641l-7.915,21.6,10.09,13.265a203.556,203.556,0,0,1-25.667,10.064" transform="translate(-385.055 -202.25)" fill="#c02830"/>
      <path id="Trazado_336" data-name="Trazado 336" d="M91,418.534c25.562,10.075,60.173,16.256,98.285,16.256s72.72-6.185,98.282-16.256v-34.9c-25.558,10.075-60.17,16.256-98.282,16.256S116.54,393.705,91,383.63Z" transform="translate(-58.124 -245.04)" fill="#c02830"/>
      <path id="Trazado_337" data-name="Trazado 337" d="M308.022,445.9a2.294,2.294,0,0,1-.535,2.016,3.378,3.378,0,0,1-1.983,1.2,3.551,3.551,0,0,1-2.4-.264,2.348,2.348,0,0,1-.813-3.674,3.645,3.645,0,0,1,2.121-1.2,3.471,3.471,0,0,1,2.287.249,2.366,2.366,0,0,1,1.326,1.673m-2.529-19.475q-.076,3.454,0,7.836v4.01a17.41,17.41,0,0,0,.177,3.016,1.928,1.928,0,0,0,.1.361c-.043.018-.524.181-1.445.48-.513.181-1.062.379-1.64.614q-.816-2.189-2.738-7.153-.986-2.236-3.107-7.319Zm-16.383,20.685c-.235-.473-.639-1.232-1.214-2.287-.332-.585-.831-1.376-1.5-2.388-.134.574-.336,1.521-.6,2.825q-.217,1.127-.459,3.045c.282-.043.91-.2,1.886-.462a13.639,13.639,0,0,0,1.868-.733Zm9.544,3.233-7.684,1.178-.867-1.716q-.293.17-1.445,1.084a16.25,16.25,0,0,0-1.575,1.654l-1.055-1.575c-.21-.314-.509-.748-.9-1.308l-.322,2.818-4.082.625q.361-3.591,1.015-11.835.332-5.506.361-10.4l8.414-1.29q.722,2.139,3.724,9.909,1.586,4.042,4.4,10.852Zm-21.079-18.655L271.482,449.8a26.4,26.4,0,0,0,4.006-.585,12.416,12.416,0,0,0,1.712-.549q-.145.654-.495,2.269-.2.914-.477,2.753l-12.767,1.232,2.529-13.626-1.911.3c-.683.116-1.622.322-2.807.625L260.1,433.38Zm-18,1.806-7.1,17.734a26.987,26.987,0,0,0,4.032-.361,12,12,0,0,0,1.741-.452q-.184.647-.618,2.236-.249.9-.629,2.724l-12.8.517,3.277-13.464-1.925.191c-.686.076-1.636.231-2.836.47l-.683-8.872Zm-18.377.722-.722,11.56q-.21,3.732-.513,10.176l-7.948-.108-.657-21.773Zm-17.513,10.617c.061-1.467-.788-2.243-2.529-2.316a4.79,4.79,0,0,0-.643,0l-.34,4.953C222.438,447.509,223.613,446.627,223.685,444.839Zm5.982-2.124a8.369,8.369,0,0,1-2.839,6.318,9.63,9.63,0,0,1-6.929,2.131l-.34,4.313-7.8-.3.025-10.567q-.022-4.082-.119-11.22a36.02,36.02,0,0,1,6.5-.166,14.829,14.829,0,0,1,8.244,2.42A7.8,7.8,0,0,1,229.667,442.715Zm-29.323-10.538-1.694,9.01q-.722,3.858-1.94,11.715a21.708,21.708,0,0,1-7.51.17q-4.6-.723-6.712-2.912a8.493,8.493,0,0,1-2.131-5.281,50.277,50.277,0,0,1,.145-7.062q.3-4.714.788-8.565l9.031,1.387q-.361,1.839-1.084,6-.4,2.327-.983,6.6a11.861,11.861,0,0,0-.116,4.472,2.331,2.331,0,0,0,2.121,1.557,2.647,2.647,0,0,0,1.138-.116q.441-2.89,1.246-9.2.361-3.175.845-8.833ZM178.7,437.73a8.048,8.048,0,0,0-1.506-.56,1.886,1.886,0,0,0-1.293.191,1.763,1.763,0,0,0-.95,1.254,6.867,6.867,0,0,0,.647,2.832,6.845,6.845,0,0,1,.448,3.743,4.83,4.83,0,0,1-2.568,3.417,6.307,6.307,0,0,1-4.443.546,13.075,13.075,0,0,1-3.284-1.03v-2.168c-.022-.545-.051-1.272-.1-2.167a11.2,11.2,0,0,0,1.972.806q2.066.441,2.4-1.123a2.984,2.984,0,0,0-.4-2.214c-.741-.986-1.47-1.98-2.207-2.977a7.278,7.278,0,0,1-1.445-6.091,5.909,5.909,0,0,1,3.573-4.526,10.306,10.306,0,0,1,6.112-.26,20.991,20.991,0,0,1,4.472,1.575Z" transform="translate(-105.807 -272.378)" fill="#fff"/>
      <path id="Trazado_338" data-name="Trazado 338" d="M680.164,269.784a7.679,7.679,0,1,1-15.359,0,7.682,7.682,0,0,1,15.359,0Zm-13.442,0a5.788,5.788,0,0,0,5.834,5.968,5.719,5.719,0,0,0,5.693-5.921,5.768,5.768,0,1,0-11.527-.047Zm4.6,3.92h-1.73v-7.482a15.073,15.073,0,0,1,2.868-.228,4.665,4.665,0,0,1,2.6.545,2.073,2.073,0,0,1,.722,1.64,1.93,1.93,0,0,1-1.55,1.734V270a2.218,2.218,0,0,1,1.369,1.806,5.677,5.677,0,0,0,.546,1.871h-1.868a6.531,6.531,0,0,1-.593-1.824c-.137-.82-.592-1.185-1.55-1.185h-.82Zm.054-4.245h.82c.954,0,1.73-.322,1.73-1.084,0-.683-.5-1.138-1.6-1.138a4.036,4.036,0,0,0-.954.09Z" transform="translate(-424.642 -167.547)" fill="#211915"/>
    </g>
  </g>
</svg>
